<?xml version="1.0" standalone="no"?>
<!DOCTYPE svg PUBLIC "-//W3C//DTD SVG 1.1//EN" "http://www.w3.org/Graphics/SVG/1.1/DTD/svg11.dtd" >
<svg xmlns="http://www.w3.org/2000/svg" xmlns:xlink="http://www.w3.org/1999/xlink" version="1.1">
<metadata>
Created by FontForge 20170924 at Fri Jun  6 18:32:18 2003
 By www-data
(C) 2003 Bitstream Inc. &#38; Font Diner. All Rights Reserved. Designed by Stuart Sandler. http://www.fontdiner.com/ ROE
</metadata>
<defs>
<font id="ConcursoItalianBTN" horiz-adv-x="1024" >
  <font-face 
    font-family="ConcursoItalian BTN"
    font-weight="400"
    font-style="italic"
    font-stretch="normal"
    units-per-em="2048"
    panose-1="2 11 6 6 2 1 2 4 11 7"
    ascent="1638"
    descent="-410"
    x-height="1257"
    cap-height="1434"
    bbox="-111 -483 2068 1681"
    underline-thickness="41"
    underline-position="-292"
    unicode-range="U+0020-F002"
  />
<missing-glyph 
d="M128 0v1638h768v-1638h-768zM256 128h512v1382h-512v-1382z" />
    <glyph glyph-name=".notdef" 
d="M128 0v1638h768v-1638h-768zM256 128h512v1382h-512v-1382z" />
    <glyph glyph-name=".null" horiz-adv-x="0" 
 />
    <glyph glyph-name="nonmarkingreturn" horiz-adv-x="328" 
 />
    <glyph glyph-name="space" unicode=" " horiz-adv-x="328" 
 />
    <glyph glyph-name="exclam" unicode="!" horiz-adv-x="272" 
d="M190 190h-108v1244h108v-1244zM201 0h-129v127h129v-127z" />
    <glyph glyph-name="quotedbl" unicode="&#x22;" horiz-adv-x="469" 
d="M387 1024h-106v410h106v-410zM190 1024h-108v410h108v-410z" />
    <glyph glyph-name="numbersign" unicode="#" horiz-adv-x="1575" 
d="M1458 971l-37 -107h-317l-98 -276h340l-37 -109h-340l-170 -479h-129l172 479h-269l-172 -479h-127l170 479h-327l39 109h325l101 276h-353l35 107h354l173 483h127l-168 -483h264l172 483h127l-170 -483h315zM975 864h-266l-97 -276h267z" />
    <glyph glyph-name="dollar" unicode="$" horiz-adv-x="645" 
d="M573 223q0 -79 -54.5 -142t-141.5 -79v-145h-107v145q-85 16 -140.5 70.5t-55.5 130.5v73h110v-73q0 -64 86 -90v462q-94 92 -135 160q-61 102 -61 223q0 80 53.5 142.5t142.5 79.5v131h107v-131q89 -14 142.5 -68.5t53.5 -132.5v-82h-106v82q0 22 -23 48q-27 31 -67 44
v-446q96 -94 134 -158q62 -105 62 -244zM270 735v334q-42 -15 -67 -55q-19 -30 -19 -56q0 -117 86 -223zM467 223q0 126 -90 240v-350q42 15 68 54q22 32 22 56z" />
    <glyph glyph-name="percent" unicode="%" horiz-adv-x="1042" 
d="M981 125q0 -65 -47.5 -105t-120.5 -40q-74 0 -123 40t-49 105v321q0 66 49 107t123 41q73 0 120.5 -41t47.5 -107v-321zM803 1114l-494 -1137l-102 25l467 1061h-283q10 -28 10 -49v-320q0 -65 -49 -106t-123 -41q-73 0 -120.5 41t-47.5 106v320q0 65 47.5 106t120.5 41
h525q19 0 34 -15.5t15 -31.5zM883 125v321q0 13 -17 29q-22 21 -53 21t-54 -21q-18 -16 -18 -29v-321q0 -12 18 -28q23 -19 54 -19t53 19q17 16 17 28zM301 694v320q0 12 -18 28q-23 21 -54 21t-52 -21q-17 -16 -17 -28v-320q0 -12 17 -28q21 -21 52 -21t54 21q18 16 18 28z
" />
    <glyph glyph-name="ampersand" unicode="&#x26;" horiz-adv-x="696" 
d="M655 252q0 -99 -67 -168l43 -90h-129l-15 33q-66 -37 -129 -37q-145 0 -223 72q-74 69 -74 190q0 208 144 498q-96 305 -96 510q0 82 48 135q55 59 152 59q90 0 149 -59q56 -56 56 -135q0 -124 -63 -275q-22 -50 -121 -246q97 -297 207 -542q14 30 14 57v94h104v-96z
M401 1260q0 24 -20 52q-28 38 -72 38q-38 0 -66 -26t-28 -64q0 -168 68 -361q118 194 118 361zM446 119q-76 170 -188 485q-86 -191 -86 -352q0 -156 186 -156q39 0 88 23z" />
    <glyph glyph-name="quotesingle" unicode="'" horiz-adv-x="272" 
d="M190 1024h-108v410h108v-410z" />
    <glyph glyph-name="parenleft" unicode="(" horiz-adv-x="426" 
d="M344 -20q-115 0 -188.5 65t-73.5 162v1020q0 97 73.5 162t188.5 65v-104q-69 0 -114 -44q-40 -38 -40 -79v-1020q0 -41 40 -78q45 -43 114 -43v-106z" />
    <glyph glyph-name="parenright" unicode=")" horiz-adv-x="426" 
d="M344 207q0 -97 -73.5 -162t-188.5 -65v106q69 0 115 43q41 37 41 78v1020q0 41 -41 79q-46 44 -115 44v104q115 0 188.5 -65t73.5 -162v-1020z" />
    <glyph glyph-name="asterisk" unicode="*" horiz-adv-x="459" 
d="M422 1188l-49 -90l-94 55v-109h-99v109l-94 -55l-49 90l90 53l-90 51l49 90l94 -55v107h99v-107l94 55l49 -90l-92 -51z" />
    <glyph glyph-name="plus" unicode="+" horiz-adv-x="1706" 
d="M1452 561h-549v-561h-98v561h-551v98h551v562h98v-562h549v-98z" />
    <glyph glyph-name="comma" unicode="," horiz-adv-x="272" 
d="M201 -12l-80 -86v98h-49v129h129v-141z" />
    <glyph glyph-name="hyphen" unicode="-" horiz-adv-x="778" 
d="M696 553h-614v109h614v-109z" />
    <glyph glyph-name="hyphen" unicode="&#x2010;" horiz-adv-x="778" 
d="M696 553h-614v109h614v-109z" />
    <glyph glyph-name="period" unicode="." horiz-adv-x="272" 
d="M201 0h-129v127h129v-127z" />
    <glyph glyph-name="slash" unicode="/" horiz-adv-x="561" 
d="M479 1430l-284 -1438l-113 14l285 1436z" />
    <glyph glyph-name="zero" unicode="0" horiz-adv-x="653" 
d="M592 205q0 -96 -76 -160.5t-190 -64.5q-115 0 -190 64.5t-75 160.5v751q0 97 75 161.5t190 64.5q114 0 190 -64.5t76 -161.5v-751zM481 205v751q0 41 -41 78q-46 43 -114 43t-114 -43q-40 -37 -40 -78v-751q0 -41 40 -77q46 -42 114 -42t114 42q41 37 41 77z" />
    <glyph glyph-name="one" unicode="1" horiz-adv-x="432" 
d="M301 0h-111v1061h-159v100h270v-1161z" />
    <glyph glyph-name="two" unicode="2" horiz-adv-x="633" 
d="M580 954q0 -154 -56 -272q-43 -94 -159 -231q-52 -55 -142 -164q-59 -86 -63 -181h405v-106h-463q-21 0 -37 16.5t-16 34.5v21q0 157 55 245q8 12 170 205q107 127 147 211q48 99 48 221q0 41 -41 78q-47 43 -115 43t-114 -43q-39 -37 -39 -78v-94h-111v94q0 97 75 162.5
t189 65.5q115 0 191 -65.5t76 -162.5z" />
    <glyph glyph-name="three" unicode="3" horiz-adv-x="625" 
d="M567 -61q0 -97 -76 -162.5t-190 -65.5t-189 65.5t-75 162.5v86h110v-86q0 -41 40 -78q46 -43 114 -43t114 43q40 37 40 78v458q0 41 -40 78q-46 43 -114 43q-46 0 -87.5 -24.5t-57.5 -24.5q-22 0 -38 18.5t-16 36.5q0 26 148 277q61 102 153 256h-317v104h418
q21 0 37 -17.5t16 -35.5q0 -23 -137 -254q-55 -91 -139 -229q3 0 10 -1t10 -1q115 0 190.5 -65t75.5 -161v-458z" />
    <glyph glyph-name="four" unicode="4" horiz-adv-x="631" 
d="M610 0h-112v-268h-109v268h-313q-22 0 -39 17t-17 34q0 3 371 1100q11 31 53 31q22 0 38 -18t16 -36v-1024h112v-104zM389 104v705l-237 -705h237z" />
    <glyph glyph-name="five" unicode="5" horiz-adv-x="623" 
d="M561 -61q0 -97 -76 -162.5t-190 -65.5t-189 65.5t-75 162.5v86h110v-86q0 -41 40 -78q46 -43 114 -43t114 43q40 37 40 78v458q0 41 -40 78q-46 43 -114 43q-45 0 -87 -24.5t-58 -24.5q-22 0 -38 18.5t-16 36.5v584q0 18 16 35.5t38 17.5h411v-104h-358v-445q35 11 92 11
q115 0 190.5 -65t75.5 -161v-458z" />
    <glyph glyph-name="six" unicode="6" horiz-adv-x="653" 
d="M592 207q0 -96 -76 -161.5t-190 -65.5q-115 0 -190 65t-75 162v1020q0 96 75 161.5t190 65.5q114 0 190 -65.5t76 -161.5v-86h-111v86q0 40 -41 79q-46 44 -114 44t-114 -44q-40 -38 -40 -79v-285q72 43 154 43q114 0 190 -66.5t76 -162.5v-549zM481 207v549q0 40 -41 78
q-46 43 -114 43t-114 -43q-40 -38 -40 -78v-549q0 -41 40 -78q46 -43 114 -43t114 43q41 38 41 78z" />
    <glyph glyph-name="seven" unicode="7" horiz-adv-x="571" 
d="M514 1094l-274 -1362h-117l268 1325h-354v104h422q21 0 38 -17.5t17 -35.5v-14z" />
    <glyph glyph-name="eight" unicode="8" horiz-adv-x="653" 
d="M592 207q0 -96 -76 -161.5t-190 -65.5q-115 0 -190 65t-75 162v463q0 110 91 174q-91 64 -91 176v207q0 96 75 161.5t190 65.5q114 0 190 -65.5t76 -161.5v-207q0 -109 -94 -176q94 -66 94 -174v-463zM481 1020v207q0 40 -40 78q-47 43 -115 43t-114 -43q-40 -38 -40 -78
v-207q0 -41 40 -80q46 -45 114 -45q67 0 114 45q41 39 41 80zM481 207v463q0 40 -41 78q-46 43 -114 43t-114 -43q-40 -38 -40 -78v-463q0 -41 40 -78q46 -43 114 -43t114 43q41 38 41 78z" />
    <glyph glyph-name="nine" unicode="9" horiz-adv-x="653" 
d="M592 -61q0 -97 -76 -162.5t-190 -65.5q-115 0 -190 65.5t-75 162.5v86h111v-86q0 -41 40 -78q46 -43 114 -43t114 43q41 37 41 78v284q-72 -43 -155 -43q-115 0 -190 66.5t-75 163.5v544q0 97 75 162.5t190 65.5q114 0 190 -65.5t76 -162.5v-1015zM481 410v544
q0 41 -41 78q-46 43 -114 43t-114 -43q-40 -37 -40 -78v-544q0 -41 40 -78q46 -43 114 -43t114 43q41 37 41 78z" />
    <glyph glyph-name="colon" unicode=":" horiz-adv-x="272" 
d="M201 285h-129v125h129v-125zM201 0h-129v127h129v-127z" />
    <glyph glyph-name="semicolon" unicode=";" horiz-adv-x="272" 
d="M201 285h-129v127h129v-127zM201 -12l-80 -86v98h-49v129h129v-141z" />
    <glyph glyph-name="less" unicode="&#x3c;" horiz-adv-x="1706" 
d="M1442 88l-1178 481v82l1178 484v-109l-1022 -416l1022 -413v-109z" />
    <glyph glyph-name="equal" unicode="=" horiz-adv-x="1706" 
d="M1452 748h-1198v98h1198v-98zM1452 375h-1198v98h1198v-98z" />
    <glyph glyph-name="greater" unicode="&#x3e;" horiz-adv-x="1706" 
d="M1442 569l-1178 -481v109l1022 413l-1022 416v109l1178 -484v-82z" />
    <glyph glyph-name="question" unicode="?" horiz-adv-x="518" 
d="M457 1216q0 -236 -106 -489q-65 -155 -85 -265q-17 -96 -17 -273h-110v86q0 150 27 263q22 95 85 244q86 205 86 434q0 42 -23 74t-56 32q-32 0 -54.5 -31.5t-22.5 -74.5v-107h-120v107q0 93 54 163q57 75 143 75t144 -75q55 -70 55 -163zM260 0h-129v127h129v-127z" />
    <glyph glyph-name="at" unicode="@" horiz-adv-x="2048" 
d="M1931 778q0 -172 -61 -309q-63 -140 -182 -233q-67 -52 -150 -82q-79 -29 -160 -29q-98 0 -145 37t-47 114q0 4 2 15v14q-106 -180 -295 -180q-313 0 -313 328q0 215 122 374q133 172 342 172q190 0 254 -163l60 125h94l-139 -562q-1 -4 -13 -63q-4 -22 -4 -29
q0 -92 107 -92q108 0 211 82q205 163 205 487q0 254 -198 417t-509 163q-350 0 -582 -199q-148 -127 -222.5 -289.5t-74.5 -363.5q0 -339 244 -537q215 -174 545 -174q354 0 635 193l39 -55q-293 -222 -654 -222q-190 0 -348 47q-359 107 -504 412q-73 155 -73 361
q0 417 338 696q268 221 659 221q158 0 307 -45q315 -95 445 -350q65 -129 65 -281zM1272 717q-17 87 -71 141q-58 57 -144 57q-172 0 -270 -155q-85 -134 -85 -316q0 -105 50 -167q55 -68 157 -68q106 0 189.5 72t111.5 188z" />
    <glyph glyph-name="A" unicode="A" horiz-adv-x="600" 
d="M569 0h-112l-39 248h-236l-39 -248h-112l217 1419q5 35 51 35q48 0 53 -35zM403 352l-104 705l-102 -705h206z" />
    <glyph glyph-name="B" unicode="B" horiz-adv-x="664" 
d="M612 242q0 -242 -250 -242h-227q-21 0 -37 17.5t-16 35.5v1327q0 18 16 36t37 18h203q250 0 250 -242q0 -196 -142 -418q166 -238 166 -532zM477 1192q0 65 -20 93q-30 44 -119 44h-145v-700q284 316 284 563zM502 242q0 219 -127 430q-91 -119 -182 -205v-361h169
q89 0 120 43q20 28 20 93z" />
    <glyph glyph-name="C" unicode="C" horiz-adv-x="633" 
d="M592 207q0 -97 -76 -162t-190 -65q-115 0 -190 65t-75 162v1020q0 96 75 161.5t190 65.5q114 0 190 -65.5t76 -161.5v-94h-111v94q0 40 -40 79q-47 44 -115 44t-114 -44q-40 -38 -40 -79v-1020q0 -41 40 -78q46 -43 114 -43t115 43q40 37 40 78v86h111v-86z" />
    <glyph glyph-name="D" unicode="D" horiz-adv-x="664" 
d="M612 780q0 -419 -223 -643q-43 -43 -114 -92q-93 -65 -140 -65q-21 0 -37 17.5t-16 35.5v1368q0 18 15.5 35.5t37.5 17.5q125 0 250 -88q227 -160 227 -586zM502 780q0 175 -54 311q-78 200 -255 246v-1216q167 102 247 309q62 161 62 350z" />
    <glyph glyph-name="E" unicode="E" horiz-adv-x="621" 
d="M559 0h-422q-21 0 -38 17.5t-17 35.5v1327q0 18 17 36t38 18h414v-105h-358v-364h358v-107h-358v-752h366v-106z" />
    <glyph glyph-name="F" unicode="F" horiz-adv-x="600" 
d="M559 858h-366v-858h-111v1380q0 18 17 36t38 18h422v-105h-366v-364h366v-107z" />
    <glyph glyph-name="G" unicode="G" horiz-adv-x="653" 
d="M592 207q0 -97 -76 -162t-190 -65q-115 0 -190 65t-75 162v1020q0 96 75 161.5t190 65.5q114 0 190 -65.5t76 -161.5v-94h-111v94q0 40 -40 79q-47 44 -115 44t-114 -44q-40 -38 -40 -79v-1020q0 -41 40 -78q46 -43 114 -43t115 43q40 37 40 78v348h-176v109h232
q21 0 38 -18t17 -36v-403z" />
    <glyph glyph-name="H" unicode="H" horiz-adv-x="694" 
d="M612 0h-110v246h-309v-246h-111v1434h111v-1082h309v1082h110v-1434z" />
    <glyph glyph-name="I" unicode="I" horiz-adv-x="274" 
d="M193 0h-111v1434h111v-1434z" />
    <glyph glyph-name="J" unicode="J" horiz-adv-x="633" 
d="M571 207q0 -97 -75.5 -162t-190.5 -65t-189.5 65t-74.5 162v397h111v-397q0 -41 39 -78q46 -43 114 -43t115 43q41 37 41 78v1227h110v-1227z" />
    <glyph glyph-name="K" unicode="K" horiz-adv-x="635" 
d="M604 0h-112l-187 681l-112 -316v-365h-111v1434h111v-785l286 785h109l-213 -593z" />
    <glyph glyph-name="L" unicode="L" horiz-adv-x="580" 
d="M559 0h-422q-21 0 -38 17.5t-17 35.5v1381h111v-1328h366v-106z" />
    <glyph glyph-name="M" unicode="M" horiz-adv-x="805" 
d="M723 0h-113v1047l-155 -539q-10 -35 -54 -35q-43 0 -53 35l-155 539v-1047h-111v1401q0 18 16 35.5t37 17.5q44 0 53 -31l213 -723l213 723q9 31 52 31q21 0 39 -18t18 -35v-1401z" />
    <glyph glyph-name="N" unicode="N" horiz-adv-x="694" 
d="M612 0h-110v281l-309 831v-1112h-111v1434h108l312 -830v830h110v-1434z" />
    <glyph glyph-name="O" unicode="O" horiz-adv-x="653" 
d="M592 207q0 -97 -76 -162t-190 -65q-115 0 -190 65t-75 162v1020q0 96 75 161.5t190 65.5q114 0 190 -65.5t76 -161.5v-1020zM481 207v1020q0 40 -40 79q-47 44 -115 44t-114 -44q-40 -38 -40 -79v-1020q0 -41 40 -78q46 -43 114 -43t115 43q40 37 40 78z" />
    <glyph glyph-name="P" unicode="P" horiz-adv-x="643" 
d="M612 1192q0 -189 -141 -457q-112 -212 -278 -418v-317h-111v1434h270q144 0 205 -64q55 -57 55 -178zM502 1192q0 66 -23 95q-33 42 -127 42h-159v-821q309 434 309 684z" />
    <glyph glyph-name="Q" unicode="Q" horiz-adv-x="653" 
d="M592 207q0 -104 -86 -170l63 -111h-125l-41 62q-32 -8 -77 -8q-115 0 -190 65t-75 162v1020q0 96 75 161.5t190 65.5q114 0 190 -65.5t76 -161.5v-1020zM481 207v1020q0 40 -40 78q-47 43 -115 43t-114 -43q-40 -38 -40 -78v-1020q0 -41 40 -78q46 -43 114 -43t115 43
q40 37 40 78z" />
    <glyph glyph-name="R" unicode="R" horiz-adv-x="651" 
d="M621 0h-119l-156 526q-72 -109 -153 -209v-317h-111v1434h270q144 0 206 -64q56 -57 56 -178q0 -216 -188 -537zM504 1192q0 66 -24 95q-34 42 -128 42h-159v-821q311 437 311 684z" />
    <glyph glyph-name="S" unicode="S" horiz-adv-x="623" 
d="M571 227q0 -99 -74 -172q-78 -75 -192 -75q-115 0 -189.5 65t-74.5 162v86h111v-86q0 -41 39 -78q46 -43 114 -43q67 0 115 53q41 45 41 88q0 139 -65 267q-40 80 -144 213q-103 130 -143 211q-68 132 -68 288q0 99 74 172q78 76 190 76q115 0 190.5 -65.5t75.5 -161.5
v-94h-110v94q0 40 -41 79q-47 44 -115 44q-67 0 -114 -55q-39 -45 -39 -89q0 -131 63 -252q48 -90 156 -226q103 -128 140 -206q60 -127 60 -295z" />
    <glyph glyph-name="T" unicode="T" horiz-adv-x="500" 
d="M489 1329h-186v-1329h-106v1329h-187v105h479v-105z" />
    <glyph glyph-name="U" unicode="U" horiz-adv-x="674" 
d="M602 207q0 -97 -75.5 -162t-190.5 -65t-189.5 65t-74.5 162v1227h110v-1227q0 -41 40 -78q46 -43 114 -43t115 43q41 37 41 78v1227h110v-1227z" />
    <glyph glyph-name="V" unicode="V" horiz-adv-x="600" 
d="M569 1434l-215 -1418q-5 -36 -55 -36q-48 0 -53 36l-215 1418h112l156 -1037l158 1037h112z" />
    <glyph glyph-name="W" unicode="W" horiz-adv-x="799" 
d="M748 1434l-117 -1411q-4 -43 -51 -43q-50 0 -56 36l-125 791l-125 -791q-5 -36 -55 -36t-53 43l-115 1411h111l76 -971l108 680q6 37 53 37q48 0 54 -37l108 -680l76 971h111z" />
    <glyph glyph-name="X" unicode="X" horiz-adv-x="608" 
d="M578 0h-117l-156 541l-158 -541h-116l215 717l-215 717h116l158 -541l156 541h117l-216 -717z" />
    <glyph glyph-name="Y" unicode="Y" horiz-adv-x="563" 
d="M553 1434l-217 -963v-471h-109v471l-217 963h115l156 -715l157 715h115z" />
    <glyph glyph-name="Z" unicode="Z" horiz-adv-x="575" 
d="M555 1376q0 -10 -2 -16l-399 -1254h346v-106h-426q-54 0 -54 55q0 8 5 21l397 1253h-346v105h424q55 0 55 -58z" />
    <glyph glyph-name="bracketleft" unicode="[" horiz-adv-x="508" 
d="M467 -119h-309q-22 0 -39 18t-17 35v1448q0 18 17 35t39 17h303v-107h-248v-1337h254v-109z" />
    <glyph glyph-name="backslash" unicode="\" horiz-adv-x="561" 
d="M479 6l-112 -14l-285 1438l113 12z" />
    <glyph glyph-name="bracketright" unicode="]" horiz-adv-x="508" 
d="M406 -66q0 -17 -17 -35t-39 -18h-309v109h256v1337h-248v107h301q22 0 39 -17t17 -35v-1448z" />
    <glyph glyph-name="asciicircum" unicode="^" horiz-adv-x="2048" 
d="M1624 901h-143l-457 455l-459 -455h-143l532 557h140z" />
    <glyph glyph-name="underscore" unicode="_" 
d="M1024 -483h-1024v100h1024v-100z" />
    <glyph glyph-name="grave" unicode="`" 
d="M600 1378l-68 -65l-108 114l68 66z" />
    <glyph glyph-name="a" unicode="a" horiz-adv-x="543" 
d="M512 0h-109l-30 213h-201l-29 -213h-112l188 1241q6 37 53 37q46 0 52 -37zM354 317l-82 627l-84 -627h166z" />
    <glyph glyph-name="b" unicode="b" horiz-adv-x="594" 
d="M553 217q0 -107 -44 -158q-52 -59 -175 -59h-199q-21 0 -37 17.5t-16 35.5v1151q0 18 16 35.5t37 17.5h174q226 0 226 -215q0 -168 -123 -362q141 -207 141 -463zM424 1042q0 52 -16 75q-25 36 -99 36h-119v-582q234 267 234 471zM446 217q0 180 -104 358
q-71 -92 -152 -167v-302h144q73 0 98 36q14 22 14 75z" />
    <glyph glyph-name="c" unicode="c" horiz-adv-x="573" 
d="M532 184q0 -88 -65.5 -146t-167.5 -58t-170 58.5t-68 145.5v889q0 88 68 146.5t170 58.5t167.5 -58.5t65.5 -146.5v-82h-106v82q0 32 -33 62q-38 36 -94 36t-95 -36q-34 -30 -34 -62v-889q0 -31 34 -61q39 -35 95 -35t94 35q33 30 33 61v74h106v-74z" />
    <glyph glyph-name="d" unicode="d" horiz-adv-x="594" 
d="M553 682q0 -442 -274 -635q-74 -51 -125 -65q-8 -2 -19 -2q-21 0 -37 17.5t-16 35.5v1192q0 18 16 35.5t37 17.5q107 0 221 -80q197 -137 197 -516zM446 682q0 146 -44 264q-66 172 -212 215v-1038q139 89 205 265q51 136 51 294z" />
    <glyph glyph-name="e" unicode="e" horiz-adv-x="563" 
d="M502 0h-367q-21 0 -37 17.5t-16 35.5v1151q0 18 16 35.5t37 17.5h363v-104h-308v-301h308v-107h-308v-639h312v-106z" />
    <glyph glyph-name="f" unicode="f" horiz-adv-x="543" 
d="M502 745h-312v-745h-108v1204q0 18 16 35.5t37 17.5h367v-104h-312v-301h312v-107z" />
    <glyph glyph-name="g" unicode="g" horiz-adv-x="594" 
d="M532 184q0 -88 -65.5 -146t-167.5 -58t-170 58.5t-68 145.5v889q0 88 68 146.5t170 58.5t167.5 -58.5t65.5 -146.5v-82h-106v82q0 32 -33 62q-38 36 -94 36t-95 -36q-34 -30 -34 -62v-889q0 -31 34 -61q39 -35 95 -35t94 35q33 30 33 61v297h-145v109h198
q22 0 37.5 -17.5t15.5 -35.5v-353z" />
    <glyph glyph-name="h" unicode="h" horiz-adv-x="635" 
d="M553 0h-107v213h-256v-213h-108v1257h108v-940h256v940h107v-1257z" />
    <glyph glyph-name="i" unicode="i" horiz-adv-x="272" 
d="M190 0h-108v1257h108v-1257z" />
    <glyph glyph-name="j" unicode="j" horiz-adv-x="563" 
d="M502 184q0 -88 -66 -146t-168 -58t-169.5 58.5t-67.5 145.5v346h108v-346q0 -31 34 -61q39 -35 95 -35t95 35q32 30 32 61v1073h107v-1073z" />
    <glyph glyph-name="k" unicode="k" horiz-adv-x="586" 
d="M565 0h-110l-160 565l-102 -276v-289h-111v1257h111v-688l260 688h108l-201 -534z" />
    <glyph glyph-name="l" unicode="l" horiz-adv-x="522" 
d="M502 0h-367q-21 0 -37 17.5t-16 35.5v1204h108v-1151h312v-106z" />
    <glyph glyph-name="m" unicode="m" horiz-adv-x="731" 
d="M649 0h-108v870l-96 -344q-30 -94 -80 -94q-42 0 -52 33l-123 405v-870h-108v1225q0 18 16 35.5t37 17.5q42 0 51 -31l179 -606l180 606q9 31 49 31q21 0 38 -18t17 -35v-1225z" />
    <glyph glyph-name="n" unicode="n" horiz-adv-x="635" 
d="M553 0h-107v250l-256 715v-965h-108v1257h108l256 -714v714h107v-1257z" />
    <glyph glyph-name="o" unicode="o" horiz-adv-x="594" 
d="M532 184q0 -88 -65.5 -146t-167.5 -58t-170 58.5t-68 145.5v889q0 88 68 146.5t170 58.5t167.5 -58.5t65.5 -146.5v-889zM426 184v889q0 32 -33 62q-38 36 -94 36t-95 -36q-34 -30 -34 -62v-889q0 -31 34 -61q39 -35 95 -35t94 35q33 30 33 61z" />
    <glyph glyph-name="p" unicode="p" horiz-adv-x="584" 
d="M553 1042q0 -166 -122 -401q-97 -187 -241 -365v-276h-108v1204q0 18 16 35.5t37 17.5h189q127 0 181 -56q48 -50 48 -159zM446 1042q0 54 -17 77q-27 34 -105 34h-134v-684q256 366 256 573z" />
    <glyph glyph-name="q" unicode="q" horiz-adv-x="604" 
d="M543 -72h-125l-37 62q-35 -10 -80 -10q-103 0 -171.5 58.5t-68.5 145.5v889q0 87 68.5 146t171.5 59q102 0 168 -58.5t66 -146.5v-889q0 -86 -56 -139zM428 184v889q0 32 -33 63q-38 38 -94 38t-95 -38q-34 -31 -34 -63v-889q0 -31 34 -62q39 -36 95 -36t94 36
q33 31 33 62z" />
    <glyph glyph-name="r" unicode="r" horiz-adv-x="594" 
d="M563 0h-114l-134 446q-62 -92 -125 -170v-276h-108v1204q0 18 16 35.5t37 17.5h189q128 0 182 -56q49 -50 49 -159q0 -193 -160 -467zM446 1042q0 54 -17 77q-27 34 -105 34h-134v-684q256 366 256 573z" />
    <glyph glyph-name="s" unicode="s" horiz-adv-x="543" 
d="M502 195q0 -93 -57 -151q-63 -64 -177 -64q-102 0 -169.5 58.5t-67.5 145.5v74h108v-74q0 -31 34 -61q39 -35 95 -35q63 0 99 40q28 31 28 67q0 120 -55 231q-35 71 -125 188q-46 61 -127 191q-57 116 -57 258q0 91 62 151q66 64 175 64q102 0 168 -58.5t66 -146.5v-82
h-107v82q0 32 -32 62q-39 36 -95 36q-61 0 -99 -41q-30 -33 -30 -67q0 -110 56 -217q31 -62 124 -182q90 -116 125 -192q58 -125 58 -277z" />
    <glyph glyph-name="t" unicode="t" horiz-adv-x="442" 
d="M432 1153h-153v-1153h-113v1153h-156v104h422v-104z" />
    <glyph glyph-name="u" unicode="u" horiz-adv-x="614" 
d="M543 184q0 -88 -66 -146t-168 -58t-169.5 58.5t-67.5 145.5v1073h108v-1073q0 -31 34 -61q39 -35 95 -35t95 35q32 30 32 61v1073h107v-1073z" />
    <glyph glyph-name="v" unicode="v" horiz-adv-x="543" 
d="M512 1257l-186 -1241q-6 -36 -54 -36q-49 0 -55 36l-186 1241h112l129 -921l131 921h109z" />
    <glyph glyph-name="w" unicode="w" horiz-adv-x="700" 
d="M659 1257l-100 -1234q-3 -43 -53 -43q-48 0 -53 36l-103 668l-102 -668q-6 -36 -53 -36q-50 0 -54 43l-100 1234h111l63 -817l82 521q6 36 53 36q48 0 53 -36l84 -521l64 817h108z" />
    <glyph glyph-name="x" unicode="x" horiz-adv-x="557" 
d="M526 0h-118l-129 473l-134 -473h-114l186 629l-186 628h114l134 -473l129 473h118l-190 -628z" />
    <glyph glyph-name="y" unicode="y" horiz-adv-x="549" 
d="M518 1257l-190 -843v-414h-109v414l-188 843h112l131 -636l132 636h112z" />
    <glyph glyph-name="z" unicode="z" horiz-adv-x="539" 
d="M508 1198q0 -8 -2 -14l-342 -1078h291v-106h-369q-55 0 -55 51q0 12 4 25l350 1077h-299v104h371q51 0 51 -59z" />
    <glyph glyph-name="braceleft" unicode="{" 
d="M854 -414h-47q-205 0 -274 83q-62 74 -62 286v244q0 146 -52 210q-58 70 -200 70q7 0 -22 -2h-23v109h23q29 -2 22 -2q142 0 200 70q52 64 52 210v242q0 211 62 287q70 84 274 84h47v-107h-37q-130 0 -176.5 -50t-46.5 -204v-242q0 -147 -31 -215q-43 -93 -166 -129
q109 -30 153 -102.5t44 -241.5v-241q0 -143 37 -193q44 -61 178 -61q-8 0 22 2h23v-107z" />
    <glyph glyph-name="bar" unicode="|" 
d="M567 -483h-108v2048h108v-2048z" />
    <glyph glyph-name="braceright" unicode="}" 
d="M852 477h-23q-30 2 -22 2q-142 0 -200 -70q-52 -64 -52 -210v-244q0 -224 -69 -296.5t-267 -72.5h-47v107h39q137 0 182 58q39 50 39 194v241q0 149 31 217q42 93 166 127q-124 36 -166 128q-31 67 -31 216v242q0 144 -36 194q-44 62 -179 62q8 0 -22 -2h-23v107h47
q204 0 274 -84q62 -76 62 -287v-242q0 -146 52 -210q58 -70 200 -70q-8 0 22 2h23v-109z" />
    <glyph glyph-name="asciitilde" unicode="~" horiz-adv-x="1706" 
d="M1530 637q-98 -69 -198 -106t-189 -37q-98 0 -260 57l-45 16q-170 64 -273 64q-87 0 -174.5 -36.5t-212.5 -123.5v113q211 145 387 145q103 0 273 -61q5 -3 15 -6.5t34 -12.5q165 -59 256 -59q84 0 177.5 38.5t209.5 121.5v-113z" />
    <glyph glyph-name="Adieresis" unicode="&#xc4;" horiz-adv-x="600" 
d="M569 0h-112l-39 248h-236l-39 -248h-112l217 1419q5 35 51 35q48 0 53 -35zM403 352l-104 705l-102 -705h206zM426 1555q0 -48 -57 -48q-55 0 -55 48q0 47 57 47q55 0 55 -47zM278 1555q0 -48 -55 -48t-55 48q0 47 57 47q53 0 53 -47z" />
    <glyph glyph-name="Aring" unicode="&#xc5;" horiz-adv-x="600" 
d="M569 0h-112l-39 248h-236l-39 -248h-112l217 1420q-60 33 -60 102q0 46 33.5 77t79.5 31t78.5 -34.5t32.5 -79.5q0 -66 -60 -96v-1zM348 1516q0 49 -49 49q-45 0 -45 -43q0 -49 41 -49q53 0 53 43zM403 352l-104 705l-102 -705h206z" />
    <glyph glyph-name="Ccedilla" unicode="&#xc7;" horiz-adv-x="633" 
d="M592 207q0 -84 -58 -145.5t-151 -77.5l-10 -37q92 -24 92 -99q0 -43 -32 -75q-42 -43 -126 -43q-40 0 -112 26l28 90q58 -20 88 -20q56 0 56 24q0 21 -56 21q-49 0 -49 49q0 19 14 63q-96 14 -155.5 76.5t-59.5 147.5v1020q0 96 75 161.5t190 65.5q114 0 190 -65.5
t76 -161.5v-94h-111v94q0 40 -40 79q-47 44 -115 44t-114 -44q-40 -38 -40 -79v-1020q0 -41 40 -78q46 -43 114 -43t115 43q40 37 40 78v86h111v-86z" />
    <glyph glyph-name="Eacute" unicode="&#xc9;" horiz-adv-x="621" 
d="M559 0h-422q-21 0 -38 17.5t-17 35.5v1327q0 18 17 36t38 18h414v-105h-358v-364h358v-107h-358v-752h366v-106zM436 1591l-108 -114l-68 65l108 115z" />
    <glyph glyph-name="Ntilde" unicode="&#xd1;" horiz-adv-x="694" 
d="M612 0h-110v281l-309 831v-1112h-111v1434h108l312 -830v830h110v-1434zM551 1583q-38 -80 -129 -80q-37 0 -85.5 22.5t-62.5 22.5q-21 0 -37 -26l-92 37q40 80 131 80q37 0 85.5 -22.5t62.5 -22.5q21 0 35 24z" />
    <glyph glyph-name="Odieresis" unicode="&#xd6;" horiz-adv-x="653" 
d="M592 207q0 -97 -76 -162t-190 -65q-115 0 -190 65t-75 162v1020q0 96 75 161.5t190 65.5q114 0 190 -65.5t76 -161.5v-1020zM481 207v1020q0 40 -40 79q-47 44 -115 44t-114 -44q-40 -38 -40 -79v-1020q0 -41 40 -78q46 -43 114 -43t115 43q40 37 40 78zM446 1555
q0 -48 -57 -48q-55 0 -55 48q0 47 57 47q55 0 55 -47zM298 1555q0 -48 -55 -48t-55 48q0 47 57 47q53 0 53 -47z" />
    <glyph glyph-name="Udieresis" unicode="&#xdc;" horiz-adv-x="674" 
d="M602 207q0 -97 -75.5 -162t-190.5 -65t-189.5 65t-74.5 162v1227h110v-1227q0 -41 40 -78q46 -43 114 -43t115 43q41 37 41 78v1227h110v-1227zM469 1555q0 -48 -57 -48q-55 0 -55 48q0 47 57 47q55 0 55 -47zM321 1555q0 -48 -55 -48t-55 48q0 47 57 47q53 0 53 -47z
" />
    <glyph glyph-name="aacute" unicode="&#xe1;" horiz-adv-x="543" 
d="M512 0h-109l-30 213h-201l-29 -213h-112l188 1241q6 37 53 37q46 0 52 -37zM354 317l-82 627l-84 -627h166zM375 1427l-108 -114l-68 65l108 115z" />
    <glyph glyph-name="agrave" unicode="&#xe0;" horiz-adv-x="543" 
d="M512 0h-109l-30 213h-201l-29 -213h-112l188 1241q6 37 53 37q46 0 52 -37zM354 317l-82 627l-84 -627h166zM334 1378l-68 -65l-108 114l68 66z" />
    <glyph glyph-name="acircumflex" unicode="&#xe2;" horiz-adv-x="543" 
d="M512 0h-109l-30 213h-201l-29 -213h-112l188 1241q6 37 53 37q46 0 52 -37zM354 317l-82 627l-84 -627h166zM452 1395l-51 -80l-129 74l-131 -74l-49 80l153 86q12 6 27 6t27 -6z" />
    <glyph glyph-name="adieresis" unicode="&#xe4;" horiz-adv-x="543" 
d="M512 0h-109l-30 213h-201l-29 -213h-112l188 1241q6 37 53 37q46 0 52 -37zM354 317l-82 627l-84 -627h166zM405 1391q0 -48 -57 -48q-55 0 -55 48q0 47 57 47q55 0 55 -47zM257 1391q0 -48 -55 -48t-55 48q0 47 57 47q53 0 53 -47z" />
    <glyph glyph-name="atilde" unicode="&#xe3;" horiz-adv-x="543" 
d="M512 0h-109l-30 213h-201l-29 -213h-112l188 1241q6 37 53 37q46 0 52 -37zM354 317l-82 627l-84 -627h166zM479 1419q-38 -80 -129 -80q-37 0 -85.5 22.5t-62.5 22.5q-21 0 -37 -26l-92 37q40 80 131 80q37 0 85.5 -22.5t62.5 -22.5q21 0 35 24z" />
    <glyph glyph-name="aring" unicode="&#xe5;" horiz-adv-x="543" 
d="M386 1427q0 -46 -33.5 -77t-78.5 -31q-47 0 -79 34.5t-32 80.5t33.5 77t79.5 31t78 -34.5t32 -80.5zM512 0h-109l-30 213h-201l-29 -213h-112l188 1241q6 37 53 37q46 0 52 -37zM323 1427q0 50 -49 50q-45 0 -45 -43q0 -50 41 -50q53 0 53 43zM354 317l-82 627l-84 -627
h166z" />
    <glyph glyph-name="ccedilla" unicode="&#xe7;" horiz-adv-x="573" 
d="M532 184q0 -76 -50.5 -131t-132.5 -69l-11 -41q92 -24 92 -99q0 -43 -32 -75q-42 -43 -126 -43q-40 0 -112 26l28 90q58 -20 88 -20q56 0 56 24q0 21 -56 21q-49 0 -49 49q0 19 16 69q-81 15 -131.5 70t-50.5 129v889q0 88 68 146.5t170 58.5t167.5 -58.5t65.5 -146.5
v-82h-106v82q0 32 -33 62q-38 36 -94 36t-95 -36q-34 -30 -34 -62v-889q0 -31 34 -61q39 -35 95 -35t94 35q33 30 33 61v74h106v-74z" />
    <glyph glyph-name="eacute" unicode="&#xe9;" horiz-adv-x="563" 
d="M502 0h-367q-21 0 -37 17.5t-16 35.5v1151q0 18 16 35.5t37 17.5h363v-104h-308v-301h308v-107h-308v-639h312v-106zM416 1427l-108 -114l-68 65l108 115z" />
    <glyph glyph-name="egrave" unicode="&#xe8;" horiz-adv-x="563" 
d="M502 0h-367q-21 0 -37 17.5t-16 35.5v1151q0 18 16 35.5t37 17.5h363v-104h-308v-301h308v-107h-308v-639h312v-106zM375 1378l-68 -65l-108 114l68 66z" />
    <glyph glyph-name="ecircumflex" unicode="&#xea;" horiz-adv-x="563" 
d="M502 0h-367q-21 0 -37 17.5t-16 35.5v1151q0 18 16 35.5t37 17.5h363v-104h-308v-301h308v-107h-308v-639h312v-106zM475 1395l-51 -80l-129 74l-131 -74l-49 80l153 86q12 6 27 6t27 -6z" />
    <glyph glyph-name="edieresis" unicode="&#xeb;" horiz-adv-x="563" 
d="M502 0h-367q-21 0 -37 17.5t-16 35.5v1151q0 18 16 35.5t37 17.5h363v-104h-308v-301h308v-107h-308v-639h312v-106zM432 1391q0 -48 -57 -48q-55 0 -55 48q0 47 57 47q55 0 55 -47zM284 1391q0 -48 -55 -48t-55 48q0 47 57 47q53 0 53 -47z" />
    <glyph glyph-name="iacute" unicode="&#xed;" horiz-adv-x="272" 
d="M190 0h-108v1257h108v-1257zM252 1427l-108 -114l-68 65l108 115z" />
    <glyph glyph-name="igrave" unicode="&#xec;" horiz-adv-x="272" 
d="M190 0h-108v1257h108v-1257zM211 1378l-68 -65l-108 114l68 66z" />
    <glyph glyph-name="icircumflex" unicode="&#xee;" horiz-adv-x="272" 
d="M190 0h-108v1257h108v-1257zM321 1395l-51 -80l-129 74l-131 -74l-49 80l153 86q12 6 27 6t27 -6z" />
    <glyph glyph-name="idieresis" unicode="&#xef;" horiz-adv-x="272" 
d="M190 0h-108v1257h108v-1257zM270 1391q0 -48 -57 -48q-55 0 -55 48q0 47 57 47q55 0 55 -47zM122 1391q0 -48 -55 -48t-55 48q0 47 57 47q53 0 53 -47z" />
    <glyph glyph-name="ntilde" unicode="&#xf1;" horiz-adv-x="635" 
d="M553 0h-107v250l-256 715v-965h-108v1257h108l256 -714v714h107v-1257zM520 1419q-38 -80 -129 -80q-37 0 -85.5 22.5t-62.5 22.5q-21 0 -37 -26l-92 37q40 80 131 80q37 0 85.5 -22.5t62.5 -22.5q21 0 35 24z" />
    <glyph glyph-name="oacute" unicode="&#xf3;" horiz-adv-x="594" 
d="M532 184q0 -88 -65.5 -146t-167.5 -58t-170 58.5t-68 145.5v889q0 88 68 146.5t170 58.5t167.5 -58.5t65.5 -146.5v-889zM426 184v889q0 32 -33 62q-38 36 -94 36t-95 -36q-34 -30 -34 -62v-889q0 -31 34 -61q39 -35 95 -35t94 35q33 30 33 61zM395 1427l-108 -114
l-68 65l108 115z" />
    <glyph glyph-name="ograve" unicode="&#xf2;" horiz-adv-x="594" 
d="M532 184q0 -88 -65.5 -146t-167.5 -58t-170 58.5t-68 145.5v889q0 88 68 146.5t170 58.5t167.5 -58.5t65.5 -146.5v-889zM426 184v889q0 32 -33 62q-38 36 -94 36t-95 -36q-34 -30 -34 -62v-889q0 -31 34 -61q39 -35 95 -35t94 35q33 30 33 61zM375 1378l-68 -65
l-108 114l68 66z" />
    <glyph glyph-name="ocircumflex" unicode="&#xf4;" horiz-adv-x="594" 
d="M532 184q0 -88 -65.5 -146t-167.5 -58t-170 58.5t-68 145.5v889q0 88 68 146.5t170 58.5t167.5 -58.5t65.5 -146.5v-889zM426 184v889q0 32 -33 62q-38 36 -94 36t-95 -36q-34 -30 -34 -62v-889q0 -31 34 -61q39 -35 95 -35t94 35q33 30 33 61zM481 1395l-51 -80l-129 74
l-131 -74l-49 80l153 86q12 6 27 6t27 -6z" />
    <glyph glyph-name="odieresis" unicode="&#xf6;" horiz-adv-x="594" 
d="M532 184q0 -88 -65.5 -146t-167.5 -58t-170 58.5t-68 145.5v889q0 88 68 146.5t170 58.5t167.5 -58.5t65.5 -146.5v-889zM426 184v889q0 32 -33 62q-38 36 -94 36t-95 -36q-34 -30 -34 -62v-889q0 -31 34 -61q39 -35 95 -35t94 35q33 30 33 61zM426 1391q0 -48 -57 -48
q-55 0 -55 48q0 47 57 47q55 0 55 -47zM278 1391q0 -48 -55 -48t-55 48q0 47 57 47q53 0 53 -47z" />
    <glyph glyph-name="otilde" unicode="&#xf5;" horiz-adv-x="594" 
d="M532 184q0 -88 -65.5 -146t-167.5 -58t-170 58.5t-68 145.5v889q0 88 68 146.5t170 58.5t167.5 -58.5t65.5 -146.5v-889zM426 184v889q0 32 -33 62q-38 36 -94 36t-95 -36q-34 -30 -34 -62v-889q0 -31 34 -61q39 -35 95 -35t94 35q33 30 33 61zM516 1419
q-38 -80 -129 -80q-37 0 -85.5 22.5t-62.5 22.5q-21 0 -37 -26l-92 37q40 80 131 80q37 0 85.5 -22.5t62.5 -22.5q21 0 35 24z" />
    <glyph glyph-name="uacute" unicode="&#xfa;" horiz-adv-x="614" 
d="M543 184q0 -88 -66 -146t-168 -58t-169.5 58.5t-67.5 145.5v1073h108v-1073q0 -31 34 -61q39 -35 95 -35t95 35q32 30 32 61v1073h107v-1073zM422 1427l-108 -114l-68 65l108 115z" />
    <glyph glyph-name="ugrave" unicode="&#xf9;" horiz-adv-x="614" 
d="M543 184q0 -88 -66 -146t-168 -58t-169.5 58.5t-67.5 145.5v1073h108v-1073q0 -31 34 -61q39 -35 95 -35t95 35q32 30 32 61v1073h107v-1073zM375 1378l-68 -65l-108 114l68 66z" />
    <glyph glyph-name="ucircumflex" unicode="&#xfb;" horiz-adv-x="614" 
d="M543 184q0 -88 -66 -146t-168 -58t-169.5 58.5t-67.5 145.5v1073h108v-1073q0 -31 34 -61q39 -35 95 -35t95 35q32 30 32 61v1073h107v-1073zM489 1395l-51 -80l-129 74l-131 -74l-49 80l153 86q12 6 27 6t27 -6z" />
    <glyph glyph-name="udieresis" unicode="&#xfc;" horiz-adv-x="614" 
d="M543 184q0 -88 -66 -146t-168 -58t-169.5 58.5t-67.5 145.5v1073h108v-1073q0 -31 34 -61q39 -35 95 -35t95 35q32 30 32 61v1073h107v-1073zM444 1391q0 -48 -57 -48q-55 0 -55 48q0 47 57 47q55 0 55 -47zM296 1391q0 -48 -55 -48t-55 48q0 47 57 47q53 0 53 -47z" />
    <glyph glyph-name="dagger" unicode="&#x2020;" 
d="M952 920h-372v-1135h-142v1135h-366v131h366v422h142v-422h372v-131z" />
    <glyph glyph-name="degree" unicode="&#xb0;" horiz-adv-x="674" 
d="M614 1174q0 -116 -81.5 -197.5t-196.5 -81.5q-116 0 -196.5 81.5t-80.5 197.5q0 115 81.5 196.5t197.5 81.5q114 0 195 -82.5t81 -195.5zM545 1174q0 87 -60.5 147.5t-146.5 60.5q-87 0 -148 -61t-61 -147q0 -88 60.5 -147.5t148.5 -59.5t147.5 59t59.5 148z" />
    <glyph glyph-name="cent" unicode="&#xa2;" horiz-adv-x="653" 
d="M592 301q0 -85 -58 -146t-153 -77v-78h-109v78q-95 16 -153 77t-58 146v559q0 85 58 146t153 77v80h109v-80q95 -16 153 -77t58 -146v-96h-111v63q0 37 -6 58q-19 64 -94 88v-785q96 31 100 131v68h111v-86zM272 188v785q-47 -15 -75 -52q-25 -32 -25 -61v-559
q0 -29 25 -61q28 -36 75 -52z" />
    <glyph glyph-name="sterling" unicode="&#xa3;" horiz-adv-x="780" 
d="M719 0h-524q-22 0 -38 16.5t-16 34.5v424h-80v107h80v374q0 97 75 162.5t190 65.5q114 0 189 -65.5t75 -162.5v-94h-109v94q0 41 -40 79q-47 44 -115 44q-69 0 -117 -44q-41 -38 -41 -79v-374h293v-107h-293v-369h471v-106z" />
    <glyph glyph-name="section" unicode="&#xa7;" 
d="M922 598q0 -173 -187 -276q99 -93 99 -224q0 -135 -106 -216q-95 -72 -234 -72q-161 0 -247.5 85.5t-86.5 243.5v33h141v-20q0 -213 199 -213q188 0 188 157q0 98 -215 234l-172 108q-203 128 -203 285q0 192 191 295q-96 76 -96 203q0 136 98 216q92 74 231 74
q145 0 231.5 -88t86.5 -231v-33h-138q-4 227 -192 227q-77 0 -125.5 -42.5t-48.5 -116.5q0 -102 153 -191l203 -116q230 -133 230 -322zM772 580q0 117 -162 217l-233 143q-139 -57 -139 -180q0 -113 149 -205l262 -162q123 82 123 187z" />
    <glyph glyph-name="bullet" unicode="&#x2022;" horiz-adv-x="1208" 
d="M899 762q0 -122 -87.5 -209.5t-209.5 -87.5t-208.5 87.5t-86.5 209.5q0 124 86 209.5t211 85.5q124 0 209.5 -85.5t85.5 -209.5z" />
    <glyph glyph-name="paragraph" unicode="&#xb6;" 
d="M940 1409h-127v-1409h-82v1409h-186v-1409h-84v782q-173 8 -275 103t-102 245q0 155 108 252t285 97h463v-70z" />
    <glyph glyph-name="germandbls" unicode="&#xdf;" horiz-adv-x="1079" 
d="M502 195q0 -93 -57 -151q-63 -64 -177 -64q-102 0 -169.5 58.5t-67.5 145.5v74h108v-74q0 -31 34 -61q39 -35 95 -35q63 0 99 40q28 31 28 67q0 120 -55 231q-35 71 -125 188q-46 61 -127 191q-57 116 -57 258q0 91 62 151q66 64 175 64q102 0 168 -58.5t66 -146.5v-82
h-107v82q0 32 -32 62q-39 36 -95 36q-61 0 -99 -41q-30 -33 -30 -67q0 -110 56 -217q31 -62 124 -182q90 -116 125 -192q58 -125 58 -277zM1039 195q0 -93 -57 -151q-63 -64 -177 -64q-102 0 -169.5 58.5t-67.5 145.5v74h108v-74q0 -31 34 -61q39 -35 95 -35q63 0 99 40
q28 31 28 67q0 120 -55 231q-35 71 -125 188q-46 61 -127 191q-57 116 -57 258q0 91 62 151q66 64 175 64q102 0 168 -58.5t66 -146.5v-82h-107v82q0 32 -32 62q-39 36 -95 36q-61 0 -99 -41q-30 -33 -30 -67q0 -110 56 -217q31 -62 124 -182q90 -116 125 -192
q58 -125 58 -277z" />
    <glyph glyph-name="registered" unicode="&#xae;" horiz-adv-x="1706" 
d="M1585 723q0 -306 -211 -514q-222 -219 -522 -219t-515.5 216.5t-215.5 516.5q0 143 57 281q56 134 162 241q103 105 232 158t280 53q309 0 521 -214t212 -519zM1505 721q0 132 -49 254q-100 249 -350 352q-119 49 -254 49q-126 0 -246 -49t-209 -139
q-93 -95 -144.5 -216.5t-51.5 -248.5q0 -266 192.5 -458.5t458.5 -192.5q126 0 250 51q257 107 356 348q47 115 47 250zM1223 924q0 -91 -53 -149.5t-146 -72.5l188 -389h-145l-178 371h-197v-371h-127v844h309q349 0 349 -233zM1092 915q0 156 -242 156h-158v-303h158
q136 0 189 33t53 114z" />
    <glyph glyph-name="copyright" unicode="&#xa9;" horiz-adv-x="1706" 
d="M1585 723q0 -306 -211 -514q-222 -219 -522 -219q-299 0 -515 216t-216 517q0 144 57 281q121 286 393 399q130 53 281 53q149 0 283 -55q207 -86 328.5 -270t121.5 -408zM1505 723q0 131 -49 252q-101 249 -352 352q-119 49 -252 49q-130 0 -250 -49
q-244 -100 -350 -354q-51 -123 -51 -250q0 -266 192.5 -458.5t458.5 -192.5q126 0 250 51q258 107 356 348q47 116 47 252zM1200 555q-12 -132 -116 -211q-97 -74 -234 -74q-178 0 -279.5 122t-101.5 335q0 204 107 326.5t284 122.5q129 0 219 -66q98 -70 111 -195h-117
q-17 78 -75.5 123t-141.5 45q-122 0 -190 -95t-68 -267q0 -145 56 -239q67 -115 202 -115q89 0 151 50.5t78 137.5h115z" />
    <glyph glyph-name="trademark" unicode="&#x2122;" horiz-adv-x="1706" 
d="M1376 924h-71v467l-177 -467h-49l-186 467v-467h-72v530h117l166 -422l156 422h116v-530zM694 1397h-172v-473h-82v473h-176v57h430v-57z" />
    <glyph glyph-name="acute" unicode="&#xb4;" 
d="M600 1427l-108 -114l-68 65l108 115z" />
    <glyph glyph-name="dieresis" unicode="&#xa8;" 
d="M641 1391q0 -48 -57 -48q-55 0 -55 48q0 47 57 47q55 0 55 -47zM493 1391q0 -48 -55 -48t-55 48q0 47 57 47q53 0 53 -47z" />
    <glyph glyph-name="notequal" unicode="&#x2260;" horiz-adv-x="1706" 
d="M1452 375h-709l-254 -324l-73 60l205 264h-367v98h428l215 277h-643v96h707l253 323l74 -59l-205 -264h369v-96h-432l-215 -277h647v-98z" />
    <glyph glyph-name="AE" unicode="&#xc6;" horiz-adv-x="1016" 
d="M954 0h-424q-21 0 -37 17.5t-16 35.5v193h-274l-84 -246h-119l479 1405q29 29 51 29h414v-105h-358v-364h358v-107h-358v-752h368v-106zM477 352v695l-237 -695h237z" />
    <glyph glyph-name="Oslash" unicode="&#xd8;" horiz-adv-x="653" 
d="M592 207q0 -97 -76 -162t-190 -65q-41 0 -86 12l-4 -25l-113 17l12 61q-74 63 -74 162v1020q0 96 75 161.5t190 65.5q48 0 90 -12l8 35l113 -15l-17 -78q72 -63 72 -157v-1020zM395 1335q-33 15 -69 15q-68 0 -114 -44q-40 -38 -40 -79v-1002zM481 207v985l-219 -1094
q27 -10 64 -10q68 0 115 42q40 37 40 77z" />
    <glyph glyph-name="infinity" unicode="&#x221e;" horiz-adv-x="1706" 
d="M1475 616q0 -151 -69 -256q-80 -122 -224 -122q-179 0 -314 264q-70 -139 -147.5 -201.5t-173.5 -62.5q-145 0 -233 118q-81 107 -81 256q0 151 70 256q80 121 223 121q98 0 171 -62.5t141 -205.5q63 127 127 187q86 81 204 81q126 0 222 -116q84 -104 84 -257zM1419 627
q0 139 -91 217q-54 45 -128 45q-106 0 -192 -119q-48 -65 -111 -211q52 -99 122 -149t159 -50q111 0 178 79q63 74 63 188zM811 668q-103 196 -281 196q-105 0 -173 -75t-68 -189q0 -103 57 -179q62 -83 162 -83q85 0 156.5 77t146.5 253z" />
    <glyph glyph-name="plusminus" unicode="&#xb1;" horiz-adv-x="1706" 
d="M1452 723h-549v-348h-98v348h-551v98h551v348h98v-348h549v-98zM1452 51h-1198v99h1198v-99z" />
    <glyph glyph-name="lessequal" unicode="&#x2264;" horiz-adv-x="1706" 
d="M1442 295l-1178 401v84l1178 402v-107l-1010 -338l1010 -336v-106zM1442 41h-1178v98h1178v-98z" />
    <glyph glyph-name="greaterequal" unicode="&#x2265;" horiz-adv-x="1706" 
d="M1442 696l-1178 -401v106l1010 336l-1010 338v107l1178 -402v-84zM1442 41h-1178v98h1178v-98z" />
    <glyph glyph-name="yen" unicode="&#xa5;" horiz-adv-x="625" 
d="M584 1163l-191 -688h160v-106h-186v-66h186v-108h-186v-195h-109v195h-184v108h184v66h-184v106h157l-190 688h115l155 -567l158 567h115z" />
    <glyph glyph-name="mu" unicode="&#xb5;" horiz-adv-x="1110" 
d="M1036 1065l-164 -770q-7 -32 -18 -84q-4 -25 -4 -49q0 -66 68 -66h16l20 2l-20 -110q-39 -11 -86 -11q-70 0 -103.5 36.5t-33.5 109.5v14q-42 -77 -120 -119.5t-179 -42.5q-93 0 -161 39.5t-108 116.5l-114 -557h-140l316 1491h139l-125 -592q-16 -78 -16 -139
q0 -244 225 -244q126 0 215 106t133 312l121 557h139z" />
    <glyph glyph-name="mu" unicode="&#x3bc;" horiz-adv-x="1110" 
d="M1036 1065l-164 -770q-7 -32 -18 -84q-4 -25 -4 -49q0 -66 68 -66h16l20 2l-20 -110q-39 -11 -86 -11q-70 0 -103.5 36.5t-33.5 109.5v14q-42 -77 -120 -119.5t-179 -42.5q-93 0 -161 39.5t-108 116.5l-114 -557h-140l316 1491h139l-125 -592q-16 -78 -16 -139
q0 -244 225 -244q126 0 215 106t133 312l121 557h139z" />
    <glyph glyph-name="partialdiff" unicode="&#x2202;" horiz-adv-x="1034" 
d="M918 752q0 -336 -135.5 -557.5t-333.5 -221.5q-155 0 -244 119q-80 107 -80 266q0 179 109.5 304.5t261.5 125.5q97 0 161 -49q61 -47 95 -147q24 170 24 309q0 326 -155 326q-52 0 -110 -68.5t-101 -68.5q-30 0 -52 20.5t-22 46.5q0 72 77 115q64 37 142 37
q166 0 264.5 -149.5t98.5 -407.5zM711 463q0 258 -179 258q-136 0 -206 -165q-54 -125 -54 -282q0 -125 45.5 -188t133.5 -63q111 0 185.5 126t74.5 314z" />
    <glyph glyph-name="summation" unicode="&#x2211;" horiz-adv-x="1317" 
d="M1280 -393h-1266v133l744 821l-709 772v140h1223v-144h-1014l705 -766l-740 -813h1057v-143z" />
    <glyph glyph-name="product" unicode="&#x220f;" horiz-adv-x="1509" 
d="M1348 -393h-168v1718h-852v-1718h-168v1866h1188v-1866z" />
    <glyph glyph-name="pi" unicode="&#x3c0;" horiz-adv-x="1171" 
d="M1147 1065l-27 -121h-182l-115 -541q-30 -144 -30 -188q0 -106 110 -106q33 0 51 2q5 0 41 8l-26 -119q-58 -16 -101 -16q-213 0 -213 202q0 89 56 351l86 407h-365l-199 -944h-139l199 944h-39q-106 0 -127 -131h-131q25 144 90.5 198t212.5 54h848z" />
    <glyph glyph-name="integral" unicode="&#x222b;" horiz-adv-x="985" 
d="M938 1415q0 -104 -107 -104q-79 0 -104 69.5t-33 69.5q-105 0 -116 -623l-7 -288q-14 -495 -102 -705q-86 -205 -266 -205q-70 0 -114 36t-44 91q0 111 113 111q73 0 102 -68q3 -7 6 -32q5 -39 27 -39q104 0 117 712l4 197q8 362 50 542q85 369 316 369q67 0 110 -32
q48 -37 48 -101z" />
    <glyph glyph-name="ordfeminine" unicode="&#xaa;" horiz-adv-x="508" 
d="M426 604h-100l-19 139h-102l-23 -139h-100l127 817q5 33 45 33q44 0 49 -33zM291 842l-35 233l-39 -233h74z" />
    <glyph glyph-name="ordmasculine" unicode="&#xba;" horiz-adv-x="500" 
d="M418 752q0 -66 -47.5 -107t-120.5 -41t-120.5 41t-47.5 107v555q0 65 47.5 106t120.5 41t120.5 -41t47.5 -106v-555zM322 752v555q0 12 -19 29q-22 22 -53 22t-52 -22q-18 -17 -18 -29v-555q0 -13 18 -29q21 -21 52 -21t53 21q19 17 19 29z" />
    <glyph glyph-name="Omega" unicode="&#x3a9;" horiz-adv-x="1579" 
d="M1462 0h-581v127q419 251 419 668q0 261 -141 421t-368 160t-369 -159q-143 -162 -143 -420q0 -421 419 -670v-127h-581v139h344q-340 262 -340 645q0 310 178 515q187 214 492 214q291 0 480 -203.5t189 -523.5q0 -383 -342 -647h344v-139z" />
    <glyph glyph-name="Omega" unicode="&#x2126;" horiz-adv-x="1579" 
d="M1462 0h-581v127q419 251 419 668q0 261 -141 421t-368 160t-369 -159q-143 -162 -143 -420q0 -421 419 -670v-127h-581v139h344q-340 262 -340 645q0 310 178 515q187 214 492 214q291 0 480 -203.5t189 -523.5q0 -383 -342 -647h344v-139z" />
    <glyph glyph-name="ae" unicode="&#xe6;" horiz-adv-x="897" 
d="M836 0h-367q-22 0 -38.5 17.5t-16.5 35.5v156h-215l-66 -209h-119l402 1219q13 38 53 38h360v-104h-307v-301h307v-107h-307v-639h314v-106zM414 313v543l-178 -543h178z" />
    <glyph glyph-name="oslash" unicode="&#xf8;" horiz-adv-x="594" 
d="M532 186q0 -88 -65.5 -147t-167.5 -59q-33 0 -61 6l-2 -19l-115 17l12 53q-72 58 -72 149v887q0 88 67.5 146.5t170.5 58.5q41 0 78 -10l6 37l115 -15l-19 -84q53 -54 53 -133v-887zM356 1161q-23 10 -57 10q-56 0 -95 -35q-34 -31 -34 -63v-885zM426 186v789l-166 -883
q15 -4 39 -4q56 0 94 36q33 31 33 62z" />
    <glyph glyph-name="questiondown" unicode="&#xbf;" horiz-adv-x="518" 
d="M61 238q0 237 106 489q66 155 85 265q17 96 17 273h110v-86q0 -150 -27 -263q-22 -94 -85 -244q-86 -205 -86 -434q0 -42 23 -74t56 -32q32 0 54.5 31.5t22.5 74.5v107h120v-107q0 -93 -54 -163q-57 -75 -143 -75t-144 75q-55 70 -55 163zM258 1454h129v-127h-129v127z
" />
    <glyph glyph-name="exclamdown" unicode="&#xa1;" horiz-adv-x="272" 
d="M82 1243h108v-1243h-108v1243zM72 1434h129v-127h-129v127z" />
    <glyph glyph-name="logicalnot" unicode="&#xac;" horiz-adv-x="1706" 
d="M1452 356h-96v402h-1102v100h1198v-502z" />
    <glyph glyph-name="radical" unicode="&#x221a;" horiz-adv-x="1276" 
d="M1276 1565h-125l-594 -1606h-41l-328 899l-114 -39l-19 58l246 86l272 -746l525 1419h178v-71z" />
    <glyph glyph-name="florin" unicode="&#x192;" horiz-adv-x="993" 
d="M952 860h-108v94q0 41 -42 78q-47 43 -116 43q-68 0 -115 -43q-41 -37 -41 -78v-350h265v-106h-265v-561q0 -97 -75.5 -163.5t-190.5 -66.5q-114 0 -189 66.5t-75 163.5v92h109v-92q0 -41 40 -79q47 -44 115 -44q69 0 116 44q42 38 42 79v561h-242v106h242v350
q0 97 74.5 162.5t189.5 65.5t190.5 -65.5t75.5 -162.5v-94z" />
    <glyph glyph-name="approxequal" unicode="&#x2248;" horiz-adv-x="1706" 
d="M1530 807q-102 -72 -199.5 -108.5t-187.5 -36.5q-100 0 -289 69.5t-289 69.5q-82 0 -171.5 -37t-215.5 -123v113q209 145 387 145q102 0 295 -69.5t283 -69.5q84 0 171.5 34.5t215.5 123.5v-111zM1530 469q-104 -72 -201.5 -108.5t-185.5 -36.5q-100 0 -289 69.5
t-289 69.5q-82 0 -171.5 -36.5t-215.5 -123.5v111q110 75 203 110t184 35q112 0 299 -67q193 -70 279 -70q89 0 175 34.5t212 123.5v-111z" />
    <glyph glyph-name="approxequal" unicode="&#x22f2;" horiz-adv-x="1706" 
d="M1530 807q-102 -72 -199.5 -108.5t-187.5 -36.5q-100 0 -289 69.5t-289 69.5q-82 0 -171.5 -37t-215.5 -123v113q209 145 387 145q102 0 295 -69.5t283 -69.5q84 0 171.5 34.5t215.5 123.5v-111zM1530 469q-104 -72 -201.5 -108.5t-185.5 -36.5q-100 0 -289 69.5
t-289 69.5q-82 0 -171.5 -36.5t-215.5 -123.5v111q110 75 203 110t184 35q112 0 299 -67q193 -70 279 -70q89 0 175 34.5t212 123.5v-111z" />
    <glyph glyph-name="Delta" unicode="&#x394;" horiz-adv-x="1346" 
d="M1356 0h-1366l590 1473h186zM1139 139l-467 1186l-465 -1186h932z" />
    <glyph glyph-name="Delta" unicode="&#x2206;" horiz-adv-x="1346" 
d="M1356 0h-1366l590 1473h186zM1139 139l-467 1186l-465 -1186h932z" />
    <glyph glyph-name="guillemotleft" unicode="&#xab;" horiz-adv-x="518" 
d="M436 428l-90 -45l-96 203q-6 16 -6 18q0 6 6 19l96 204l90 -45l-86 -178zM274 428l-90 -45l-96 203q-6 16 -6 18q0 6 6 19l96 204l90 -45l-86 -178z" />
    <glyph glyph-name="guillemotright" unicode="&#xbb;" horiz-adv-x="518" 
d="M436 604q0 -2 -6 -18l-96 -203l-90 45l86 176l-86 178l90 45l96 -204q6 -13 6 -19zM274 604q0 -2 -6 -18l-96 -203l-90 45l86 176l-86 178l90 45l96 -204q6 -13 6 -19z" />
    <glyph glyph-name="ellipsis" unicode="&#x2026;" horiz-adv-x="723" 
d="M649 0h-129v127h129v-127zM424 0h-129v127h129v-127zM201 0h-129v127h129v-127z" />
    <glyph glyph-name="Agrave" unicode="&#xc0;" horiz-adv-x="600" 
d="M569 0h-112l-39 248h-236l-39 -248h-112l217 1419q5 35 51 35q48 0 53 -35zM403 352l-104 705l-102 -705h206zM375 1562l-68 -65l-108 114l68 66z" />
    <glyph glyph-name="Atilde" unicode="&#xc3;" horiz-adv-x="600" 
d="M569 0h-112l-39 248h-236l-39 -248h-112l217 1419q5 35 51 35q48 0 53 -35zM403 352l-104 705l-102 -705h206zM508 1583q-38 -80 -129 -80q-37 0 -85.5 22.5t-62.5 22.5q-21 0 -37 -26l-92 37q40 80 131 80q37 0 85.5 -22.5t62.5 -22.5q21 0 35 24z" />
    <glyph glyph-name="Otilde" unicode="&#xd5;" horiz-adv-x="653" 
d="M592 207q0 -97 -76 -162t-190 -65q-115 0 -190 65t-75 162v1020q0 96 75 161.5t190 65.5q114 0 190 -65.5t76 -161.5v-1020zM481 207v1020q0 40 -40 79q-47 44 -115 44t-114 -44q-40 -38 -40 -79v-1020q0 -41 40 -78q46 -43 114 -43t115 43q40 37 40 78zM518 1583
q-38 -80 -129 -80q-37 0 -85.5 22.5t-62.5 22.5q-21 0 -37 -26l-92 37q40 80 131 80q37 0 85.5 -22.5t62.5 -22.5q21 0 35 24z" />
    <glyph glyph-name="OE" unicode="&#x152;" horiz-adv-x="961" 
d="M899 0h-573q-115 0 -190 65.5t-75 161.5v979q0 97 75 162.5t190 65.5h563v-105h-359v-364h359v-107h-359v-752h369v-106zM418 106v1223h-92q-68 0 -114 -44q-40 -38 -40 -79v-979q0 -40 40 -78q45 -43 114 -43h92z" />
    <glyph glyph-name="oe" unicode="&#x153;" horiz-adv-x="881" 
d="M819 0h-518q-103 0 -171.5 58.5t-68.5 146.5v848q0 87 68.5 145.5t171.5 58.5h510v-104h-305v-301h305v-107h-305v-639h313v-106zM397 106v1047h-96q-56 0 -95 -37q-34 -32 -34 -63v-848q0 -32 34 -63q39 -36 95 -36h96z" />
    <glyph glyph-name="endash" unicode="&#x2013;" 
d="M942 553h-860v109h860v-109z" />
    <glyph glyph-name="emdash" unicode="&#x2014;" horiz-adv-x="2048" 
d="M2068 553h-2088v109h2088v-109z" />
    <glyph glyph-name="quotedblleft" unicode="&#x201c;" horiz-adv-x="436" 
d="M375 1108h-129v141l80 86v-98h49v-129zM190 1108h-129v141l80 86v-98h49v-129z" />
    <glyph glyph-name="quotedblright" unicode="&#x201d;" horiz-adv-x="436" 
d="M375 1178l-80 -86v98h-49v129h129v-141zM190 1178l-79 -86v98h-50v129h129v-141z" />
    <glyph glyph-name="quoteleft" unicode="&#x2018;" horiz-adv-x="272" 
d="M201 1108h-129v141l80 86v-98h49v-129z" />
    <glyph glyph-name="quoteright" unicode="&#x2019;" horiz-adv-x="272" 
d="M201 1178l-80 -86v98h-49v129h129v-141z" />
    <glyph glyph-name="divide" unicode="&#xf7;" horiz-adv-x="1706" 
d="M961 963q0 -46 -31 -76.5t-76 -30.5t-75.5 30.5t-30.5 76.5q0 42 32.5 75t73.5 33q44 0 75.5 -32t31.5 -76zM1452 561h-1198v98h1198v-98zM961 258q0 -45 -31 -75.5t-76 -30.5t-75.5 30.5t-30.5 75.5t30.5 76t75.5 31t76 -31t31 -76z" />
    <glyph glyph-name="lozenge" unicode="&#x25ca;" horiz-adv-x="1012" 
d="M1006 592l-500 -1069l-500 1069l500 1061zM891 592l-385 817l-385 -817l385 -825z" />
    <glyph glyph-name="ydieresis" unicode="&#xff;" horiz-adv-x="549" 
d="M518 1257l-190 -843v-414h-109v414l-188 843h112l131 -636l132 636h112zM410 1391q0 -48 -57 -48q-55 0 -55 48q0 47 57 47q55 0 55 -47zM262 1391q0 -48 -55 -48t-55 48q0 47 57 47q53 0 53 -47z" />
    <glyph glyph-name="Ydieresis" unicode="&#x178;" horiz-adv-x="563" 
d="M553 1434l-217 -963v-471h-109v471l-217 963h115l156 -715l157 715h115zM420 1555q0 -48 -57 -48q-55 0 -55 48q0 47 57 47q55 0 55 -47zM272 1555q0 -48 -55 -48t-55 48q0 47 57 47q53 0 53 -47z" />
    <glyph glyph-name="fraction" unicode="&#x2044;" horiz-adv-x="881" 
d="M799 1421l-615 -1431l-102 22l612 1432z" />
    <glyph glyph-name="currency" unicode="&#xa4;" horiz-adv-x="754" 
d="M692 207q0 -97 -75.5 -162t-190.5 -65t-191.5 65t-76.5 162v135h-138l39 109h99v65h-138l39 107h99v331q0 97 76.5 162.5t191.5 65.5t190.5 -65.5t75.5 -162.5v-94h-112v94q0 41 -40 79q-46 44 -114 44t-116 -44q-42 -38 -42 -79v-331h256l-39 -107h-217v-65h203
l-37 -109h-166v-135q0 -40 42 -78q48 -43 116 -43t114 43q40 37 40 78v86h112v-86z" />
    <glyph glyph-name="guilsinglleft" unicode="&#x2039;" horiz-adv-x="356" 
d="M274 428l-90 -45l-96 203q-6 16 -6 18q0 6 6 19l96 204l90 -45l-86 -178z" />
    <glyph glyph-name="guilsinglright" unicode="&#x203a;" horiz-adv-x="356" 
d="M274 606q0 -5 -6 -18l-96 -205l-90 45l86 178l-86 176l90 45l96 -202q6 -17 6 -19z" />
    <glyph glyph-name="fi" unicode="&#xf001;" horiz-adv-x="813" 
d="M502 745h-312v-745h-108v1204q0 18 16 35.5t37 17.5h367v-104h-312v-301h312v-107zM731 0h-108v1257h108v-1257z" />
    <glyph glyph-name="fl" unicode="&#xf002;" horiz-adv-x="1067" 
d="M502 745h-312v-745h-108v1204q0 18 16 35.5t37 17.5h367v-104h-312v-301h312v-107zM1047 0h-367q-21 0 -37 17.5t-16 35.5v1204h108v-1151h312v-106z" />
    <glyph glyph-name="daggerdbl" unicode="&#x2021;" 
d="M965 205h-387v-422h-142v422h-377v133h377v580h-377v131h377v424h142v-424h387v-131h-387v-580h387v-133z" />
    <glyph glyph-name="periodcentered" unicode="&#xb7;" horiz-adv-x="561" 
d="M385 680q0 -43 -30.5 -74t-73.5 -31q-45 0 -75 30t-30 75q0 43 30.5 73.5t74.5 30.5q43 0 73.5 -30.5t30.5 -73.5z" />
    <glyph glyph-name="periodcentered" unicode="&#x2219;" horiz-adv-x="561" 
d="M385 680q0 -43 -30.5 -74t-73.5 -31q-45 0 -75 30t-30 75q0 43 30.5 73.5t74.5 30.5q43 0 73.5 -30.5t30.5 -73.5z" />
    <glyph glyph-name="quotesinglbase" unicode="&#x201a;" horiz-adv-x="272" 
d="M201 -12l-80 -86v98h-49v129h129v-141z" />
    <glyph glyph-name="quotedblbase" unicode="&#x201e;" horiz-adv-x="436" 
d="M377 -12l-80 -86v98h-49v129h129v-141zM193 -12l-80 -86v98h-50v129h130v-141z" />
    <glyph glyph-name="perthousand" unicode="&#x2030;" horiz-adv-x="1450" 
d="M1389 125q0 -65 -47.5 -105t-120.5 -40q-74 0 -123 40t-49 105v321q0 66 49 107t123 41q73 0 120.5 -41t47.5 -107v-321zM981 125q0 -65 -47.5 -105t-120.5 -40q-74 0 -123 40t-49 105v321q0 66 49 107t123 41q73 0 120.5 -41t47.5 -107v-321zM803 1114l-494 -1137
l-102 25l467 1061h-283q10 -28 10 -49v-320q0 -65 -49 -106t-123 -41q-73 0 -120.5 41t-47.5 106v320q0 65 47.5 106t120.5 41h525q19 0 34 -15.5t15 -31.5zM1290 125v321q0 13 -17 29q-21 21 -52 21t-54 -21q-18 -16 -18 -29v-321q0 -12 18 -28q23 -19 54 -19t52 19
q17 16 17 28zM883 125v321q0 13 -17 29q-22 21 -53 21t-54 -21q-18 -16 -18 -29v-321q0 -12 18 -28q23 -19 54 -19t53 19q17 16 17 28zM301 694v320q0 12 -18 28q-23 21 -54 21t-52 -21q-17 -16 -17 -28v-320q0 -12 17 -28q21 -21 52 -21t54 21q18 16 18 28z" />
    <glyph glyph-name="Acircumflex" unicode="&#xc2;" horiz-adv-x="600" 
d="M569 0h-112l-39 248h-236l-39 -248h-112l217 1419q5 35 51 35q48 0 53 -35zM403 352l-104 705l-102 -705h206zM477 1559l-51 -80l-129 74l-131 -74l-49 80l153 86q12 6 27 6t27 -6z" />
    <glyph glyph-name="Ecircumflex" unicode="&#xca;" horiz-adv-x="621" 
d="M559 0h-422q-21 0 -38 17.5t-17 35.5v1327q0 18 17 36t38 18h414v-105h-358v-364h358v-107h-358v-752h366v-106zM502 1559l-51 -80l-129 74l-131 -74l-49 80l153 86q12 6 27 6t27 -6z" />
    <glyph glyph-name="Aacute" unicode="&#xc1;" horiz-adv-x="600" 
d="M569 0h-112l-39 248h-236l-39 -248h-112l217 1419q5 35 51 35q48 0 53 -35zM403 352l-104 705l-102 -705h206zM416 1591l-108 -114l-68 65l108 115z" />
    <glyph glyph-name="Edieresis" unicode="&#xcb;" horiz-adv-x="621" 
d="M559 0h-422q-21 0 -38 17.5t-17 35.5v1327q0 18 17 36t38 18h414v-105h-358v-364h358v-107h-358v-752h366v-106zM467 1555q0 -48 -57 -48q-55 0 -55 48q0 47 57 47q55 0 55 -47zM319 1555q0 -48 -55 -48t-55 48q0 47 57 47q53 0 53 -47z" />
    <glyph glyph-name="Egrave" unicode="&#xc8;" horiz-adv-x="621" 
d="M559 0h-422q-21 0 -38 17.5t-17 35.5v1327q0 18 17 36t38 18h414v-105h-358v-364h358v-107h-358v-752h366v-106zM416 1542l-68 -65l-108 114l68 66z" />
    <glyph glyph-name="Iacute" unicode="&#xcd;" horiz-adv-x="274" 
d="M193 0h-111v1434h111v-1434zM252 1591l-108 -114l-68 65l108 115z" />
    <glyph glyph-name="Icircumflex" unicode="&#xce;" horiz-adv-x="274" 
d="M193 0h-111v1434h111v-1434zM321 1559l-51 -80l-129 74l-131 -74l-49 80l153 86q12 6 27 6t27 -6z" />
    <glyph glyph-name="Idieresis" unicode="&#xcf;" horiz-adv-x="274" 
d="M193 0h-111v1434h111v-1434zM272 1555q0 -48 -57 -48q-55 0 -55 48q0 47 57 47q55 0 55 -47zM124 1555q0 -48 -55 -48t-55 48q0 47 57 47q53 0 53 -47z" />
    <glyph glyph-name="Igrave" unicode="&#xcc;" horiz-adv-x="274" 
d="M193 0h-111v1434h111v-1434zM211 1542l-68 -65l-108 114l68 66z" />
    <glyph glyph-name="Oacute" unicode="&#xd3;" horiz-adv-x="653" 
d="M592 207q0 -97 -76 -162t-190 -65q-115 0 -190 65t-75 162v1020q0 96 75 161.5t190 65.5q114 0 190 -65.5t76 -161.5v-1020zM481 207v1020q0 40 -40 79q-47 44 -115 44t-114 -44q-40 -38 -40 -79v-1020q0 -41 40 -78q46 -43 114 -43t115 43q40 37 40 78zM436 1591
l-108 -114l-68 65l108 115z" />
    <glyph glyph-name="Ocircumflex" unicode="&#xd4;" horiz-adv-x="653" 
d="M592 207q0 -97 -76 -162t-190 -65q-115 0 -190 65t-75 162v1020q0 96 75 161.5t190 65.5q114 0 190 -65.5t76 -161.5v-1020zM481 207v1020q0 40 -40 79q-47 44 -115 44t-114 -44q-40 -38 -40 -79v-1020q0 -41 40 -78q46 -43 114 -43t115 43q40 37 40 78zM502 1559
l-51 -80l-129 74l-131 -74l-49 80l153 86q12 6 27 6t27 -6z" />
    <glyph glyph-name="Ograve" unicode="&#xd2;" horiz-adv-x="653" 
d="M592 207q0 -97 -76 -162t-190 -65q-115 0 -190 65t-75 162v1020q0 96 75 161.5t190 65.5q114 0 190 -65.5t76 -161.5v-1020zM481 207v1020q0 40 -40 79q-47 44 -115 44t-114 -44q-40 -38 -40 -79v-1020q0 -41 40 -78q46 -43 114 -43t115 43q40 37 40 78zM395 1542
l-68 -65l-108 114l68 66z" />
    <glyph glyph-name="Uacute" unicode="&#xda;" horiz-adv-x="674" 
d="M602 207q0 -97 -75.5 -162t-190.5 -65t-189.5 65t-74.5 162v1227h110v-1227q0 -41 40 -78q46 -43 114 -43t115 43q41 37 41 78v1227h110v-1227zM457 1591l-108 -114l-68 65l108 115z" />
    <glyph glyph-name="Ucircumflex" unicode="&#xdb;" horiz-adv-x="674" 
d="M602 207q0 -97 -75.5 -162t-190.5 -65t-189.5 65t-74.5 162v1227h110v-1227q0 -41 40 -78q46 -43 114 -43t115 43q41 37 41 78v1227h110v-1227zM520 1559l-51 -80l-129 74l-131 -74l-49 80l153 86q12 6 27 6t27 -6z" />
    <glyph glyph-name="Ugrave" unicode="&#xd9;" horiz-adv-x="674" 
d="M602 207q0 -97 -75.5 -162t-190.5 -65t-189.5 65t-74.5 162v1227h110v-1227q0 -41 40 -78q46 -43 114 -43t115 43q41 37 41 78v1227h110v-1227zM416 1542l-68 -65l-108 114l68 66z" />
    <glyph glyph-name="dotlessi" unicode="&#x131;" horiz-adv-x="272" 
d="M190 0h-108v1257h108v-1257z" />
    <glyph glyph-name="circumflex" unicode="&#x2c6;" 
d="M692 1395l-51 -80l-129 74l-131 -74l-49 80l153 86q12 6 27 6t27 -6z" />
    <glyph glyph-name="tilde" unicode="&#x2dc;" 
d="M715 1419q-38 -80 -129 -80q-37 0 -85.5 22.5t-62.5 22.5q-21 0 -37 -26l-92 37q40 80 131 80q37 0 85.5 -22.5t62.5 -22.5q21 0 35 24z" />
    <glyph glyph-name="macron" unicode="&#xaf;" 
d="M662 1333h-300v109h300v-109z" />
    <glyph glyph-name="macron" unicode="&#x2c9;" 
d="M662 1333h-300v109h300v-109z" />
    <glyph glyph-name="breve" unicode="&#x2d8;" 
d="M690 1468q-46 -149 -178 -149t-178 149l96 29q28 -86 82 -86q52 0 80 86z" />
    <glyph glyph-name="dotaccent" unicode="&#x2d9;" 
d="M559 1391q0 -48 -47 -48t-47 48q0 47 49 47q45 0 45 -47z" />
    <glyph glyph-name="ring" unicode="&#x2da;" 
d="M623 1407q0 -47 -33.5 -78t-79.5 -31q-47 0 -79 34.5t-32 80.5q0 47 33.5 78t79.5 31t78.5 -34.5t32.5 -80.5zM559 1407q0 49 -49 49q-45 0 -45 -43q0 -49 41 -49q53 0 53 43z" />
    <glyph glyph-name="cedilla" unicode="&#xb8;" 
d="M688 -113q0 -43 -31 -75q-43 -43 -127 -43q-40 0 -112 26l28 90q58 -20 89 -20q55 0 55 24q0 21 -55 21q-50 0 -50 49q0 4 25 98l98 -24l-12 -47q92 -24 92 -99z" />
    <glyph glyph-name="hungarumlaut" unicode="&#x2dd;" 
d="M690 1427l-108 -114l-68 65l109 115zM510 1427l-109 -114l-67 65l108 115z" />
    <glyph glyph-name="ogonek" unicode="&#x2db;" 
d="M657 -135q-83 -35 -147 -35q-59 0 -102 26q-52 32 -52 91q0 63 62 135l78 -64q-31 -36 -31 -65q0 -25 43 -25q46 0 110 27z" />
    <glyph glyph-name="caron" unicode="&#x2c7;" 
d="M692 1411l-153 -86q-11 -6 -27 -6t-27 6l-153 86l49 78l131 -70l129 70z" />
    <glyph glyph-name="Lslash" unicode="&#x141;" horiz-adv-x="580" 
d="M559 0h-422q-21 0 -38 17.5t-17 35.5v579l-64 -38l-56 93l120 72v675h111v-609l68 41l55 -93l-123 -74v-593h366v-106z" />
    <glyph glyph-name="lslash" unicode="&#x142;" horiz-adv-x="522" 
d="M502 0h-367q-21 0 -37 17.5t-16 35.5v497l-64 -38l-56 93l120 72v580h108v-515l71 42l55 -93l-126 -76v-509h312v-106z" />
    <glyph glyph-name="Scaron" unicode="&#x160;" horiz-adv-x="623" 
d="M571 227q0 -99 -74 -172q-78 -75 -192 -75q-115 0 -189.5 65t-74.5 162v86h111v-86q0 -41 39 -78q46 -43 114 -43q67 0 115 53q41 45 41 88q0 139 -65 267q-40 80 -144 213q-103 130 -143 211q-68 132 -68 288q0 99 74 172q78 76 190 76q115 0 190.5 -65.5t75.5 -161.5
v-94h-110v94q0 40 -41 79q-47 44 -115 44q-67 0 -114 -55q-39 -45 -39 -89q0 -131 63 -252q48 -90 156 -226q103 -128 140 -206q60 -127 60 -295zM489 1595l-153 -86q-11 -6 -27 -6t-27 6l-153 86l49 78l131 -70l129 70z" />
    <glyph glyph-name="scaron" unicode="&#x161;" horiz-adv-x="543" 
d="M502 195q0 -93 -57 -151q-63 -64 -177 -64q-102 0 -169.5 58.5t-67.5 145.5v74h108v-74q0 -31 34 -61q39 -35 95 -35q63 0 99 40q28 31 28 67q0 120 -55 231q-35 71 -125 188q-46 61 -127 191q-57 116 -57 258q0 91 62 151q66 64 175 64q102 0 168 -58.5t66 -146.5v-82
h-107v82q0 32 -32 62q-39 36 -95 36q-61 0 -99 -41q-30 -33 -30 -67q0 -110 56 -217q31 -62 124 -182q90 -116 125 -192q58 -125 58 -277zM446 1411l-153 -86q-11 -6 -27 -6t-27 6l-153 86l49 78l131 -70l129 70z" />
    <glyph glyph-name="Zcaron" unicode="&#x17d;" horiz-adv-x="575" 
d="M555 1376q0 -10 -2 -16l-399 -1254h346v-106h-426q-54 0 -54 55q0 8 5 21l397 1253h-346v105h424q55 0 55 -58zM489 1595l-153 -86q-11 -6 -27 -6t-27 6l-153 86l49 78l131 -70l129 70z" />
    <glyph glyph-name="zcaron" unicode="&#x17e;" horiz-adv-x="539" 
d="M508 1198q0 -8 -2 -14l-342 -1078h291v-106h-369q-55 0 -55 51q0 12 4 25l350 1077h-299v104h371q51 0 51 -59zM475 1411l-153 -86q-11 -6 -27 -6t-27 6l-153 86l49 78l131 -70l129 70z" />
    <glyph glyph-name="brokenbar" unicode="&#xa6;" 
d="M567 674h-108v758h108v-758zM567 -350h-108v758h108v-758z" />
    <glyph glyph-name="Eth" unicode="&#xd0;" horiz-adv-x="664" 
d="M612 780q0 -419 -223 -643q-43 -43 -114 -92q-93 -65 -140 -65q-21 0 -37 17.5t-16 35.5v663h-123v109h123v596q0 18 15.5 35.5t37.5 17.5q125 0 250 -88q227 -160 227 -586zM502 780q0 175 -54 311q-78 200 -255 246v-532h114v-109h-114v-575q167 102 247 309
q62 161 62 350z" />
    <glyph glyph-name="eth" unicode="&#xf0;" horiz-adv-x="594" 
d="M553 682q0 -442 -274 -635q-74 -51 -125 -65q-8 -2 -19 -2q-21 0 -37 17.5t-16 35.5v540h-123v109h123v543q0 18 16 35.5t37 17.5q107 0 221 -80q197 -137 197 -516zM446 682q0 146 -44 264q-66 172 -212 215v-479h117v-109h-117v-450q139 89 205 265q51 136 51 294z" />
    <glyph glyph-name="Yacute" unicode="&#xdd;" horiz-adv-x="563" 
d="M553 1434l-217 -963v-471h-109v471l-217 963h115l156 -715l157 715h115zM395 1591l-108 -114l-68 65l108 115z" />
    <glyph glyph-name="yacute" unicode="&#xfd;" horiz-adv-x="549" 
d="M518 1257l-190 -843v-414h-109v414l-188 843h112l131 -636l132 636h112zM383 1427l-108 -114l-68 65l108 115z" />
    <glyph glyph-name="Thorn" unicode="&#xde;" horiz-adv-x="633" 
d="M612 1038q0 -189 -141 -458q-112 -214 -278 -418v-162h-111v1434h111v-154h159q144 0 205 -64q55 -56 55 -178zM502 1038q0 66 -23 94q-33 39 -127 39h-159v-821q309 434 309 688z" />
    <glyph glyph-name="thorn" unicode="&#xfe;" horiz-adv-x="584" 
d="M553 879q0 -154 -118 -338q-71 -111 -245 -308v-233h-108v1257h108v-163h134q127 0 181 -57q48 -50 48 -158zM446 879q0 53 -17 76q-27 34 -105 34h-134v-581q256 240 256 471z" />
    <glyph glyph-name="minus" unicode="&#x2212;" horiz-adv-x="1706" 
d="M1452 561h-1198v98h1198v-98z" />
    <glyph glyph-name="multiply" unicode="&#xd7;" horiz-adv-x="1706" 
d="M1407 129l-70 -70l-481 482l-481 -482l-70 70l481 481l-481 482l70 69l481 -481l481 481l70 -69l-481 -482z" />
    <glyph glyph-name="onesuperior" unicode="&#xb9;" horiz-adv-x="346" 
d="M264 723h-112v602h-70v109h182v-711z" />
    <glyph glyph-name="twosuperior" unicode="&#xb2;" horiz-adv-x="483" 
d="M401 1280q0 -148 -114 -297q-29 -34 -57 -68q-32 -41 -40 -79h183v-113h-240q-51 0 -51 55v10q0 95 33 153q3 6 88 116q94 122 94 223q0 11 -13 25q-17 18 -42 18t-41 -18q-13 -13 -13 -25v-78h-106v78q0 66 46 110t114 44q67 0 113 -44t46 -110z" />
    <glyph glyph-name="threesuperior" unicode="&#xb3;" horiz-adv-x="481" 
d="M399 874q0 -66 -46.5 -110.5t-112.5 -44.5q-67 0 -112.5 44.5t-45.5 110.5v64h104v-64q0 -10 14.5 -25t39.5 -15t42 16q13 14 13 24v144q0 11 -13 24q-17 17 -42 17q-17 0 -41 -14.5t-39 -14.5q-49 0 -49 43q0 10 4 17l135 231h-144v113h238q22 0 36.5 -18.5t14.5 -39.5
q0 -13 -53 -95q-67 -103 -72 -112q56 -9 92.5 -51t36.5 -100v-144z" />
    <glyph glyph-name="onehalf" unicode="&#xbd;" horiz-adv-x="950" 
d="M279 723h-113v602h-70v109h183v-711zM799 1421l-615 -1431l-102 22l612 1432zM868 557q0 -148 -114 -297q-29 -34 -57 -68q-32 -41 -40 -79h183v-113h-240q-51 0 -51 55v11q0 94 32 152q4 6 89 116q94 122 94 223q0 11 -13 25q-17 18 -42 18t-41 -18q-13 -13 -13 -25v-78
h-106v78q0 66 46 110t114 44q67 0 113 -44t46 -110z" />
    <glyph glyph-name="onequarter" unicode="&#xbc;" horiz-adv-x="911" 
d="M279 723h-113v602h-70v109h183v-711zM799 1421l-615 -1431l-102 22l612 1432zM829 150h-59v-150h-104v150h-138q-21 0 -37 18t-16 39q0 5 193 627q10 34 51 34q51 0 51 -55v-551h59v-112zM666 262v207l-64 -207h64z" />
    <glyph glyph-name="threequarters" unicode="&#xbe;" horiz-adv-x="1044" 
d="M399 874q0 -66 -46.5 -110.5t-112.5 -44.5q-67 0 -112.5 44.5t-45.5 110.5v64h104v-64q0 -10 14.5 -25t39.5 -15t42 16q13 14 13 24v144q0 11 -13 24q-17 17 -42 17q-17 0 -41 -14.5t-39 -14.5q-49 0 -49 43q0 10 4 17l135 231h-144v113h238q22 0 36.5 -18.5t14.5 -39.5
q0 -13 -53 -95q-67 -103 -72 -112q56 -9 92.5 -51t36.5 -100v-144zM932 1421l-615 -1431l-102 22l612 1432zM963 150h-60v-150h-104v150h-137q-22 0 -38 18t-16 39q0 5 193 627q11 34 51 34q51 0 51 -55v-551h60v-112zM799 262v207l-64 -207h64z" />
    <glyph glyph-name="franc" unicode="&#x20a3;" horiz-adv-x="1208" 
d="M559 858h-366v-858h-111v1380q0 18 17 36t38 18h422v-105h-366v-364h366v-107zM1177 0h-114l-134 446q-62 -92 -125 -170v-276h-108v1204q0 18 16 35.5t37 17.5h189q128 0 182 -56q49 -50 49 -159q0 -193 -160 -467zM1060 1042q0 54 -17 77q-27 34 -105 34h-134v-684
q256 366 256 573z" />
    <glyph glyph-name="Gbreve" unicode="&#x11e;" horiz-adv-x="653" 
d="M592 207q0 -97 -76 -162t-190 -65q-115 0 -190 65t-75 162v1020q0 96 75 161.5t190 65.5q114 0 190 -65.5t76 -161.5v-94h-111v94q0 40 -40 79q-47 44 -115 44t-114 -44q-40 -38 -40 -79v-1020q0 -41 40 -78q46 -43 114 -43t115 43q40 37 40 78v348h-176v109h232
q21 0 38 -18t17 -36v-403zM506 1652q-46 -149 -178 -149t-178 149l96 29q28 -86 82 -86q52 0 80 86z" />
    <glyph glyph-name="gbreve" unicode="&#x11f;" horiz-adv-x="594" 
d="M532 184q0 -88 -65.5 -146t-167.5 -58t-170 58.5t-68 145.5v889q0 88 68 146.5t170 58.5t167.5 -58.5t65.5 -146.5v-82h-106v82q0 32 -33 62q-38 36 -94 36t-95 -36q-34 -30 -34 -62v-889q0 -31 34 -61q39 -35 95 -35t94 35q33 30 33 61v297h-145v109h198
q22 0 37.5 -17.5t15.5 -35.5v-353zM469 1468q-46 -149 -178 -149t-178 149l96 29q28 -86 82 -86q52 0 80 86z" />
    <glyph glyph-name="Idotaccent" unicode="&#x130;" horiz-adv-x="274" 
d="M193 0h-111v1434h111v-1434zM192 1555q0 -48 -47 -48t-47 48q0 47 49 47q45 0 45 -47z" />
    <glyph glyph-name="Scedilla" unicode="&#x15e;" horiz-adv-x="623" 
d="M571 227q0 -88 -61 -158q-64 -72 -161 -86l-11 -42q92 -24 92 -99q0 -43 -32 -75q-42 -43 -126 -43q-40 0 -112 26l28 90q58 -20 88 -20q56 0 56 24q0 21 -56 21q-49 0 -49 49q0 19 17 71q-91 17 -147 78t-56 144v86h111v-86q0 -41 39 -78q46 -43 114 -43q67 0 115 53
q41 45 41 88q0 139 -65 267q-40 80 -144 213q-103 130 -143 211q-68 132 -68 288q0 99 74 172q78 76 190 76q115 0 190.5 -65.5t75.5 -161.5v-94h-110v94q0 40 -41 79q-47 44 -115 44q-67 0 -114 -55q-39 -45 -39 -89q0 -131 63 -252q48 -90 156 -226q103 -128 140 -206
q60 -127 60 -295z" />
    <glyph glyph-name="scedilla" unicode="&#x15f;" horiz-adv-x="543" 
d="M502 195q0 -180 -177 -211l-12 -43q93 -24 93 -99q0 -43 -32 -75q-42 -43 -126 -43q-41 0 -113 26l29 90q57 -20 88 -20q55 0 55 24q0 21 -55 21q-49 0 -49 49q0 19 16 70q-84 14 -136 69t-52 131v74h108v-74q0 -31 34 -61q39 -35 95 -35q63 0 99 40q28 31 28 67
q0 120 -55 231q-35 71 -125 188q-46 61 -127 191q-57 116 -57 258q0 91 62 151q66 64 175 64q102 0 168 -58.5t66 -146.5v-82h-107v82q0 32 -32 62q-39 36 -95 36q-61 0 -99 -41q-30 -33 -30 -67q0 -110 56 -217q31 -62 124 -182q90 -116 125 -192q58 -125 58 -277z" />
    <glyph glyph-name="Cacute" unicode="&#x106;" horiz-adv-x="633" 
d="M592 207q0 -97 -76 -162t-190 -65q-115 0 -190 65t-75 162v1020q0 96 75 161.5t190 65.5q114 0 190 -65.5t76 -161.5v-94h-111v94q0 40 -40 79q-47 44 -115 44t-114 -44q-40 -38 -40 -79v-1020q0 -41 40 -78q46 -43 114 -43t115 43q40 37 40 78v86h111v-86zM436 1591
l-108 -114l-68 65l108 115z" />
    <glyph glyph-name="cacute" unicode="&#x107;" horiz-adv-x="573" 
d="M532 184q0 -88 -65.5 -146t-167.5 -58t-170 58.5t-68 145.5v889q0 88 68 146.5t170 58.5t167.5 -58.5t65.5 -146.5v-82h-106v82q0 32 -33 62q-38 36 -94 36t-95 -36q-34 -30 -34 -62v-889q0 -31 34 -61q39 -35 95 -35t94 35q33 30 33 61v74h106v-74zM395 1427l-108 -114
l-68 65l108 115z" />
    <glyph glyph-name="Ccaron" unicode="&#x10c;" horiz-adv-x="633" 
d="M592 207q0 -97 -76 -162t-190 -65q-115 0 -190 65t-75 162v1020q0 96 75 161.5t190 65.5q114 0 190 -65.5t76 -161.5v-94h-111v94q0 40 -40 79q-47 44 -115 44t-114 -44q-40 -38 -40 -79v-1020q0 -41 40 -78q46 -43 114 -43t115 43q40 37 40 78v86h111v-86zM495 1595
l-153 -86q-11 -6 -27 -6t-27 6l-153 86l49 78l131 -70l129 70z" />
    <glyph glyph-name="ccaron" unicode="&#x10d;" horiz-adv-x="573" 
d="M532 184q0 -88 -65.5 -146t-167.5 -58t-170 58.5t-68 145.5v889q0 88 68 146.5t170 58.5t167.5 -58.5t65.5 -146.5v-82h-106v82q0 32 -33 62q-38 36 -94 36t-95 -36q-34 -30 -34 -62v-889q0 -31 34 -61q39 -35 95 -35t94 35q33 30 33 61v74h106v-74zM475 1411l-153 -86
q-11 -6 -27 -6t-27 6l-153 86l49 78l131 -70l129 70z" />
    <glyph glyph-name="dcroat" unicode="&#x111;" horiz-adv-x="594" 
d="M553 682q0 -442 -274 -635q-74 -51 -125 -65q-8 -2 -19 -2q-21 0 -37 17.5t-16 35.5v540h-123v109h123v543q0 18 16 35.5t37 17.5q107 0 221 -80q197 -137 197 -516zM446 682q0 146 -44 264q-66 172 -212 215v-479h117v-109h-117v-450q139 89 205 265q51 136 51 294z" />
    <glyph glyph-name="nonbreakingspace" unicode="&#xa0;" horiz-adv-x="328" 
 />
    <glyph glyph-name="apple" unicode="&#xf000;" horiz-adv-x="1618" 
d="M1167 1552q0 -131 -103 -234.5t-204 -103.5h-8h-8q-3 1 -8 3q-1 4 -2 14v22q0 132 102 237q96 99 229 124q1 -7 2 -23v-39zM1505 403q-90 -195 -152 -279q-118 -159 -257 -159q-46 0 -129.5 33t-124.5 33q-44 0 -130 -33t-128 -33q-129 0 -258 176q-213 291 -213 596
q0 211 117 349q124 145 331 145q67 0 156 -35q84 -33 123 -33q36 0 121 33q89 35 153 35q112 0 199 -39t160 -123q-201 -128 -201 -328q0 -114 59 -199.5t174 -138.5z" />
    <glyph glyph-name="sfthyphen" unicode="&#xad;" horiz-adv-x="778" 
d="M696 553h-614v109h614v-109z" />
    <glyph glyph-name="Euro" unicode="&#x20ac;" horiz-adv-x="754" 
d="M692 207q0 -97 -75.5 -162t-190.5 -65t-191.5 65t-76.5 162v135h-138l39 109h99v65h-138l39 107h99v331q0 97 76.5 162.5t191.5 65.5t190.5 -65.5t75.5 -162.5v-94h-112v94q0 41 -40 79q-46 44 -114 44t-116 -44q-42 -38 -42 -79v-331h256l-39 -107h-217v-65h203
l-37 -109h-166v-135q0 -40 42 -78q48 -43 116 -43t114 43q40 37 40 78v86h112v-86z" />
    </font>
</defs>
</svg>
