<?xml version="1.0" standalone="no"?>
<!DOCTYPE svg PUBLIC "-//W3C//DTD SVG 1.1//EN" "http://www.w3.org/Graphics/SVG/1.1/DTD/svg11.dtd" >
<svg xmlns="http://www.w3.org/2000/svg" xmlns:xlink="http://www.w3.org/1999/xlink" version="1.1">
<metadata>
Created by FontForge 20170924 at Tue Jun 24 18:17:34 2003
 By www-data
(C) 2003 Bitstream Inc. &#38; Font Diner. All Rights Reserved. Designed by Stuart Sandler. http://www.fontdiner.com/ ROE
</metadata>
<defs>
<font id="ConcursoItalianBTNBold" horiz-adv-x="1024" >
  <font-face 
    font-family="ConcursoItalian BTN"
    font-weight="700"
    font-stretch="normal"
    units-per-em="2048"
    panose-1="2 11 8 6 2 1 2 4 11 7"
    ascent="1638"
    descent="-410"
    x-height="1257"
    cap-height="1434"
    bbox="-113 -483 2077 1681"
    underline-thickness="41"
    underline-position="-292"
    unicode-range="U+0020-F002"
  />
<missing-glyph 
d="M128 0v1638h768v-1638h-768zM256 128h512v1382h-512v-1382z" />
    <glyph glyph-name=".notdef" 
d="M128 0v1638h768v-1638h-768zM256 128h512v1382h-512v-1382z" />
    <glyph glyph-name=".null" horiz-adv-x="0" 
 />
    <glyph glyph-name="nonmarkingreturn" horiz-adv-x="338" 
 />
    <glyph glyph-name="space" unicode=" " horiz-adv-x="338" 
 />
    <glyph glyph-name="exclam" unicode="!" horiz-adv-x="297" 
d="M223 247h-149v1187h149v-1187zM223 0h-149v143h149v-143z" />
    <glyph glyph-name="quotedbl" unicode="&#x22;" horiz-adv-x="514" 
d="M461 1024h-148v410h148v-410zM203 1024h-150v410h150v-410z" />
    <glyph glyph-name="numbersign" unicode="#" horiz-adv-x="1575" 
d="M1487 1004l-51 -146h-303l-93 -262h322l-51 -147h-322l-162 -453h-165l161 453h-258l-162 -453h-165l159 453h-309l53 147h310l92 262h-330l51 146h332l162 454h166l-162 -454h256l164 454h164l-160 -454h301zM969 858h-260l-93 -264h261z" />
    <glyph glyph-name="dollar" unicode="$" horiz-adv-x="670" 
d="M606 233q0 -80 -54.5 -145t-141.5 -86v-145h-148v145q-85 19 -139 75q-57 58 -57 136v92h151v-92q0 -32 45 -57v411q-196 186 -196 381q0 81 53.5 145.5t142.5 85.5v132h148v-131q88 -18 142 -75t54 -137v-99h-147v99q0 31 -49 59v-395q94 -90 133 -156q63 -105 63 -243z
M262 794v229q-45 -32 -45 -75q0 -80 45 -154zM459 233q0 89 -49 170v-245q49 34 49 75z" />
    <glyph glyph-name="percent" unicode="%" horiz-adv-x="1067" 
d="M1014 140q0 -73 -54 -117t-135 -44q-80 0 -136 44t-56 117v311q0 72 56 117t136 45q81 0 135 -45t54 -117v-311zM836 1092l-503 -1118l-142 33l464 1020h-224q3 -16 3 -28v-309q0 -72 -56 -117t-136 -45q-81 0 -135 45t-54 117v309q0 72 54 117t135 45h524q28 0 49 -21.5
t21 -47.5zM874 140v311q0 27 -49 27q-21 0 -36 -10t-15 -17v-311q0 -26 51 -26q49 0 49 26zM293 690v309q0 7 -15 17.5t-36 10.5q-49 0 -49 -28v-309q0 -28 49 -28q21 0 37 12q14 9 14 16z" />
    <glyph glyph-name="ampersand" unicode="&#x26;" horiz-adv-x="721" 
d="M688 265q0 -97 -63 -167l51 -104h-175l-11 24q-63 -28 -119 -28q-153 0 -235.5 74t-82.5 201q0 205 142 485q-95 294 -95 495q0 88 54 145q61 64 168 64q98 0 163 -63q62 -61 62 -146q0 -120 -60 -264q-24 -55 -123 -244q84 -247 179 -463v104h145v-113zM393 1245
q0 18 -17 40q-21 28 -54 28q-30 0 -52 -19.5t-22 -48.5q0 -143 52 -303q93 165 93 303zM432 146q-69 152 -163 406q-64 -162 -64 -287q0 -132 166 -132q26 0 61 13z" />
    <glyph glyph-name="quotesingle" unicode="'" horiz-adv-x="297" 
d="M223 1024h-149v410h149v-410z" />
    <glyph glyph-name="parenleft" unicode="(" horiz-adv-x="451" 
d="M377 -20q-136 0 -219.5 68t-83.5 173v992q0 105 83.5 173t219.5 68v-141q-74 0 -118 -38q-36 -29 -36 -62v-992q0 -32 36 -62q44 -36 118 -36v-143z" />
    <glyph glyph-name="parenright" unicode=")" horiz-adv-x="451" 
d="M377 221q0 -105 -83.5 -173t-219.5 -68v143q74 0 119 37q36 29 36 61v992q0 32 -36 62q-45 38 -119 38v141q136 0 219.5 -68t83.5 -173v-992z" />
    <glyph glyph-name="asterisk" unicode="*" horiz-adv-x="483" 
d="M462 1280l-78 -39l78 -41l-69 -114l-82 43v-85h-139v85l-82 -43l-68 114l76 41l-76 39l68 114l82 -43v83h139v-83l82 43z" />
    <glyph glyph-name="plus" unicode="+" horiz-adv-x="1706" 
d="M1452 541h-528v-541h-142v541h-528v139h528v541h142v-541h528v-139z" />
    <glyph glyph-name="comma" unicode="," horiz-adv-x="272" 
d="M211 -6l-100 -107v113h-50v150h150v-156z" />
    <glyph glyph-name="hyphen" unicode="-" horiz-adv-x="803" 
d="M729 553h-655v109h655v-109z" />
    <glyph glyph-name="hyphen" unicode="&#x2010;" horiz-adv-x="803" 
d="M729 553h-655v109h655v-109z" />
    <glyph glyph-name="period" unicode="." horiz-adv-x="272" 
d="M211 0h-150v147h150v-147z" />
    <glyph glyph-name="slash" unicode="/" horiz-adv-x="586" 
d="M516 1427l-293 -1437l-153 19l292 1435z" />
    <glyph glyph-name="zero" unicode="0" horiz-adv-x="678" 
d="M625 217q0 -102 -82.5 -169.5t-204.5 -67.5t-203.5 67.5t-81.5 169.5v727q0 102 81.5 170t203.5 68t204.5 -68t82.5 -170v-727zM473 217v727q0 30 -34 61q-41 36 -101 36t-100 -36q-33 -30 -33 -61v-727q0 -30 33 -59q40 -36 100 -36t101 36q34 29 34 59z" />
    <glyph glyph-name="one" unicode="1" horiz-adv-x="457" 
d="M334 0h-152v1025h-159v136h311v-1161z" />
    <glyph glyph-name="two" unicode="2" horiz-adv-x="657" 
d="M612 942q0 -153 -57 -271q-45 -93 -163 -228q-61 -69 -123 -137q-66 -81 -75 -163h404v-143h-483q-31 0 -52.5 22t-21.5 47v20q0 118 27 187q26 65 103 151q165 182 198 231q92 136 92 284q0 30 -34 61q-41 36 -101 36t-100 -36q-33 -30 -33 -61v-111h-152v111
q0 103 81.5 171.5t203.5 68.5t204 -68.5t82 -171.5z" />
    <glyph glyph-name="three" unicode="3" horiz-adv-x="649" 
d="M600 -48q0 -103 -82.5 -172t-204.5 -69q-121 0 -202.5 69t-81.5 172v104h151v-104q0 -30 34 -61q40 -36 99 -36q60 0 100 36q33 31 33 61v446q0 31 -33 61q-40 37 -100 37q-40 0 -81 -24t-64 -24q-31 0 -53 26q-21 23 -21 48q0 38 286 498h-302v141h438q31 0 52.5 -23
t21.5 -48q0 -35 -262 -453q117 -4 194.5 -71.5t77.5 -167.5v-446z" />
    <glyph glyph-name="four" unicode="4" horiz-adv-x="655" 
d="M643 -7h-113v-261h-149v261h-293q-30 0 -53 22t-23 47q0 8 131 385l241 691q15 44 73 44q30 0 53 -25q20 -22 20 -47v-976h113v-141zM381 134v544l-189 -544h189z" />
    <glyph glyph-name="five" unicode="5" horiz-adv-x="647" 
d="M594 -48q0 -103 -82.5 -172t-204.5 -69q-121 0 -202.5 69t-81.5 172v104h151v-104q0 -30 33 -61q40 -36 100 -36t100 36q33 31 33 61v446q0 31 -33 61q-40 37 -100 37q-39 0 -81 -24t-64 -24q-31 0 -54 26q-20 23 -20 48v568q0 25 21.5 48t52.5 23h432v-141h-358v-388
q29 5 71 5q122 0 204.5 -68t82.5 -171v-446z" />
    <glyph glyph-name="six" unicode="6" horiz-adv-x="678" 
d="M625 221q0 -103 -82.5 -172t-204.5 -69t-203.5 68.5t-81.5 172.5v992q0 103 81.5 172t203.5 69t204.5 -69t82.5 -172v-104h-152v104q0 31 -34 62q-41 38 -101 38t-100 -38q-33 -31 -33 -62v-244q64 29 133 29q122 0 204.5 -70t82.5 -173v-534zM473 221v534q0 30 -34 61
q-41 36 -101 36t-100 -36q-33 -31 -33 -61v-534q0 -31 33 -62q40 -36 100 -36t101 37q34 30 34 61z" />
    <glyph glyph-name="seven" unicode="7" horiz-adv-x="596" 
d="M547 1074l-278 -1342h-159l268 1288h-349v141h442q30 0 53 -23t23 -48v-16z" />
    <glyph glyph-name="eight" unicode="8" horiz-adv-x="678" 
d="M625 221q0 -103 -82.5 -172t-204.5 -69t-203.5 68.5t-81.5 172.5v450q0 104 78 169q-78 68 -78 172v201q0 103 81.5 172t203.5 69t204.5 -69t82.5 -172v-201q0 -103 -82 -172q82 -67 82 -169v-450zM473 1012v201q0 30 -34 61q-41 37 -101 37t-100 -37q-33 -30 -33 -61
v-201q0 -32 33 -64q41 -38 100 -38q60 0 101 38q34 33 34 64zM473 221v450q0 30 -34 61q-41 37 -101 37t-100 -37q-33 -30 -33 -61v-450q0 -31 33 -62q40 -36 100 -36t101 37q34 30 34 61z" />
    <glyph glyph-name="nine" unicode="9" horiz-adv-x="678" 
d="M625 -48q0 -103 -82.5 -172t-204.5 -69t-203.5 69t-81.5 172v104h152v-104q0 -30 33 -61q40 -36 100 -36t101 36q34 31 34 61v244q-65 -28 -135 -28q-122 0 -203.5 69.5t-81.5 173.5v530q0 103 81.5 172t203.5 69t204.5 -69t82.5 -172v-989zM473 411v530q0 30 -34 61
q-41 36 -101 36t-100 -36q-33 -31 -33 -61v-530q0 -31 33 -62q40 -36 100 -36t101 37q34 30 34 61z" />
    <glyph glyph-name="colon" unicode=":" horiz-adv-x="272" 
d="M211 295h-150v145h150v-145zM211 0h-150v147h150v-147z" />
    <glyph glyph-name="semicolon" unicode=";" horiz-adv-x="272" 
d="M211 295h-150v147h150v-147zM211 -6l-100 -107v113h-50v150h150v-156z" />
    <glyph glyph-name="less" unicode="&#x3c;" horiz-adv-x="1706" 
d="M1442 63l-1178 484v129l1178 483v-153l-969 -396l969 -393v-154z" />
    <glyph glyph-name="equal" unicode="=" horiz-adv-x="1706" 
d="M1452 739h-1198v140h1198v-140zM1452 342h-1198v139h1198v-139z" />
    <glyph glyph-name="greater" unicode="&#x3e;" horiz-adv-x="1706" 
d="M1442 547l-1178 -484v154l971 393l-971 396v153l1178 -483v-129z" />
    <glyph glyph-name="question" unicode="?" horiz-adv-x="543" 
d="M489 1202q0 -233 -107 -482q-71 -164 -85.5 -233t-14.5 -241h-151v21q0 260 113 521q85 196 85 414q0 36 -18.5 60t-40.5 24q-21 0 -38.5 -23.5t-17.5 -60.5v-123h-161v123q0 97 58 171q63 81 159 81q97 0 161 -81q58 -74 58 -171zM281 0h-150v143h150v-143z" />
    <glyph glyph-name="at" unicode="@" horiz-adv-x="2048" 
d="M1944 780q0 -354 -248 -551q-142 -112 -316 -112q-200 0 -200 157v19q-108 -174 -301 -174q-152 0 -233 85t-81 247q0 237 137 395t340 158q170 0 242 -150l57 115h132l-146 -576q-8 -32 -8 -59q0 -47 25.5 -70.5t74.5 -23.5q101 0 209 102q170 161 170 420
q0 278 -211 437q-192 144 -479 144q-264 0 -457 -114.5t-297 -299t-104 -409.5q0 -345 254 -538q209 -160 524 -160q345 0 621 190l55 -82q-150 -112 -315 -167.5t-349 -55.5q-385 0 -628 187q-306 233 -306 628q0 334 203 582q297 362 807 362q340 0 563 -172
q265 -203 265 -514zM1249 711q-17 88 -68.5 136t-129.5 48q-156 0 -248 -153q-78 -129 -78 -296q0 -219 186 -219q102 0 181 75q72 69 98 173z" />
    <glyph glyph-name="A" unicode="A" horiz-adv-x="625" 
d="M605 0h-154l-38 241h-201l-39 -241h-154l221 1403q8 51 71 51q66 0 74 -51zM392 382l-81 529l-78 -529h159z" />
    <glyph glyph-name="B" unicode="B" horiz-adv-x="688" 
d="M645 255q0 -255 -270 -255h-228q-30 0 -51.5 23.5t-21.5 48.5v1290q0 25 21.5 48.5t51.5 23.5h203q271 0 271 -255q0 -192 -138 -406q162 -233 162 -518zM469 1179q0 57 -16 79q-25 34 -103 34h-125v-608q244 281 244 495zM494 255q0 193 -109 382q-79 -97 -160 -172
v-322h150q78 0 103 34q16 21 16 78z" />
    <glyph glyph-name="C" unicode="C" horiz-adv-x="657" 
d="M625 221q0 -104 -82.5 -172.5t-204.5 -68.5t-203.5 68.5t-81.5 172.5v992q0 103 81.5 172t203.5 69t204.5 -69t82.5 -172v-112h-152v112q0 31 -34 62q-41 38 -101 38t-100 -38q-33 -31 -33 -62v-992q0 -31 33 -62q40 -36 100 -36t101 37q34 30 34 61v103h152v-103z" />
    <glyph glyph-name="D" unicode="D" horiz-adv-x="688" 
d="M645 779q0 -417 -229 -640q-45 -44 -117 -92q-98 -67 -152 -67q-30 0 -51.5 23t-21.5 48v1331q0 26 21.5 49t51.5 23q132 0 262 -89q236 -162 236 -586zM494 779q0 158 -48 284q-69 179 -221 231v-1120q145 99 214 287q55 147 55 318z" />
    <glyph glyph-name="E" unicode="E" horiz-adv-x="645" 
d="M592 0h-442q-31 0 -53.5 23t-22.5 49v1290q0 25 22.5 48.5t53.5 23.5h434v-142h-359v-314h359v-144h-359v-691h367v-143z" />
    <glyph glyph-name="F" unicode="F" horiz-adv-x="625" 
d="M592 834h-367v-834h-151v1362q0 25 22.5 48.5t53.5 23.5h442v-142h-367v-314h367v-144z" />
    <glyph glyph-name="G" unicode="G" horiz-adv-x="678" 
d="M625 221q0 -104 -82.5 -172.5t-204.5 -68.5t-203.5 68.5t-81.5 172.5v992q0 103 81.5 172t203.5 69t204.5 -69t82.5 -172v-112h-152v112q0 31 -34 62q-41 38 -101 38t-100 -38q-33 -31 -33 -62v-992q0 -31 33 -62q40 -36 100 -36t101 37q34 30 34 61v318h-176v146h252
q30 0 53 -23.5t23 -48.5v-392z" />
    <glyph glyph-name="H" unicode="H" horiz-adv-x="719" 
d="M645 0h-151v239h-269v-239h-151v1434h151v-1052h269v1052h151v-1434z" />
    <glyph glyph-name="I" unicode="I" horiz-adv-x="299" 
d="M225 0h-151v1434h151v-1434z" />
    <glyph glyph-name="J" unicode="J" horiz-adv-x="657" 
d="M604 221q0 -104 -82 -172.5t-205 -68.5q-122 0 -203 68.5t-81 172.5v406h151v-406q0 -31 34 -62q39 -36 99 -36q61 0 102 36q34 31 34 62v1213h151v-1213z" />
    <glyph glyph-name="K" unicode="K" horiz-adv-x="659" 
d="M643 0h-155l-173 616l-90 -245v-371h-151v1434h151v-670l252 670h152l-220 -597z" />
    <glyph glyph-name="L" unicode="L" horiz-adv-x="604" 
d="M592 0h-442q-31 0 -53.5 23t-22.5 49v1362h151v-1291h367v-143z" />
    <glyph glyph-name="M" unicode="M" horiz-adv-x="829" 
d="M756 0h-154v897l-115 -389q-15 -48 -73 -48q-59 0 -73 48l-116 389v-897h-151v1382q0 25 21.5 48.5t51.5 23.5q60 0 73 -44l194 -638l193 638q13 44 71 44q30 0 54 -23t24 -49v-1382z" />
    <glyph glyph-name="N" unicode="N" horiz-adv-x="719" 
d="M645 0h-151v289l-269 701v-990h-151v1434h143l277 -717v717h151v-1434z" />
    <glyph glyph-name="O" unicode="O" horiz-adv-x="678" 
d="M625 221q0 -104 -82.5 -172.5t-204.5 -68.5t-203.5 68.5t-81.5 172.5v992q0 103 81.5 172t203.5 69t204.5 -69t82.5 -172v-992zM473 221v992q0 31 -34 62q-41 38 -101 38t-100 -38q-33 -31 -33 -62v-992q0 -31 33 -62q40 -36 100 -36t101 37q34 30 34 61z" />
    <glyph glyph-name="P" unicode="P" horiz-adv-x="668" 
d="M645 1179q0 -187 -141 -450q-112 -207 -279 -408v-321h-151v1434h291q280 0 280 -255zM494 1179q0 58 -19 80q-27 33 -110 33h-140v-715q269 383 269 602z" />
    <glyph glyph-name="Q" unicode="Q" horiz-adv-x="678" 
d="M625 219q0 -102 -80 -170l72 -123h-171l-40 58q-29 -6 -68 -6q-122 0 -203.5 69t-81.5 172v994q0 103 81.5 172t203.5 69t204.5 -69t82.5 -172v-994zM473 219v994q0 30 -34 61q-41 36 -101 36t-100 -36q-33 -30 -33 -61v-994q0 -30 33 -61q40 -36 100 -36t101 36
q34 31 34 61z" />
    <glyph glyph-name="R" unicode="R" horiz-adv-x="676" 
d="M660 0h-161l-148 486q-60 -85 -126 -165v-321h-151v1434h291q282 0 282 -255q0 -214 -187 -525zM496 1179q0 57 -20 80q-28 33 -111 33h-140v-715q271 385 271 602z" />
    <glyph glyph-name="S" unicode="S" horiz-adv-x="647" 
d="M604 241q0 -106 -81 -182q-83 -79 -206 -79q-122 0 -203 68.5t-81 172.5v103h151v-103q0 -31 34 -62q39 -36 99 -36q58 0 100 45q36 38 36 73q0 167 -109 327q-101 135 -202 269q-109 169 -109 356q0 105 80 181q83 80 204 80q123 0 205 -69t82 -172v-112h-151v112
q0 31 -35 62q-40 38 -101 38q-57 0 -98 -46q-35 -39 -35 -74q0 -159 109 -311l202 -264q109 -172 109 -377z" />
    <glyph glyph-name="T" unicode="T" horiz-adv-x="524" 
d="M522 1292h-186v-1292h-148v1292h-186v142h520v-142z" />
    <glyph glyph-name="U" unicode="U" horiz-adv-x="698" 
d="M635 221q0 -104 -82.5 -172.5t-204.5 -68.5t-203.5 68.5t-81.5 172.5v1213h152v-1213q0 -31 33 -62q40 -36 100 -36q61 0 101 36q34 31 34 62v1213h152v-1213z" />
    <glyph glyph-name="V" unicode="V" horiz-adv-x="625" 
d="M605 1434l-218 -1402q-8 -52 -76 -52q-65 0 -73 52l-219 1402h154l138 -895l140 895h154z" />
    <glyph glyph-name="W" unicode="W" horiz-adv-x="823" 
d="M782 1434l-119 -1394q-5 -60 -71 -60q-67 0 -76 52l-104 645l-105 -645q-9 -52 -76 -52q-68 0 -73 60l-117 1394h152l64 -796l81 496q9 53 74 53q64 0 73 -53l81 -496l64 796h152z" />
    <glyph glyph-name="X" unicode="X" horiz-adv-x="633" 
d="M617 0h-159l-141 474l-142 -474h-160l222 717l-222 717h160l142 -474l141 474h159l-221 -717z" />
    <glyph glyph-name="Y" unicode="Y" horiz-adv-x="588" 
d="M591 1434l-222 -958v-476h-150v476l-222 958h157l139 -622l141 622h157z" />
    <glyph glyph-name="Z" unicode="Z" horiz-adv-x="600" 
d="M588 1358q0 -13 -3 -22l-391 -1193h338v-143h-446q-32 0 -53 22t-21 52q0 10 5 26l389 1192h-338v142h444q32 0 54 -23t22 -53z" />
    <glyph glyph-name="bracketleft" unicode="[" horiz-adv-x="532" 
d="M500 -119h-330q-30 0 -53 23.5t-23 48.5v1411q0 25 23 47.5t53 22.5h324v-144h-248v-1263h254v-146z" />
    <glyph glyph-name="backslash" unicode="\" horiz-adv-x="586" 
d="M516 9l-153 -19l-293 1437l153 17z" />
    <glyph glyph-name="bracketright" unicode="]" horiz-adv-x="532" 
d="M438 -47q0 -25 -22.5 -48.5t-53.5 -23.5h-329v146h256v1263h-248v144h321q31 0 53.5 -22.5t22.5 -47.5v-1411z" />
    <glyph glyph-name="asciicircum" unicode="^" horiz-adv-x="2048" 
d="M1626 901h-180l-422 420l-424 -420h-180l510 557h186z" />
    <glyph glyph-name="underscore" unicode="_" 
d="M1024 -483h-1024v143h1024v-143z" />
    <glyph glyph-name="grave" unicode="`" 
d="M600 1378l-68 -65l-108 114l68 66z" />
    <glyph glyph-name="a" unicode="a" horiz-adv-x="567" 
d="M548 0h-150l-31 206h-165l-28 -206h-155l192 1225q8 53 74 53q63 0 71 -53zM343 347l-59 436l-60 -436h119z" />
    <glyph glyph-name="b" unicode="b" horiz-adv-x="618" 
d="M586 230q0 -230 -240 -230h-199q-30 0 -51.5 23.5t-21.5 47.5v1115q0 25 21.5 48t51.5 23h175q245 0 245 -228q0 -164 -119 -350q138 -202 138 -449zM416 1029q0 45 -12 61q-20 27 -82 27h-99v-489q193 230 193 401zM438 230q0 155 -87 312q-60 -74 -128 -136v-263h123
q92 0 92 87z" />
    <glyph glyph-name="c" unicode="c" horiz-adv-x="598" 
d="M565 198q0 -94 -72 -156t-182 -62t-184 62t-74 156v862q0 94 74 156t184 62t182 -62t72 -156v-100h-147v100q0 21 -26 45q-33 30 -81 30t-81 -30q-27 -24 -27 -45v-862q0 -21 27 -45q33 -29 81 -29q49 0 81 29q26 23 26 45v91h147v-91z" />
    <glyph glyph-name="d" unicode="d" horiz-adv-x="618" 
d="M586 680q0 -439 -283 -631q-102 -69 -156 -69q-30 0 -51.5 23t-21.5 48v1155q0 26 21.5 49t51.5 23q114 0 233 -81q206 -139 206 -517zM438 680q0 131 -39 237q-55 152 -176 200v-940q215 162 215 503z" />
    <glyph glyph-name="e" unicode="e" horiz-adv-x="588" 
d="M535 0h-388q-30 0 -51.5 23.5t-21.5 47.5v1115q0 25 21.5 48t51.5 23h383v-140h-307v-252h307v-143h-307v-579h312v-143z" />
    <glyph glyph-name="f" unicode="f" horiz-adv-x="567" 
d="M535 722h-312v-722h-149v1186q0 25 21.5 48t51.5 23h388v-140h-312v-252h312v-143z" />
    <glyph glyph-name="g" unicode="g" horiz-adv-x="618" 
d="M565 198q0 -94 -72 -156t-182 -62t-184 62t-74 156v862q0 94 74 156t184 62t182 -62t72 -156v-100h-147v100q0 21 -26 45q-33 30 -81 30t-81 -30q-27 -24 -27 -45v-862q0 -21 27 -45q33 -29 81 -29q49 0 81 29q26 23 26 45v268h-146v145h220q30 0 53 -24q20 -23 20 -48
v-341z" />
    <glyph glyph-name="h" unicode="h" horiz-adv-x="659" 
d="M586 0h-148v206h-215v-206h-149v1257h149v-910h215v910h148v-1257z" />
    <glyph glyph-name="i" unicode="i" horiz-adv-x="297" 
d="M223 0h-149v1257h149v-1257z" />
    <glyph glyph-name="j" unicode="j" horiz-adv-x="588" 
d="M535 198q0 -94 -72.5 -156t-181.5 -62q-110 0 -184 62t-74 156v355h149v-355q0 -21 27 -45q33 -29 82 -29q48 0 80 29q26 23 26 45v1059h148v-1059z" />
    <glyph glyph-name="k" unicode="k" horiz-adv-x="610" 
d="M605 0h-154l-146 503l-80 -207v-296h-151v1257h151v-577l226 577h152l-209 -538z" />
    <glyph glyph-name="l" unicode="l" horiz-adv-x="547" 
d="M535 0h-388q-30 0 -51.5 23t-21.5 48v1186h149v-1114h312v-143z" />
    <glyph glyph-name="m" unicode="m" horiz-adv-x="756" 
d="M682 0h-150v721q-20 -77 -55 -198q-35 -104 -100 -104q-57 0 -71 46l-83 264v-729h-149v1207q0 24 21.5 47.5t51.5 23.5q58 0 71 -44l159 -523l160 523q14 44 69 44q31 0 53.5 -23t22.5 -48v-1207z" />
    <glyph glyph-name="n" unicode="n" horiz-adv-x="659" 
d="M586 0h-148v258l-215 582v-840h-149v1257h143l221 -597v597h148v-1257z" />
    <glyph glyph-name="o" unicode="o" horiz-adv-x="618" 
d="M565 198q0 -94 -72 -156t-182 -62t-184 62t-74 156v862q0 94 74 156t184 62t182 -62t72 -156v-862zM418 198v862q0 22 -26 46q-33 29 -81 29t-81 -30q-27 -24 -27 -45v-862q0 -21 27 -45q33 -29 81 -29q49 0 81 29q26 23 26 45z" />
    <glyph glyph-name="p" unicode="p" horiz-adv-x="608" 
d="M586 1029q0 -164 -122 -393q-97 -182 -241 -355v-281h-149v1186q0 25 21.5 48t51.5 23h189q250 0 250 -228zM438 1029q0 46 -13 62q-21 26 -89 26h-113v-579q215 315 215 491z" />
    <glyph glyph-name="q" unicode="q" horiz-adv-x="629" 
d="M589 -72h-171l-35 57q-32 -7 -70 -7q-110 0 -185 62.5t-75 156.5v862q0 94 75 156.5t185 62.5t182 -62t72 -157v-862q0 -84 -50 -139zM420 197v862q0 23 -27 47q-32 31 -80 31t-81 -31q-27 -25 -27 -47v-862q0 -22 27 -46q33 -30 81 -30t81 30q26 24 26 46z" />
    <glyph glyph-name="r" unicode="r" horiz-adv-x="618" 
d="M603 0h-157l-126 407q-48 -67 -97 -126v-281h-149v1186q0 25 21.5 48t51.5 23h189q252 0 252 -228q0 -190 -158 -454zM438 1029q0 46 -13 62q-21 26 -89 26h-113v-579q215 315 215 491z" />
    <glyph glyph-name="s" unicode="s" horiz-adv-x="567" 
d="M535 208q0 -98 -64 -161q-68 -67 -190 -67q-110 0 -184 62t-74 156v91h149v-91q0 -21 27 -45q33 -29 82 -29q53 0 83 33q23 24 23 51q0 115 -56 222q-32 61 -122.5 176t-126.5 185q-59 116 -59 259q0 96 68 160q72 68 190 68q109 0 181.5 -62t72.5 -156v-100h-148v100
q0 21 -26 45q-32 30 -80 30q-52 0 -84 -33q-25 -27 -25 -52q0 -104 54 -203q32 -59 122.5 -172.5t126.5 -189.5q60 -125 60 -277z" />
    <glyph glyph-name="t" unicode="t" horiz-adv-x="467" 
d="M465 1117h-154v-1117h-153v1117h-156v140h463v-140z" />
    <glyph glyph-name="u" unicode="u" horiz-adv-x="639" 
d="M575 198q0 -94 -72 -156t-181 -62q-110 0 -184.5 62t-74.5 156v1059h150v-1059q0 -21 27 -45q33 -29 82 -29q48 0 80 29q26 23 26 45v1059h147v-1059z" />
    <glyph glyph-name="v" unicode="v" horiz-adv-x="567" 
d="M548 1257l-190 -1225q-8 -52 -73 -52q-68 0 -76 52l-190 1225h154l112 -770l113 770h150z" />
    <glyph glyph-name="w" unicode="w" horiz-adv-x="725" 
d="M694 1257l-102 -1218q-5 -59 -74 -59q-65 0 -73 52l-83 519l-82 -519q-8 -52 -73 -52q-69 0 -74 59l-102 1218h152l51 -641l55 337q9 52 73 52q65 0 74 -52l57 -340l51 644h150z" />
    <glyph glyph-name="x" unicode="x" horiz-adv-x="582" 
d="M566 0h-162l-113 404l-118 -404h-157l192 629l-192 628h157l118 -403l113 403h162l-196 -628z" />
    <glyph glyph-name="y" unicode="y" horiz-adv-x="573" 
d="M556 1257l-196 -839v-418h-149v418l-194 839h155l115 -538l114 538h155z" />
    <glyph glyph-name="z" unicode="z" horiz-adv-x="563" 
d="M541 1180q0 -11 -3 -20l-334 -1017h283v-143h-389q-75 0 -75 69q0 15 5 30l341 1018h-291v140h391q32 0 52 -24.5t20 -52.5z" />
    <glyph glyph-name="braceleft" unicode="{" 
d="M866 -414h-43q-115 0 -170.5 10.5t-101.5 38.5q-68 43 -89 138q-11 51 -11 170v245q0 150 -54.5 210.5t-185.5 60.5h-21q-29 -2 -22 -2v149q-8 0 22 -2h23q131 0 184.5 59.5t53.5 208.5v246q0 118 11 170q21 95 89 137q82 52 278 52h37v-150h-41q-125 0 -167 -52
q-35 -46 -35 -177v-242q0 -141 -35 -208q-44 -85 -166 -118q125 -31 168 -116q33 -64 33 -209v-242q0 -141 41.5 -185t162.5 -44h39v-148z" />
    <glyph glyph-name="bar" unicode="|" 
d="M588 -483h-150v2048h150v-2048z" />
    <glyph glyph-name="braceright" unicode="}" 
d="M858 457q8 0 -22 2h-21q-139 0 -192 -67q-48 -60 -48 -204v-245q0 -119 -11 -170q-21 -95 -89 -138q-45 -28 -101 -38.5t-171 -10.5h-43v148h39q125 0 167 53q37 47 37 178v240q0 158 45.5 227.5t155.5 97.5q-122 33 -166 118q-35 67 -35 208v242q0 130 -37 176
q-42 53 -167 53h-39v150h37q196 0 278 -52q68 -42 89 -137q11 -52 11 -170v-246q0 -149 53.5 -208.5t184.5 -59.5h23q30 2 22 2v-149z" />
    <glyph glyph-name="asciitilde" unicode="~" horiz-adv-x="1706" 
d="M1530 614q-204 -141 -389 -141q-96 0 -256 57q-13 5 -33 13l-16 6q-159 59 -273 59q-85 0 -176 -37q-85 -34 -209 -120v155q107 73 203 109q93 35 184 35q68 0 126.5 -12.5t164.5 -49.5q13 -4 47 -16q158 -58 240 -58q167 0 387 156v-156z" />
    <glyph glyph-name="Adieresis" unicode="&#xc4;" horiz-adv-x="625" 
d="M605 0h-154l-38 241h-201l-39 -241h-154l221 1403q8 51 71 51q66 0 74 -51zM392 382l-81 529l-78 -529h159zM451 1555q0 -48 -57 -48q-55 0 -55 48q0 47 57 47q55 0 55 -47zM303 1555q0 -48 -55 -48t-55 48q0 47 57 47q53 0 53 -47z" />
    <glyph glyph-name="Aring" unicode="&#xc5;" horiz-adv-x="625" 
d="M605 0h-154l-38 241h-201l-39 -241h-154l221 1403q1 10 5 18q-40 35 -40 88q0 47 33.5 78t78.5 31q47 0 79 -34.5t32 -80.5q0 -56 -46 -88q2 -5 3 -12zM365 1503q0 49 -50 49q-45 0 -45 -43q0 -49 41 -49q54 0 54 43zM392 382l-81 529l-78 -529h159z" />
    <glyph glyph-name="Ccedilla" unicode="&#xc7;" horiz-adv-x="657" 
d="M625 221q0 -92 -66.5 -158t-170.5 -80l-11 -42q92 -24 92 -99q0 -43 -32 -75q-42 -43 -126 -43q-40 0 -112 26l28 90q58 -20 88 -20q56 0 56 24q0 21 -56 21q-49 0 -49 49q0 19 16 70q-101 15 -165 80.5t-64 156.5v992q0 103 81.5 172t203.5 69t204.5 -69t82.5 -172v-112
h-152v112q0 31 -34 62q-41 38 -101 38t-100 -38q-33 -31 -33 -62v-992q0 -31 33 -62q40 -36 100 -36t101 37q34 30 34 61v103h152v-103z" />
    <glyph glyph-name="Eacute" unicode="&#xc9;" horiz-adv-x="645" 
d="M592 0h-442q-31 0 -53.5 23t-22.5 49v1290q0 25 22.5 48.5t53.5 23.5h434v-142h-359v-314h359v-144h-359v-691h367v-143zM436 1591l-108 -114l-68 65l108 115z" />
    <glyph glyph-name="Ntilde" unicode="&#xd1;" horiz-adv-x="719" 
d="M645 0h-151v289l-269 701v-990h-151v1434h143l277 -717v717h151v-1434zM551 1583q-38 -80 -129 -80q-37 0 -85.5 22.5t-62.5 22.5q-21 0 -37 -26l-92 37q40 80 131 80q37 0 85.5 -22.5t62.5 -22.5q21 0 35 24z" />
    <glyph glyph-name="Odieresis" unicode="&#xd6;" horiz-adv-x="678" 
d="M625 221q0 -104 -82.5 -172.5t-204.5 -68.5t-203.5 68.5t-81.5 172.5v992q0 103 81.5 172t203.5 69t204.5 -69t82.5 -172v-992zM473 221v992q0 31 -34 62q-41 38 -101 38t-100 -38q-33 -31 -33 -62v-992q0 -31 33 -62q40 -36 100 -36t101 37q34 30 34 61zM446 1555
q0 -48 -57 -48q-55 0 -55 48q0 47 57 47q55 0 55 -47zM298 1555q0 -48 -55 -48t-55 48q0 47 57 47q53 0 53 -47z" />
    <glyph glyph-name="Udieresis" unicode="&#xdc;" horiz-adv-x="698" 
d="M635 221q0 -104 -82.5 -172.5t-204.5 -68.5t-203.5 68.5t-81.5 172.5v1213h152v-1213q0 -31 33 -62q40 -36 100 -36q61 0 101 36q34 31 34 62v1213h152v-1213zM469 1555q0 -48 -57 -48q-55 0 -55 48q0 47 57 47q55 0 55 -47zM321 1555q0 -48 -55 -48t-55 48q0 47 57 47
q53 0 53 -47z" />
    <glyph glyph-name="aacute" unicode="&#xe1;" horiz-adv-x="567" 
d="M548 0h-150l-31 206h-165l-28 -206h-155l192 1225q8 53 74 53q63 0 71 -53zM343 347l-59 436l-60 -436h119zM375 1427l-108 -114l-68 65l108 115z" />
    <glyph glyph-name="agrave" unicode="&#xe0;" horiz-adv-x="567" 
d="M548 0h-150l-31 206h-165l-28 -206h-155l192 1225q8 53 74 53q63 0 71 -53zM343 347l-59 436l-60 -436h119zM334 1378l-68 -65l-108 114l68 66z" />
    <glyph glyph-name="acircumflex" unicode="&#xe2;" horiz-adv-x="567" 
d="M548 0h-150l-31 206h-165l-28 -206h-155l192 1225q8 53 74 53q63 0 71 -53zM343 347l-59 436l-60 -436h119zM467 1395l-51 -80l-129 74l-131 -74l-49 80l153 86q11 6 27 6t27 -6z" />
    <glyph glyph-name="adieresis" unicode="&#xe4;" horiz-adv-x="567" 
d="M548 0h-150l-31 206h-165l-28 -206h-155l192 1225q8 53 74 53q63 0 71 -53zM343 347l-59 436l-60 -436h119zM416 1391q0 -48 -57 -48q-55 0 -55 48q0 47 57 47q55 0 55 -47zM268 1391q0 -48 -55 -48t-55 48q0 47 57 47q53 0 53 -47z" />
    <glyph glyph-name="atilde" unicode="&#xe3;" horiz-adv-x="567" 
d="M548 0h-150l-31 206h-165l-28 -206h-155l192 1225q8 53 74 53q63 0 71 -53zM343 347l-59 436l-60 -436h119zM494 1419q-38 -80 -129 -80q-37 0 -85.5 22.5t-62.5 22.5q-21 0 -37 -26l-92 37q40 80 131 80q37 0 85.5 -22.5t62.5 -22.5q21 0 35 24z" />
    <glyph glyph-name="aring" unicode="&#xe5;" horiz-adv-x="567" 
d="M386 1432q0 -46 -33.5 -77t-79.5 -31q-47 0 -78.5 34t-31.5 80q0 47 33 78t79 31q47 0 79 -34.5t32 -80.5zM536 0h-150l-31 206h-165l-29 -206h-154l192 1225q8 53 73 53q64 0 72 -53zM322 1432q0 49 -49 49q-45 0 -45 -43q0 -49 41 -49q53 0 53 43zM331 347l-59 436
l-60 -436h119z" />
    <glyph glyph-name="ccedilla" unicode="&#xe7;" horiz-adv-x="598" 
d="M565 198q0 -84 -58 -143t-150 -72l-11 -42q92 -24 92 -99q0 -43 -31 -75q-42 -43 -126 -43q-41 0 -113 26l29 90q57 -20 88 -20q55 0 55 24q0 21 -55 21q-49 0 -49 49q0 19 16 71q-88 16 -143.5 74.5t-55.5 138.5v862q0 94 74 156t184 62t182 -62t72 -156v-100h-147v100
q0 21 -26 45q-33 30 -81 30t-81 -30q-27 -24 -27 -45v-862q0 -21 27 -45q33 -29 81 -29q49 0 81 29q26 23 26 45v91h147v-91z" />
    <glyph glyph-name="eacute" unicode="&#xe9;" horiz-adv-x="588" 
d="M535 0h-388q-30 0 -51.5 23.5t-21.5 47.5v1115q0 25 21.5 48t51.5 23h383v-140h-307v-252h307v-143h-307v-579h312v-143zM416 1427l-108 -114l-68 65l108 115z" />
    <glyph glyph-name="egrave" unicode="&#xe8;" horiz-adv-x="588" 
d="M535 0h-388q-30 0 -51.5 23.5t-21.5 47.5v1115q0 25 21.5 48t51.5 23h383v-140h-307v-252h307v-143h-307v-579h312v-143zM375 1378l-68 -65l-108 114l68 66z" />
    <glyph glyph-name="ecircumflex" unicode="&#xea;" horiz-adv-x="588" 
d="M535 0h-388q-30 0 -51.5 23.5t-21.5 47.5v1115q0 25 21.5 48t51.5 23h383v-140h-307v-252h307v-143h-307v-579h312v-143zM483 1395l-51 -80l-129 74l-131 -74l-49 80l153 86q11 6 27 6t27 -6z" />
    <glyph glyph-name="edieresis" unicode="&#xeb;" horiz-adv-x="588" 
d="M535 0h-388q-30 0 -51.5 23.5t-21.5 47.5v1115q0 25 21.5 48t51.5 23h383v-140h-307v-252h307v-143h-307v-579h312v-143zM432 1391q0 -48 -57 -48q-55 0 -55 48q0 47 57 47q55 0 55 -47zM284 1391q0 -48 -55 -48t-55 48q0 47 57 47q53 0 53 -47z" />
    <glyph glyph-name="iacute" unicode="&#xed;" horiz-adv-x="297" 
d="M223 0h-149v1257h149v-1257zM252 1427l-108 -114l-68 65l108 115z" />
    <glyph glyph-name="igrave" unicode="&#xec;" horiz-adv-x="297" 
d="M223 0h-149v1257h149v-1257zM211 1378l-68 -65l-108 114l68 66z" />
    <glyph glyph-name="icircumflex" unicode="&#xee;" horiz-adv-x="297" 
d="M223 0h-149v1257h149v-1257zM332 1395l-51 -80l-129 74l-131 -74l-49 80l153 86q11 6 27 6t27 -6z" />
    <glyph glyph-name="idieresis" unicode="&#xef;" horiz-adv-x="297" 
d="M223 0h-149v1257h149v-1257zM285 1391q0 -48 -57 -48q-55 0 -55 48q0 47 57 47q55 0 55 -47zM137 1391q0 -48 -55 -48t-55 48q0 47 57 47q53 0 53 -47z" />
    <glyph glyph-name="ntilde" unicode="&#xf1;" horiz-adv-x="659" 
d="M586 0h-148v258l-215 582v-840h-149v1257h143l221 -597v597h148v-1257zM520 1419q-38 -80 -129 -80q-37 0 -85.5 22.5t-62.5 22.5q-21 0 -37 -26l-92 37q40 80 131 80q37 0 85.5 -22.5t62.5 -22.5q21 0 35 24z" />
    <glyph glyph-name="oacute" unicode="&#xf3;" horiz-adv-x="618" 
d="M565 198q0 -94 -72 -156t-182 -62t-184 62t-74 156v862q0 94 74 156t184 62t182 -62t72 -156v-862zM418 198v862q0 22 -26 46q-33 29 -81 29t-81 -30q-27 -24 -27 -45v-862q0 -21 27 -45q33 -29 81 -29q49 0 81 29q26 23 26 45zM395 1427l-108 -114l-68 65l108 115z" />
    <glyph glyph-name="ograve" unicode="&#xf2;" horiz-adv-x="618" 
d="M565 198q0 -94 -72 -156t-182 -62t-184 62t-74 156v862q0 94 74 156t184 62t182 -62t72 -156v-862zM418 198v862q0 22 -26 46q-33 29 -81 29t-81 -30q-27 -24 -27 -45v-862q0 -21 27 -45q33 -29 81 -29q49 0 81 29q26 23 26 45zM375 1378l-68 -65l-108 114l68 66z" />
    <glyph glyph-name="ocircumflex" unicode="&#xf4;" horiz-adv-x="618" 
d="M565 198q0 -94 -72 -156t-182 -62t-184 62t-74 156v862q0 94 74 156t184 62t182 -62t72 -156v-862zM418 198v862q0 22 -26 46q-33 29 -81 29t-81 -30q-27 -24 -27 -45v-862q0 -21 27 -45q33 -29 81 -29q49 0 81 29q26 23 26 45zM495 1395l-51 -80l-129 74l-131 -74
l-49 80l153 86q11 6 27 6t27 -6z" />
    <glyph glyph-name="odieresis" unicode="&#xf6;" horiz-adv-x="618" 
d="M565 198q0 -94 -72 -156t-182 -62t-184 62t-74 156v862q0 94 74 156t184 62t182 -62t72 -156v-862zM418 198v862q0 22 -26 46q-33 29 -81 29t-81 -30q-27 -24 -27 -45v-862q0 -21 27 -45q33 -29 81 -29q49 0 81 29q26 23 26 45zM430 1391q0 -48 -57 -48q-55 0 -55 48
q0 47 57 47q55 0 55 -47zM282 1391q0 -48 -55 -48t-55 48q0 47 57 47q53 0 53 -47z" />
    <glyph glyph-name="otilde" unicode="&#xf5;" horiz-adv-x="618" 
d="M565 198q0 -94 -72 -156t-182 -62t-184 62t-74 156v862q0 94 74 156t184 62t182 -62t72 -156v-862zM418 198v862q0 22 -26 46q-33 29 -81 29t-81 -30q-27 -24 -27 -45v-862q0 -21 27 -45q33 -29 81 -29q49 0 81 29q26 23 26 45zM516 1419q-38 -80 -129 -80
q-37 0 -85.5 22.5t-62.5 22.5q-21 0 -37 -26l-92 37q40 80 131 80q37 0 85.5 -22.5t62.5 -22.5q21 0 35 24z" />
    <glyph glyph-name="uacute" unicode="&#xfa;" horiz-adv-x="639" 
d="M575 198q0 -94 -72 -156t-181 -62q-110 0 -184.5 62t-74.5 156v1059h150v-1059q0 -21 27 -45q33 -29 82 -29q48 0 80 29q26 23 26 45v1059h147v-1059zM422 1427l-108 -114l-68 65l108 115z" />
    <glyph glyph-name="ugrave" unicode="&#xf9;" horiz-adv-x="639" 
d="M575 198q0 -94 -72 -156t-181 -62q-110 0 -184.5 62t-74.5 156v1059h150v-1059q0 -21 27 -45q33 -29 82 -29q48 0 80 29q26 23 26 45v1059h147v-1059zM375 1378l-68 -65l-108 114l68 66z" />
    <glyph glyph-name="ucircumflex" unicode="&#xfb;" horiz-adv-x="639" 
d="M575 198q0 -94 -72 -156t-181 -62q-110 0 -184.5 62t-74.5 156v1059h150v-1059q0 -21 27 -45q33 -29 82 -29q48 0 80 29q26 23 26 45v1059h147v-1059zM497 1395l-51 -80l-129 74l-131 -74l-49 80l153 86q11 6 27 6t27 -6z" />
    <glyph glyph-name="udieresis" unicode="&#xfc;" horiz-adv-x="639" 
d="M575 198q0 -94 -72 -156t-181 -62q-110 0 -184.5 62t-74.5 156v1059h150v-1059q0 -21 27 -45q33 -29 82 -29q48 0 80 29q26 23 26 45v1059h147v-1059zM444 1391q0 -48 -57 -48q-55 0 -55 48q0 47 57 47q55 0 55 -47zM296 1391q0 -48 -55 -48t-55 48q0 47 57 47
q53 0 53 -47z" />
    <glyph glyph-name="dagger" unicode="&#x2020;" 
d="M965 911h-367v-1128h-172v1128h-367v156h367v406h172v-406h367v-156z" />
    <glyph glyph-name="degree" unicode="&#xb0;" horiz-adv-x="674" 
d="M625 1167q0 -120 -84 -203t-205 -83t-204 83t-83 203q0 122 83.5 205.5t205.5 83.5q120 0 203.5 -84t83.5 -205zM530 1169q0 83 -55 138t-137 55t-138.5 -55.5t-56.5 -137.5q0 -81 57 -138.5t138 -57.5q82 0 137 57t55 139z" />
    <glyph glyph-name="cent" unicode="&#xa2;" horiz-adv-x="678" 
d="M625 311q0 -86 -58 -149t-153 -83v-79h-150v79q-95 20 -153 83t-58 149v540q0 85 58 148t153 84v80h150v-80q95 -21 153 -84t58 -148v-113h-152v81q0 82 -59 111v-700q47 23 57 81q2 14 2 102h152v-102zM264 232v697q-59 -32 -59 -78v-540q0 -47 59 -79z" />
    <glyph glyph-name="sterling" unicode="&#xa3;" horiz-adv-x="805" 
d="M752 0h-545q-31 0 -52.5 22t-21.5 47v390h-80v143h80v342q0 103 81.5 171.5t203.5 68.5t203 -68.5t81 -171.5v-111h-149v111q0 31 -34 62q-41 37 -101 37q-61 0 -102 -37q-35 -31 -35 -62v-342h292v-143h-292v-316h471v-143z" />
    <glyph glyph-name="section" unicode="&#xa7;" 
d="M944 614q0 -88 -51 -163.5t-133 -110.5q102 -87 102 -219q0 -137 -102 -227.5t-260 -90.5q-160 0 -255 91.5t-95 244.5h174v-4q0 -84 50 -130t142 -46q72 0 119 34q53 38 53 107q0 74 -81 139q-35 29 -144 89l-182 100q-201 111 -201 283q0 170 178 288q-92 79 -92 201
q0 142 98 230q94 83 238 83q157 0 249 -81q97 -85 97 -240v-10h-170q-4 80 -49 129q-48 51 -127 51q-73 0 -115.5 -37.5t-42.5 -101.5q0 -94 150 -174l247 -134q203 -108 203 -301zM760 596q0 57 -34 97t-144 102l-217 120q-107 -61 -107 -149q0 -69 59 -123q31 -28 119 -80
l221 -129q103 62 103 162z" />
    <glyph glyph-name="bullet" unicode="&#x2022;" horiz-adv-x="1208" 
d="M899 762q0 -122 -87.5 -209.5t-209.5 -87.5t-208.5 87.5t-86.5 209.5q0 124 86 209.5t211 85.5q124 0 209.5 -85.5t85.5 -209.5z" />
    <glyph glyph-name="paragraph" unicode="&#xb6;" 
d="M958 1393h-120v-1393h-111v1393h-176v-1393h-113v782q-169 8 -270.5 103.5t-101.5 244.5q0 155 108 252t285 97h499v-86z" />
    <glyph glyph-name="germandbls" unicode="&#xdf;" horiz-adv-x="1135" 
d="M535 208q0 -98 -64 -161q-68 -67 -190 -67q-110 0 -184 62t-74 156v91h149v-91q0 -21 27 -45q33 -29 82 -29q53 0 83 33q23 24 23 51q0 115 -56 222q-32 61 -122.5 176t-126.5 185q-59 116 -59 259q0 96 68 160q72 68 190 68q109 0 181.5 -62t72.5 -156v-100h-148v100
q0 21 -26 45q-32 30 -80 30q-52 0 -84 -33q-25 -27 -25 -52q0 -104 54 -203q32 -59 122.5 -172.5t126.5 -189.5q60 -125 60 -277zM1102 208q0 -98 -64 -161q-68 -67 -190 -67q-110 0 -184 62t-74 156v91h149v-91q0 -21 27 -45q33 -29 82 -29q53 0 83 33q23 24 23 51
q0 115 -56 222q-32 61 -122.5 176t-126.5 185q-59 116 -59 259q0 96 68 160q72 68 190 68q109 0 181.5 -62t72.5 -156v-100h-148v100q0 21 -26 45q-32 30 -80 30q-52 0 -84 -33q-25 -27 -25 -52q0 -104 54 -203q32 -59 122.5 -172.5t126.5 -189.5q60 -125 60 -277z" />
    <glyph glyph-name="registered" unicode="&#xae;" horiz-adv-x="1706" 
d="M1591 727q0 -309 -215 -518q-107 -104 -245 -161.5t-279 -57.5q-220 0 -407.5 127.5t-272.5 331.5q-55 133 -55 278q0 302 223 528q206 209 512 209q153 0 287 -55q280 -116 397 -401q55 -135 55 -281zM1493 721q0 133 -47 252q-97 243 -344 346q-118 49 -248 49
q-267 0 -446 -182q-94 -95 -144 -213q-51 -121 -51 -246q0 -123 49 -240q104 -247 346 -350q116 -49 240 -49q131 0 246 47q251 104 352 344q47 113 47 242zM1221 930q0 -188 -191 -225l187 -381h-177l-170 356h-155v-356h-158v835h315q173 0 261 -57.5t88 -171.5zM1059 913
q0 144 -215 144h-129v-277h133q211 0 211 133z" />
    <glyph glyph-name="copyright" unicode="&#xa9;" horiz-adv-x="1706" 
d="M1591 727q0 -146 -55.5 -281.5t-157.5 -234.5q-226 -221 -526 -221q-299 0 -517 218t-218 519q0 148 56 282.5t163 241.5q102 103 235.5 158t280.5 55q309 0 524 -215t215 -522zM1493 727q0 268 -184 453q-189 188 -455 188q-264 0 -448 -184q-193 -193 -193 -457
q0 -260 189.5 -449.5t451.5 -189.5q189 0 354.5 109.5t237.5 283.5q47 115 47 246zM1208 571q-9 -136 -116 -217q-99 -75 -240 -75q-180 0 -284.5 120.5t-104.5 333.5q0 191 101 313q108 132 294 132q143 0 237 -75t105 -196h-147q-27 160 -205 160q-123 0 -181 -116
q-44 -88 -44 -224q0 -157 61.5 -244.5t173.5 -87.5q175 0 205 176h145z" />
    <glyph glyph-name="trademark" unicode="&#x2122;" horiz-adv-x="1706" 
d="M1405 920h-98v444l-166 -444h-56l-174 444v-444h-98v538h150l151 -385l141 385h150v-538zM694 1378h-172v-458h-108v458h-172v80h452v-80z" />
    <glyph glyph-name="acute" unicode="&#xb4;" 
d="M600 1427l-108 -114l-68 65l108 115z" />
    <glyph glyph-name="dieresis" unicode="&#xa8;" 
d="M641 1391q0 -48 -57 -48q-55 0 -55 48q0 47 57 47q55 0 55 -47zM493 1391q0 -48 -55 -48t-55 48q0 47 57 47q53 0 53 -47z" />
    <glyph glyph-name="notequal" unicode="&#x2260;" horiz-adv-x="1706" 
d="M1452 344h-709l-249 -317l-105 84l184 233h-319v135h408l204 262h-612v136h702l252 317l105 -82l-187 -235h326v-136h-416l-205 -262h621v-135z" />
    <glyph glyph-name="AE" unicode="&#xc6;" horiz-adv-x="1040" 
d="M987 0h-444q-31 0 -52.5 23.5t-21.5 48.5v167h-239l-84 -239h-162l490 1397q40 37 69 37h434v-142h-359v-314h359v-144h-359v-691h369v-143zM469 382v536l-188 -536h188z" />
    <glyph glyph-name="Oslash" unicode="&#xd8;" horiz-adv-x="678" 
d="M625 220q0 -103 -82.5 -172t-204.5 -69q-33 0 -70 8l-3 -22l-154 21l14 70q-72 66 -72 164v993q0 104 81.5 173t203.5 69q39 0 75 -8l8 32l152 -19l-18 -86q70 -66 70 -161v-993zM384 1306q-23 7 -46 7q-60 0 -100 -37q-33 -31 -33 -63v-774zM473 220v759l-175 -850
q18 -4 40 -4q61 0 101 35q34 30 34 60z" />
    <glyph glyph-name="infinity" unicode="&#x221e;" horiz-adv-x="1706" 
d="M1487 614q0 -156 -71 -264q-81 -125 -230 -125q-175 0 -322 258q-136 -262 -321 -262q-137 0 -229.5 110.5t-92.5 278.5q0 156 71 265q82 126 230 126q182 0 320 -264q132 269 323 269q147 0 239 -126q83 -114 83 -266zM1411 621q0 95 -55 163q-59 72 -152 72
q-83 0 -148.5 -66.5t-140.5 -230.5q100 -178 267 -178q103 0 166 67.5t63 172.5zM793 666q-51 90 -115.5 133t-151.5 43q-104 0 -166.5 -66.5t-62.5 -171.5q0 -95 55 -163q59 -72 152 -72q100 0 181 104q48 61 108 193z" />
    <glyph glyph-name="plusminus" unicode="&#xb1;" horiz-adv-x="1706" 
d="M1452 713h-528v-340h-142v340h-528v139h528v340h142v-340h528v-139zM1452 29h-1198v141h1198v-141z" />
    <glyph glyph-name="lessequal" unicode="&#x2264;" horiz-adv-x="1706" 
d="M1444 295l-1182 395v121l1182 395v-147l-936 -309l936 -306v-149zM1446 23h-1184v139h1184v-139z" />
    <glyph glyph-name="greaterequal" unicode="&#x2265;" horiz-adv-x="1706" 
d="M1446 690l-1184 -395v149l938 306l-938 309v147l1184 -395v-121zM1446 23h-1184v139h1184v-139z" />
    <glyph glyph-name="yen" unicode="&#xa5;" horiz-adv-x="649" 
d="M623 1163l-191 -664h154v-143h-187v-24h187v-144h-187v-188h-149v188h-184v144h184v24h-184v143h151l-191 664h158l140 -493l142 493h157z" />
    <glyph glyph-name="mu" unicode="&#xb5;" horiz-adv-x="1151" 
d="M1067 1071l-156 -731q0 -4 -4 -21q-18 -88 -18 -112q0 -68 72 -68h18l14 2l-30 -143q-30 -6 -51.5 -8t-57.5 -2q-63 0 -96 28q-36 31 -53 101q-90 -131 -271 -131q-156 0 -256 116l-110 -530h-181l318 1499h180l-129 -600q-14 -67 -14 -133q0 -98 52 -152.5t148 -54.5
q154 0 237 132q56 87 95 272l115 536h178z" />
    <glyph glyph-name="mu" unicode="&#x3bc;" horiz-adv-x="1151" 
d="M1067 1071l-156 -731q0 -4 -4 -21q-18 -88 -18 -112q0 -68 72 -68h18l14 2l-30 -143q-30 -6 -51.5 -8t-57.5 -2q-63 0 -96 28q-36 31 -53 101q-90 -131 -271 -131q-156 0 -256 116l-110 -530h-181l318 1499h180l-129 -600q-14 -67 -14 -133q0 -98 52 -152.5t148 -54.5
q154 0 237 132q56 87 95 272l115 536h178z" />
    <glyph glyph-name="partialdiff" unicode="&#x2202;" horiz-adv-x="1059" 
d="M961 752q0 -336 -144 -555q-144 -222 -358 -222q-152 0 -253.5 108t-101.5 271q0 182 99 312q108 143 284 143q195 0 269 -188q30 178 30 325q0 260 -145 260q-56 0 -127 -57q-74 -59 -108 -59t-59 21.5t-25 53.5q0 75 89 122q74 38 156 38q206 0 311 -194
q83 -154 83 -379zM707 494q0 241 -166 241q-108 0 -179 -130t-71 -335q0 -239 166 -239q109 0 180 131q70 128 70 332z" />
    <glyph glyph-name="summation" unicode="&#x2211;" horiz-adv-x="1380" 
d="M1339 -393h-1314v149l725 801l-695 739v177h1258v-193h-959l672 -717l-694 -764h1007v-192z" />
    <glyph glyph-name="product" unicode="&#x220f;" horiz-adv-x="1550" 
d="M1393 -393h-240v1661h-758v-1661h-239v1866h1237v-1866z" />
    <glyph glyph-name="pi" unicode="&#x3c0;" horiz-adv-x="1206" 
d="M1194 1071l-35 -158h-182l-105 -487q-11 -55 -22 -121q-8 -50 -8 -67q0 -107 102 -107q20 0 39 2q4 1 61 8l-30 -141q-62 -16 -111 -16q-239 0 -239 202q0 90 55 351l80 376h-326l-194 -913h-181l195 913h-41q-106 0 -123 -133h-160q28 166 99.5 228.5t236.5 62.5h889z
" />
    <glyph glyph-name="integral" unicode="&#x222b;" horiz-adv-x="1067" 
d="M1008 1409q0 -72 -23 -94q-31 -31 -86 -31q-42 0 -69.5 18.5t-41.5 55.5q-4 25 -9 50q-7 36 -21 36q-107 0 -121 -619q-4 -193 -8 -303q-13 -367 -60 -543q-94 -350 -342 -350q-72 0 -123 37q-57 41 -57 111q0 56 34 87.5t95 31.5q65 0 96 -58q2 -3 14 -58q9 -42 25 -42
q105 0 119 688q2 64 4 166q12 514 107 736t297 222q80 0 131 -43q39 -32 39 -98z" />
    <glyph glyph-name="ordfeminine" unicode="&#xaa;" horiz-adv-x="532" 
d="M462 604h-142l-18 133h-67l-23 -133h-142l131 802q8 48 65 48q62 0 70 -48zM279 870l-12 78l-13 -78h25z" />
    <glyph glyph-name="ordmasculine" unicode="&#xba;" horiz-adv-x="524" 
d="M451 764q0 -71 -54.5 -115.5t-134.5 -44.5t-134 44.5t-54 115.5v530q0 71 54 115.5t134 44.5t134.5 -44.5t54.5 -115.5v-530zM313 764v530q0 7 -13 17q-17 12 -38 12t-35 -11t-14 -18v-530q0 -27 49 -27q21 0 38 11q13 9 13 16z" />
    <glyph glyph-name="Omega" unicode="&#x3a9;" horiz-adv-x="1565" 
d="M1487 0h-600v178q179 98 277 262.5t98 368.5q0 231 -123 376q-130 154 -357 154q-225 0 -357 -154q-124 -146 -124 -376q0 -201 100 -367.5t277 -263.5v-178h-600v178h319q-159 140 -231 288t-72 333q0 320 191 516t497 196q307 0 499 -198q189 -196 189 -504
q0 -198 -76 -351q-71 -144 -227 -280h320v-178z" />
    <glyph glyph-name="Omega" unicode="&#x2126;" horiz-adv-x="1565" 
d="M1487 0h-600v178q179 98 277 262.5t98 368.5q0 231 -123 376q-130 154 -357 154q-225 0 -357 -154q-124 -146 -124 -376q0 -201 100 -367.5t277 -263.5v-178h-600v178h319q-159 140 -231 288t-72 333q0 320 191 516t497 196q307 0 499 -198q189 -196 189 -504
q0 -198 -76 -351q-71 -144 -227 -280h320v-178z" />
    <glyph glyph-name="ae" unicode="&#xe6;" horiz-adv-x="922" 
d="M868 0h-387q-30 0 -52.5 23t-22.5 48v131h-180l-66 -202h-162l411 1206q17 51 72 51h381v-140h-307v-252h307v-143h-307v-579h313v-143zM406 343v382l-130 -382h130z" />
    <glyph glyph-name="oslash" unicode="&#xf8;" horiz-adv-x="618" 
d="M565 200q0 -95 -72 -158t-182 -63q-22 0 -43 3l-2 -17l-158 21l15 61q-70 61 -70 153v860q0 95 74 157t184 62q32 0 62 -6l5 34l157 -19l-21 -93q51 -56 51 -135v-860zM345 1132q-15 4 -34 4q-48 0 -81 -30q-27 -24 -27 -46v-649zM418 200v551l-122 -626q7 -1 15 -1
q49 0 81 30q26 24 26 46z" />
    <glyph glyph-name="questiondown" unicode="&#xbf;" horiz-adv-x="543" 
d="M41 252q0 233 108 483q70 163 84.5 232t14.5 242h151v-22q0 -260 -113 -521q-84 -196 -84 -414q0 -36 18 -60t40 -24q21 0 38.5 23.5t17.5 60.5v123h161v-123q0 -97 -57 -171q-63 -81 -160 -81t-160 81q-59 74 -59 171zM250 1454h149v-143h-149v143z" />
    <glyph glyph-name="exclamdown" unicode="&#xa1;" horiz-adv-x="297" 
d="M61 1186h150v-1186h-150v1186zM61 1434h150v-144h-150v144z" />
    <glyph glyph-name="logicalnot" unicode="&#xac;" horiz-adv-x="1706" 
d="M1452 358h-137v363h-1061v139h1198v-502z" />
    <glyph glyph-name="radical" unicode="&#x221a;" horiz-adv-x="1305" 
d="M1305 1565h-115l-594 -1606h-66l-319 883l-125 -45l-25 80l283 98l256 -709l516 1395h189v-96z" />
    <glyph glyph-name="florin" unicode="&#x192;" horiz-adv-x="1018" 
d="M985 829h-149v112q0 30 -35 61q-42 36 -103 36q-60 0 -101 -36q-34 -31 -34 -61v-321h264v-144h-264v-526q0 -103 -82 -173t-205 -70q-122 0 -203 70t-81 173v110h149v-110q0 -31 34 -62q41 -37 101 -37q61 0 103 37q35 32 35 62v526h-242v144h242v321q0 103 81 172
t203 69q123 0 205 -69t82 -172v-112z" />
    <glyph glyph-name="approxequal" unicode="&#x2248;" horiz-adv-x="1706" 
d="M1530 799q-103 -72 -198.5 -107t-190.5 -35q-99 0 -288.5 68t-289.5 68q-86 0 -171 -34.5t-214 -123.5v156q109 73 203 108t184 35q105 0 300 -67.5t278 -67.5q87 0 176 35q84 33 211 120v-155zM1530 430q-105 -73 -199 -106q-97 -35 -190 -35q-98 0 -288 67.5t-290 67.5
q-80 0 -172 -37t-213 -121v156q106 71 204.5 108t182.5 37q112 0 305 -69q188 -68 273 -68q91 0 177 34.5t210 121.5v-156z" />
    <glyph glyph-name="approxequal" unicode="&#x22f2;" horiz-adv-x="1706" 
d="M1530 799q-103 -72 -198.5 -107t-190.5 -35q-99 0 -288.5 68t-289.5 68q-86 0 -171 -34.5t-214 -123.5v156q109 73 203 108t184 35q105 0 300 -67.5t278 -67.5q87 0 176 35q84 33 211 120v-155zM1530 430q-105 -73 -199 -106q-97 -35 -190 -35q-98 0 -288 67.5t-290 67.5
q-80 0 -172 -37t-213 -121v156q106 71 204.5 108t182.5 37q112 0 305 -69q188 -68 273 -68q91 0 177 34.5t210 121.5v-156z" />
    <glyph glyph-name="Delta" unicode="&#x394;" horiz-adv-x="1370" 
d="M1376 0h-1382l579 1473h224zM1102 178l-418 1084l-418 -1084h836z" />
    <glyph glyph-name="Delta" unicode="&#x2206;" horiz-adv-x="1370" 
d="M1376 0h-1382l579 1473h224zM1102 178l-418 1084l-418 -1084h836z" />
    <glyph glyph-name="guillemotleft" unicode="&#xab;" horiz-adv-x="518" 
d="M436 428l-90 -45l-96 203q-6 16 -6 18q0 6 6 19l96 204l90 -45l-86 -178zM274 428l-90 -45l-96 203q-6 16 -6 18q0 6 6 19l96 204l90 -45l-86 -178z" />
    <glyph glyph-name="guillemotright" unicode="&#xbb;" horiz-adv-x="518" 
d="M436 604q0 -2 -6 -18l-96 -203l-90 45l86 176l-86 178l90 45l96 -204q6 -13 6 -19zM274 604q0 -2 -6 -18l-96 -203l-90 45l86 176l-86 178l90 45l96 -204q6 -13 6 -19z" />
    <glyph glyph-name="ellipsis" unicode="&#x2026;" horiz-adv-x="723" 
d="M659 0h-149v147h149v-147zM436 0h-149v147h149v-147zM211 0h-150v147h150v-147z" />
    <glyph glyph-name="Agrave" unicode="&#xc0;" horiz-adv-x="625" 
d="M605 0h-154l-38 241h-201l-39 -241h-154l221 1403q8 51 71 51q66 0 74 -51zM392 382l-81 529l-78 -529h159zM375 1562l-68 -65l-108 114l68 66z" />
    <glyph glyph-name="Atilde" unicode="&#xc3;" horiz-adv-x="625" 
d="M605 0h-154l-38 241h-201l-39 -241h-154l221 1403q8 51 71 51q66 0 74 -51zM392 382l-81 529l-78 -529h159zM508 1583q-38 -80 -129 -80q-37 0 -85.5 22.5t-62.5 22.5q-21 0 -37 -26l-92 37q40 80 131 80q37 0 85.5 -22.5t62.5 -22.5q21 0 35 24z" />
    <glyph glyph-name="Otilde" unicode="&#xd5;" horiz-adv-x="678" 
d="M625 221q0 -104 -82.5 -172.5t-204.5 -68.5t-203.5 68.5t-81.5 172.5v992q0 103 81.5 172t203.5 69t204.5 -69t82.5 -172v-992zM473 221v992q0 31 -34 62q-41 38 -101 38t-100 -38q-33 -31 -33 -62v-992q0 -31 33 -62q40 -36 100 -36t101 37q34 30 34 61zM541 1583
q-38 -80 -129 -80q-37 0 -85.5 22.5t-62.5 22.5q-21 0 -37 -26l-92 37q40 80 131 80q37 0 85.5 -22.5t62.5 -22.5q21 0 35 24z" />
    <glyph glyph-name="OE" unicode="&#x152;" horiz-adv-x="985" 
d="M932 0h-594q-122 0 -203.5 69t-81.5 172v952q0 103 81.5 172t203.5 69h584v-142h-359v-314h359v-144h-359v-691h369v-143zM410 143v1149h-72q-60 0 -100 -37q-33 -31 -33 -62v-952q0 -31 33 -61q40 -37 100 -37h72z" />
    <glyph glyph-name="oe" unicode="&#x153;" horiz-adv-x="905" 
d="M852 0h-539q-110 0 -185 62t-75 156v821q0 94 75 156t185 62h531v-140h-305v-252h305v-143h-305v-579h313v-143zM389 143v974h-76q-48 0 -81 -31q-27 -25 -27 -47v-821q0 -21 27 -46q33 -29 81 -29h76z" />
    <glyph glyph-name="endash" unicode="&#x2013;" horiz-adv-x="1049" 
d="M975 553h-901v109h901v-109z" />
    <glyph glyph-name="emdash" unicode="&#x2014;" horiz-adv-x="2048" 
d="M2077 553h-2106v109h2106v-109z" />
    <glyph glyph-name="quotedblleft" unicode="&#x201c;" horiz-adv-x="504" 
d="M442 1057h-149v155l100 107v-113h49v-149zM211 1057h-150v155l101 107v-113h49v-149z" />
    <glyph glyph-name="quotedblright" unicode="&#x201d;" horiz-adv-x="504" 
d="M442 1163l-100 -106v112h-49v150h149v-156zM211 1163l-100 -106v112h-50v150h150v-156z" />
    <glyph glyph-name="quoteleft" unicode="&#x2018;" horiz-adv-x="272" 
d="M211 1056h-150v156l101 107v-113h49v-150z" />
    <glyph glyph-name="quoteright" unicode="&#x2019;" horiz-adv-x="272" 
d="M211 1161l-100 -107v113h-50v150h150v-156z" />
    <glyph glyph-name="divide" unicode="&#xf7;" horiz-adv-x="1706" 
d="M979 979q0 -52 -36.5 -88.5t-88.5 -36.5t-88.5 36.5t-36.5 88.5q0 53 36.5 90t88.5 37t88.5 -37t36.5 -90zM1452 541h-1198v139h1198v-139zM979 242q0 -52 -36.5 -88.5t-88.5 -36.5q-51 0 -88 36.5t-37 88.5q0 51 36.5 88t88.5 37t88.5 -37t36.5 -88z" />
    <glyph glyph-name="lozenge" unicode="&#x25ca;" horiz-adv-x="1012" 
d="M1006 592l-500 -1069l-500 1069l500 1061zM891 592l-385 817l-385 -817l385 -825z" />
    <glyph glyph-name="ydieresis" unicode="&#xff;" horiz-adv-x="573" 
d="M556 1257l-196 -839v-418h-149v418l-194 839h155l115 -538l114 538h155zM410 1391q0 -48 -57 -48q-55 0 -55 48q0 47 57 47q55 0 55 -47zM262 1391q0 -48 -55 -48t-55 48q0 47 57 47q53 0 53 -47z" />
    <glyph glyph-name="Ydieresis" unicode="&#x178;" horiz-adv-x="588" 
d="M591 1434l-222 -958v-476h-150v476l-222 958h157l139 -622l141 622h157zM420 1555q0 -48 -57 -48q-55 0 -55 48q0 47 57 47q55 0 55 -47zM272 1555q0 -48 -55 -48t-55 48q0 47 57 47q53 0 53 -47z" />
    <glyph glyph-name="fraction" unicode="&#x2044;" horiz-adv-x="905" 
d="M840 1416l-631 -1429l-143 30l628 1430z" />
    <glyph glyph-name="currency" unicode="&#xa4;" horiz-adv-x="778" 
d="M725 219q0 -103 -82 -171t-205 -68q-122 0 -205 68.5t-83 170.5v111h-146l53 145h93v44h-147l54 142h93v281q0 103 83 171.5t205 68.5q123 0 205 -68.5t82 -171.5v-111h-154v111q0 31 -33 62q-40 37 -100 37t-102 -37q-35 -32 -35 -62v-281h265l-54 -142h-211v-44h211
l-51 -145h-160v-111q0 -30 35 -60q41 -37 102 -37q60 0 100 36q33 30 33 61v103h154v-103z" />
    <glyph glyph-name="guilsinglleft" unicode="&#x2039;" horiz-adv-x="356" 
d="M274 428l-90 -45l-96 203q-6 16 -6 18q0 6 6 19l96 204l90 -45l-86 -178z" />
    <glyph glyph-name="guilsinglright" unicode="&#x203a;" horiz-adv-x="356" 
d="M274 606q0 -5 -6 -18l-96 -205l-90 45l86 178l-86 176l90 45l96 -202q6 -17 6 -19z" />
    <glyph glyph-name="fi" unicode="&#xf001;" horiz-adv-x="870" 
d="M547 722h-312v-722h-149v1186q0 25 21.5 48t51.5 23h388v-140h-312v-252h312v-143zM796 0h-149v1257h149v-1257z" />
    <glyph glyph-name="fl" unicode="&#xf002;" horiz-adv-x="1145" 
d="M547 722h-312v-722h-149v1186q0 25 21.5 48t51.5 23h388v-140h-312v-252h312v-143zM1133 0h-388q-30 0 -51.5 23t-21.5 48v1186h149v-1114h312v-143z" />
    <glyph glyph-name="daggerdbl" unicode="&#x2021;" 
d="M965 186h-367v-403h-172v403h-367v154h367v571h-367v156h367v406h172v-406h367v-156h-367v-571h367v-154z" />
    <glyph glyph-name="periodcentered" unicode="&#xb7;" horiz-adv-x="561" 
d="M406 702q0 -50 -37.5 -86t-87.5 -36q-52 0 -87.5 35.5t-35.5 86.5q0 52 35.5 87.5t87.5 35.5q50 0 87.5 -36t37.5 -87z" />
    <glyph glyph-name="periodcentered" unicode="&#x2219;" horiz-adv-x="561" 
d="M406 702q0 -50 -37.5 -86t-87.5 -36q-52 0 -87.5 35.5t-35.5 86.5q0 52 35.5 87.5t87.5 35.5q50 0 87.5 -36t37.5 -87z" />
    <glyph glyph-name="quotesinglbase" unicode="&#x201a;" horiz-adv-x="272" 
d="M211 -6l-100 -107v113h-50v150h150v-156z" />
    <glyph glyph-name="quotedblbase" unicode="&#x201e;" horiz-adv-x="504" 
d="M442 -4l-100 -107v113h-49v150h149v-156zM211 -4l-100 -107v113h-50v150h150v-156z" />
    <glyph glyph-name="perthousand" unicode="&#x2030;" horiz-adv-x="1495" 
d="M1442 140q0 -73 -54 -117t-135 -44q-80 0 -136 44t-56 117v311q0 72 56 117t136 45q81 0 135 -45t54 -117v-311zM1014 140q0 -73 -54 -117t-135 -44q-80 0 -136 44t-56 117v311q0 72 56 117t136 45q81 0 135 -45t54 -117v-311zM836 1092l-503 -1118l-142 33l464 1020
h-224q3 -16 3 -28v-309q0 -72 -56 -117t-136 -45q-81 0 -135 45t-54 117v309q0 72 54 117t135 45h524q28 0 49 -21.5t21 -47.5zM1303 140v311q0 27 -50 27q-21 0 -36 -10t-15 -17v-311q0 -26 51 -26q50 0 50 26zM874 140v311q0 27 -49 27q-21 0 -36 -10t-15 -17v-311
q0 -26 51 -26q49 0 49 26zM293 690v309q0 7 -15 17.5t-36 10.5q-49 0 -49 -28v-309q0 -28 49 -28q21 0 37 12q14 9 14 16z" />
    <glyph glyph-name="Acircumflex" unicode="&#xc2;" horiz-adv-x="625" 
d="M605 0h-154l-38 241h-201l-39 -241h-154l221 1403q8 51 71 51q66 0 74 -51zM392 382l-81 529l-78 -529h159zM495 1559l-51 -80l-129 74l-131 -74l-49 80l153 86q11 6 27 6t27 -6z" />
    <glyph glyph-name="Ecircumflex" unicode="&#xca;" horiz-adv-x="645" 
d="M592 0h-442q-31 0 -53.5 23t-22.5 49v1290q0 25 22.5 48.5t53.5 23.5h434v-142h-359v-314h359v-144h-359v-691h367v-143zM520 1559l-51 -80l-129 74l-131 -74l-49 80l153 86q11 6 27 6t27 -6z" />
    <glyph glyph-name="Aacute" unicode="&#xc1;" horiz-adv-x="625" 
d="M605 0h-154l-38 241h-201l-39 -241h-154l221 1403q8 51 71 51q66 0 74 -51zM392 382l-81 529l-78 -529h159zM416 1591l-108 -114l-68 65l108 115z" />
    <glyph glyph-name="Edieresis" unicode="&#xcb;" horiz-adv-x="645" 
d="M592 0h-442q-31 0 -53.5 23t-22.5 49v1290q0 25 22.5 48.5t53.5 23.5h434v-142h-359v-314h359v-144h-359v-691h367v-143zM467 1555q0 -48 -57 -48q-55 0 -55 48q0 47 57 47q55 0 55 -47zM319 1555q0 -48 -55 -48t-55 48q0 47 57 47q53 0 53 -47z" />
    <glyph glyph-name="Egrave" unicode="&#xc8;" horiz-adv-x="645" 
d="M592 0h-442q-31 0 -53.5 23t-22.5 49v1290q0 25 22.5 48.5t53.5 23.5h434v-142h-359v-314h359v-144h-359v-691h367v-143zM416 1542l-68 -65l-108 114l68 66z" />
    <glyph glyph-name="Iacute" unicode="&#xcd;" horiz-adv-x="299" 
d="M225 0h-151v1434h151v-1434zM252 1591l-108 -114l-68 65l108 115z" />
    <glyph glyph-name="Icircumflex" unicode="&#xce;" horiz-adv-x="299" 
d="M225 0h-151v1434h151v-1434zM321 1559l-51 -80l-129 74l-131 -74l-49 80l153 86q11 6 27 6t27 -6z" />
    <glyph glyph-name="Idieresis" unicode="&#xcf;" horiz-adv-x="299" 
d="M225 0h-151v1434h151v-1434zM279 1555q0 -48 -57 -48q-55 0 -55 48q0 47 57 47q55 0 55 -47zM131 1555q0 -48 -55 -48t-55 48q0 47 57 47q53 0 53 -47z" />
    <glyph glyph-name="Igrave" unicode="&#xcc;" horiz-adv-x="299" 
d="M225 0h-151v1434h151v-1434zM211 1542l-68 -65l-108 114l68 66z" />
    <glyph glyph-name="Oacute" unicode="&#xd3;" horiz-adv-x="678" 
d="M625 221q0 -104 -82.5 -172.5t-204.5 -68.5t-203.5 68.5t-81.5 172.5v992q0 103 81.5 172t203.5 69t204.5 -69t82.5 -172v-992zM473 221v992q0 31 -34 62q-41 38 -101 38t-100 -38q-33 -31 -33 -62v-992q0 -31 33 -62q40 -36 100 -36t101 37q34 30 34 61zM436 1591
l-108 -114l-68 65l108 115z" />
    <glyph glyph-name="Ocircumflex" unicode="&#xd4;" horiz-adv-x="678" 
d="M625 221q0 -104 -82.5 -172.5t-204.5 -68.5t-203.5 68.5t-81.5 172.5v992q0 103 81.5 172t203.5 69t204.5 -69t82.5 -172v-992zM473 221v992q0 31 -34 62q-41 38 -101 38t-100 -38q-33 -31 -33 -62v-992q0 -31 33 -62q40 -36 100 -36t101 37q34 30 34 61zM514 1559
l-51 -80l-129 74l-131 -74l-49 80l153 86q11 6 27 6t27 -6z" />
    <glyph glyph-name="Ograve" unicode="&#xd2;" horiz-adv-x="678" 
d="M625 221q0 -104 -82.5 -172.5t-204.5 -68.5t-203.5 68.5t-81.5 172.5v992q0 103 81.5 172t203.5 69t204.5 -69t82.5 -172v-992zM473 221v992q0 31 -34 62q-41 38 -101 38t-100 -38q-33 -31 -33 -62v-992q0 -31 33 -62q40 -36 100 -36t101 37q34 30 34 61zM395 1542
l-68 -65l-108 114l68 66z" />
    <glyph glyph-name="Uacute" unicode="&#xda;" horiz-adv-x="698" 
d="M635 221q0 -104 -82.5 -172.5t-204.5 -68.5t-203.5 68.5t-81.5 172.5v1213h152v-1213q0 -31 33 -62q40 -36 100 -36q61 0 101 36q34 31 34 62v1213h152v-1213zM457 1591l-108 -114l-68 65l108 115z" />
    <glyph glyph-name="Ucircumflex" unicode="&#xdb;" horiz-adv-x="698" 
d="M635 221q0 -104 -82.5 -172.5t-204.5 -68.5t-203.5 68.5t-81.5 172.5v1213h152v-1213q0 -31 33 -62q40 -36 100 -36q61 0 101 36q34 31 34 62v1213h152v-1213zM520 1559l-51 -80l-129 74l-131 -74l-49 80l153 86q11 6 27 6t27 -6z" />
    <glyph glyph-name="Ugrave" unicode="&#xd9;" horiz-adv-x="698" 
d="M635 221q0 -104 -82.5 -172.5t-204.5 -68.5t-203.5 68.5t-81.5 172.5v1213h152v-1213q0 -31 33 -62q40 -36 100 -36q61 0 101 36q34 31 34 62v1213h152v-1213zM416 1542l-68 -65l-108 114l68 66z" />
    <glyph glyph-name="dotlessi" unicode="&#x131;" horiz-adv-x="297" 
d="M223 0h-149v1257h149v-1257z" />
    <glyph glyph-name="circumflex" unicode="&#x2c6;" 
d="M692 1395l-51 -80l-129 74l-131 -74l-49 80l153 86q11 6 27 6t27 -6z" />
    <glyph glyph-name="tilde" unicode="&#x2dc;" 
d="M715 1419q-38 -80 -129 -80q-37 0 -85.5 22.5t-62.5 22.5q-21 0 -37 -26l-92 37q40 80 131 80q37 0 85.5 -22.5t62.5 -22.5q21 0 35 24z" />
    <glyph glyph-name="macron" unicode="&#xaf;" 
d="M662 1333h-300v109h300v-109z" />
    <glyph glyph-name="macron" unicode="&#x2c9;" 
d="M662 1333h-300v109h300v-109z" />
    <glyph glyph-name="breve" unicode="&#x2d8;" 
d="M690 1468q-46 -149 -178 -149t-178 149l96 29q28 -86 82 -86q52 0 80 86z" />
    <glyph glyph-name="dotaccent" unicode="&#x2d9;" 
d="M559 1391q0 -48 -47 -48t-47 48q0 47 49 47q45 0 45 -47z" />
    <glyph glyph-name="ring" unicode="&#x2da;" 
d="M623 1407q0 -47 -33.5 -78t-79.5 -31q-47 0 -79 34.5t-32 80.5q0 47 33.5 78t79.5 31t78.5 -34.5t32.5 -80.5zM559 1407q0 49 -49 49q-45 0 -45 -43q0 -49 41 -49q53 0 53 43z" />
    <glyph glyph-name="cedilla" unicode="&#xb8;" 
d="M688 -113q0 -43 -31 -75q-43 -43 -127 -43q-40 0 -112 26l28 90q58 -20 89 -20q55 0 55 24q0 21 -55 21q-50 0 -50 49q0 4 25 98l98 -24l-12 -47q92 -24 92 -99z" />
    <glyph glyph-name="hungarumlaut" unicode="&#x2dd;" 
d="M690 1427l-108 -114l-68 65l109 115zM510 1427l-109 -114l-67 65l108 115z" />
    <glyph glyph-name="ogonek" unicode="&#x2db;" 
d="M657 -135q-83 -35 -147 -35q-59 0 -102 26q-52 32 -52 91q0 63 62 135l78 -64q-31 -36 -31 -65q0 -25 43 -25q46 0 110 27z" />
    <glyph glyph-name="caron" unicode="&#x2c7;" 
d="M692 1411l-153 -86q-11 -6 -27 -6t-27 6l-153 86l49 78l131 -70l129 70z" />
    <glyph glyph-name="Lslash" unicode="&#x141;" horiz-adv-x="604" 
d="M592 0h-442q-31 0 -53.5 23t-22.5 49v527l-51 -29l-77 124l128 75v665h151v-577l55 32l77 -124l-132 -77v-545h367v-143z" />
    <glyph glyph-name="lslash" unicode="&#x142;" horiz-adv-x="547" 
d="M535 0h-388q-30 0 -51.5 23t-21.5 48v447l-51 -30l-77 124l128 75v570h149v-483l57 32l77 -124l-134 -77v-462h312v-143z" />
    <glyph glyph-name="Scaron" unicode="&#x160;" horiz-adv-x="647" 
d="M604 241q0 -106 -81 -182q-83 -79 -206 -79q-122 0 -203 68.5t-81 172.5v103h151v-103q0 -31 34 -62q39 -36 99 -36q58 0 100 45q36 38 36 73q0 167 -109 327q-101 135 -202 269q-109 169 -109 356q0 105 80 181q83 80 204 80q123 0 205 -69t82 -172v-112h-151v112
q0 31 -35 62q-40 38 -101 38q-57 0 -98 -46q-35 -39 -35 -74q0 -159 109 -311l202 -264q109 -172 109 -377zM489 1595l-153 -86q-11 -6 -27 -6t-27 6l-153 86l49 78l131 -70l129 70z" />
    <glyph glyph-name="scaron" unicode="&#x161;" horiz-adv-x="567" 
d="M535 208q0 -98 -64 -161q-68 -67 -190 -67q-110 0 -184 62t-74 156v91h149v-91q0 -21 27 -45q33 -29 82 -29q53 0 83 33q23 24 23 51q0 115 -56 222q-32 61 -122.5 176t-126.5 185q-59 116 -59 259q0 96 68 160q72 68 190 68q109 0 181.5 -62t72.5 -156v-100h-148v100
q0 21 -26 45q-32 30 -80 30q-52 0 -84 -33q-25 -27 -25 -52q0 -104 54 -203q32 -59 122.5 -172.5t126.5 -189.5q60 -125 60 -277zM446 1411l-153 -86q-11 -6 -27 -6t-27 6l-153 86l49 78l131 -70l129 70z" />
    <glyph glyph-name="Zcaron" unicode="&#x17d;" horiz-adv-x="600" 
d="M588 1358q0 -13 -3 -22l-391 -1193h338v-143h-446q-32 0 -53 22t-21 52q0 10 5 26l389 1192h-338v142h444q32 0 54 -23t22 -53zM489 1595l-153 -86q-11 -6 -27 -6t-27 6l-153 86l49 78l131 -70l129 70z" />
    <glyph glyph-name="zcaron" unicode="&#x17e;" horiz-adv-x="563" 
d="M541 1180q0 -11 -3 -20l-334 -1017h283v-143h-389q-75 0 -75 69q0 15 5 30l341 1018h-291v140h391q32 0 52 -24.5t20 -52.5zM475 1411l-153 -86q-11 -6 -27 -6t-27 6l-153 86l49 78l131 -70l129 70z" />
    <glyph glyph-name="brokenbar" unicode="&#xa6;" 
d="M588 674h-150v758h150v-758zM588 -350h-150v758h150v-758z" />
    <glyph glyph-name="Eth" unicode="&#xd0;" horiz-adv-x="688" 
d="M645 779q0 -417 -229 -640q-45 -44 -117 -92q-98 -67 -152 -67q-30 0 -51.5 23t-21.5 48v626h-123v145h123v560q0 26 21.5 49t51.5 23q132 0 262 -89q236 -162 236 -586zM494 779q0 158 -48 284q-69 179 -221 231v-472h115v-145h-115v-503q145 99 214 287q55 147 55 318z
" />
    <glyph glyph-name="eth" unicode="&#xf0;" horiz-adv-x="618" 
d="M586 680q0 -439 -283 -631q-102 -69 -156 -69q-30 0 -51.5 23t-21.5 48v504h-123v145h123v506q0 26 21.5 49t51.5 23q114 0 233 -81q206 -139 206 -517zM438 680q0 131 -39 237q-55 152 -176 200v-417h117v-145h-117v-378q215 162 215 503z" />
    <glyph glyph-name="Yacute" unicode="&#xdd;" horiz-adv-x="588" 
d="M591 1434l-222 -958v-476h-150v476l-222 958h157l139 -622l141 622h157zM395 1591l-108 -114l-68 65l108 115z" />
    <glyph glyph-name="yacute" unicode="&#xfd;" horiz-adv-x="573" 
d="M556 1257l-196 -839v-418h-149v418l-194 839h155l115 -538l114 538h155zM383 1427l-108 -114l-68 65l108 115z" />
    <glyph glyph-name="Thorn" unicode="&#xde;" horiz-adv-x="657" 
d="M645 1029q0 -187 -141 -450q-112 -208 -279 -409v-170h-151v1434h151v-150h140q280 0 280 -255zM494 1029q0 57 -18 78q-27 32 -111 32h-140v-715q269 385 269 605z" />
    <glyph glyph-name="thorn" unicode="&#xfe;" horiz-adv-x="608" 
d="M586 871q0 -154 -119 -334q-72 -110 -244 -299v-238h-149v1257h149v-158h113q250 0 250 -228zM438 871q0 45 -13 61q-21 26 -89 26h-113v-496q215 214 215 409z" />
    <glyph glyph-name="minus" unicode="&#x2212;" horiz-adv-x="1706" 
d="M1452 541h-1198v141h1198v-141z" />
    <glyph glyph-name="multiply" unicode="&#xd7;" horiz-adv-x="1706" 
d="M1427 141l-98 -96l-469 467l-469 -467l-98 96l469 469l-469 469l98 99l469 -469l469 469l98 -99l-469 -469z" />
    <glyph glyph-name="onesuperior" unicode="&#xb9;" horiz-adv-x="346" 
d="M264 723h-112v602h-70v109h182v-711z" />
    <glyph glyph-name="twosuperior" unicode="&#xb2;" horiz-adv-x="483" 
d="M401 1280q0 -148 -114 -297q-29 -34 -57 -68q-32 -41 -40 -79h183v-113h-240q-51 0 -51 55v10q0 95 33 153q3 6 88 116q94 122 94 223q0 11 -13 25q-17 18 -42 18t-41 -18q-13 -13 -13 -25v-78h-106v78q0 66 46 110t114 44q67 0 113 -44t46 -110z" />
    <glyph glyph-name="threesuperior" unicode="&#xb3;" horiz-adv-x="481" 
d="M399 874q0 -66 -46.5 -110.5t-112.5 -44.5q-67 0 -112.5 44.5t-45.5 110.5v64h104v-64q0 -10 14.5 -25t39.5 -15t42 16q13 14 13 24v144q0 11 -13 24q-17 17 -42 17q-17 0 -41 -14.5t-39 -14.5q-49 0 -49 43q0 10 4 17l135 231h-144v113h238q22 0 36.5 -18.5t14.5 -39.5
q0 -13 -53 -95q-67 -103 -72 -112q56 -9 92.5 -51t36.5 -100v-144z" />
    <glyph glyph-name="onehalf" unicode="&#xbd;" horiz-adv-x="950" 
d="M279 723h-113v602h-70v109h183v-711zM799 1421l-615 -1431l-102 22l612 1432zM868 557q0 -148 -114 -297q-29 -34 -57 -68q-32 -41 -40 -79h183v-113h-240q-51 0 -51 55v11q0 94 32 152q4 6 89 116q94 122 94 223q0 11 -13 25q-17 18 -42 18t-41 -18q-13 -13 -13 -25v-78
h-106v78q0 66 46 110t114 44q67 0 113 -44t46 -110z" />
    <glyph glyph-name="onequarter" unicode="&#xbc;" horiz-adv-x="911" 
d="M279 723h-113v602h-70v109h183v-711zM799 1421l-615 -1431l-102 22l612 1432zM829 150h-59v-150h-104v150h-138q-21 0 -37 18t-16 39q0 5 193 627q10 34 51 34q51 0 51 -55v-551h59v-112zM666 262v207l-64 -207h64z" />
    <glyph glyph-name="threequarters" unicode="&#xbe;" horiz-adv-x="1044" 
d="M399 874q0 -66 -46.5 -110.5t-112.5 -44.5q-67 0 -112.5 44.5t-45.5 110.5v64h104v-64q0 -10 14.5 -25t39.5 -15t42 16q13 14 13 24v144q0 11 -13 24q-17 17 -42 17q-17 0 -41 -14.5t-39 -14.5q-49 0 -49 43q0 10 4 17l135 231h-144v113h238q22 0 36.5 -18.5t14.5 -39.5
q0 -13 -53 -95q-67 -103 -72 -112q56 -9 92.5 -51t36.5 -100v-144zM932 1421l-615 -1431l-102 22l612 1432zM963 150h-60v-150h-104v150h-137q-22 0 -38 18t-16 39q0 5 193 627q11 34 51 34q51 0 51 -55v-551h60v-112zM799 262v207l-64 -207h64z" />
    <glyph glyph-name="franc" unicode="&#x20a3;" horiz-adv-x="1233" 
d="M592 834h-367v-834h-151v1362q0 25 22.5 48.5t53.5 23.5h442v-142h-367v-314h367v-144zM1217 0h-157l-126 407q-48 -67 -97 -126v-281h-149v1186q0 25 21.5 48t51.5 23h189q252 0 252 -228q0 -190 -158 -454zM1052 1029q0 46 -13 62q-21 26 -89 26h-113v-579
q215 315 215 491z" />
    <glyph glyph-name="Gbreve" unicode="&#x11e;" horiz-adv-x="678" 
d="M625 221q0 -104 -82.5 -172.5t-204.5 -68.5t-203.5 68.5t-81.5 172.5v992q0 103 81.5 172t203.5 69t204.5 -69t82.5 -172v-112h-152v112q0 31 -34 62q-41 38 -101 38t-100 -38q-33 -31 -33 -62v-992q0 -31 33 -62q40 -36 100 -36t101 37q34 30 34 61v318h-176v146h252
q30 0 53 -23.5t23 -48.5v-392zM518 1652q-46 -149 -178 -149t-178 149l96 29q28 -86 82 -86q52 0 80 86z" />
    <glyph glyph-name="gbreve" unicode="&#x11f;" horiz-adv-x="618" 
d="M565 198q0 -94 -72 -156t-182 -62t-184 62t-74 156v862q0 94 74 156t184 62t182 -62t72 -156v-100h-147v100q0 21 -26 45q-33 30 -81 30t-81 -30q-27 -24 -27 -45v-862q0 -21 27 -45q33 -29 81 -29q49 0 81 29q26 23 26 45v268h-146v145h220q30 0 53 -24q20 -23 20 -48
v-341zM491 1468q-46 -149 -178 -149t-178 149l96 29q28 -86 82 -86q52 0 80 86z" />
    <glyph glyph-name="Idotaccent" unicode="&#x130;" horiz-adv-x="299" 
d="M225 0h-151v1434h151v-1434zM203 1555q0 -48 -47 -48t-47 48q0 47 49 47q45 0 45 -47z" />
    <glyph glyph-name="Scedilla" unicode="&#x15e;" horiz-adv-x="647" 
d="M604 241q0 -96 -68 -169q-70 -76 -177 -90l-11 -41q92 -24 92 -99q0 -43 -31 -75q-42 -43 -126 -43q-41 0 -113 26l29 90q57 -20 88 -20q55 0 55 24q0 21 -55 21q-49 0 -49 49q0 19 16 71q-98 17 -159.5 82t-61.5 154v103h151v-103q0 -31 34 -62q39 -36 99 -36
q58 0 100 45q36 38 36 73q0 167 -109 327q-101 135 -202 269q-109 169 -109 356q0 105 80 181q83 80 204 80q123 0 205 -69t82 -172v-112h-151v112q0 31 -35 62q-40 38 -101 38q-57 0 -98 -46q-35 -39 -35 -74q0 -159 109 -311l202 -264q109 -172 109 -377z" />
    <glyph glyph-name="scedilla" unicode="&#x15f;" horiz-adv-x="567" 
d="M535 208q0 -86 -50 -145q-52 -64 -148 -79l-11 -43q92 -24 92 -99q0 -43 -32 -75q-42 -43 -126 -43q-40 0 -113 26l29 90q58 -20 88 -20q55 0 55 24q0 21 -55 21q-49 0 -49 49q0 19 16 69q-92 14 -150 73t-58 142v91h149v-91q0 -21 27 -45q33 -29 82 -29q53 0 83 33
q23 24 23 51q0 115 -56 222q-32 61 -122.5 176t-126.5 185q-59 116 -59 259q0 96 68 160q72 68 190 68q109 0 181.5 -62t72.5 -156v-100h-148v100q0 21 -26 45q-32 30 -80 30q-52 0 -84 -33q-25 -27 -25 -52q0 -104 54 -203q32 -59 122.5 -172.5t126.5 -189.5
q60 -125 60 -277z" />
    <glyph glyph-name="Cacute" unicode="&#x106;" horiz-adv-x="657" 
d="M625 221q0 -104 -82.5 -172.5t-204.5 -68.5t-203.5 68.5t-81.5 172.5v992q0 103 81.5 172t203.5 69t204.5 -69t82.5 -172v-112h-152v112q0 31 -34 62q-41 38 -101 38t-100 -38q-33 -31 -33 -62v-992q0 -31 33 -62q40 -36 100 -36t101 37q34 30 34 61v103h152v-103z
M436 1591l-108 -114l-68 65l108 115z" />
    <glyph glyph-name="cacute" unicode="&#x107;" horiz-adv-x="598" 
d="M565 198q0 -94 -72 -156t-182 -62t-184 62t-74 156v862q0 94 74 156t184 62t182 -62t72 -156v-100h-147v100q0 21 -26 45q-33 30 -81 30t-81 -30q-27 -24 -27 -45v-862q0 -21 27 -45q33 -29 81 -29q49 0 81 29q26 23 26 45v91h147v-91zM395 1427l-108 -114l-68 65
l108 115z" />
    <glyph glyph-name="Ccaron" unicode="&#x10c;" horiz-adv-x="657" 
d="M625 221q0 -104 -82.5 -172.5t-204.5 -68.5t-203.5 68.5t-81.5 172.5v992q0 103 81.5 172t203.5 69t204.5 -69t82.5 -172v-112h-152v112q0 31 -34 62q-41 38 -101 38t-100 -38q-33 -31 -33 -62v-992q0 -31 33 -62q40 -36 100 -36t101 37q34 30 34 61v103h152v-103z
M495 1595l-153 -86q-11 -6 -27 -6t-27 6l-153 86l49 78l131 -70l129 70z" />
    <glyph glyph-name="ccaron" unicode="&#x10d;" horiz-adv-x="598" 
d="M565 198q0 -94 -72 -156t-182 -62t-184 62t-74 156v862q0 94 74 156t184 62t182 -62t72 -156v-100h-147v100q0 21 -26 45q-33 30 -81 30t-81 -30q-27 -24 -27 -45v-862q0 -21 27 -45q33 -29 81 -29q49 0 81 29q26 23 26 45v91h147v-91zM475 1411l-153 -86q-11 -6 -27 -6
t-27 6l-153 86l49 78l131 -70l129 70z" />
    <glyph glyph-name="dcroat" unicode="&#x111;" horiz-adv-x="618" 
d="M598 680q0 -439 -283 -631q-102 -69 -156 -69q-30 0 -51.5 23t-21.5 48v504h-123v145h123v506q0 26 21.5 49t51.5 23q114 0 233 -81q206 -139 206 -517zM450 680q0 131 -39 237q-55 152 -176 200v-417h117v-145h-117v-378q215 162 215 503z" />
    <glyph glyph-name="nonbreakingspace" unicode="&#xa0;" horiz-adv-x="338" 
 />
    <glyph glyph-name="apple" unicode="&#xf000;" horiz-adv-x="1618" 
d="M1167 1552q0 -131 -103 -234.5t-204 -103.5h-8h-8q-3 1 -8 3q-1 4 -2 14v22q0 132 102 237q96 99 229 124q1 -7 2 -23v-39zM1505 403q-90 -195 -152 -279q-118 -159 -257 -159q-46 0 -129.5 33t-124.5 33q-44 0 -130 -33t-128 -33q-129 0 -258 176q-213 291 -213 596
q0 211 117 349q124 145 331 145q67 0 156 -35q84 -33 123 -33q31 0 123.5 35t150.5 35q113 0 198 -38.5t161 -125.5q-201 -128 -201 -328q0 -114 59 -199.5t174 -138.5z" />
    <glyph glyph-name="sfthyphen" unicode="&#xad;" horiz-adv-x="803" 
d="M729 553h-655v109h655v-109z" />
    <glyph glyph-name="Euro" unicode="&#x20ac;" horiz-adv-x="778" 
d="M737 219q0 -103 -82 -171t-205 -68q-122 0 -205 68.5t-83 170.5v111h-146l53 145h93v44h-147l54 142h93v281q0 103 83 171.5t205 68.5q123 0 205 -68.5t82 -171.5v-111h-154v111q0 31 -33 62q-40 37 -100 37t-102 -37q-35 -32 -35 -62v-281h265l-54 -142h-211v-44h211
l-51 -145h-160v-111q0 -30 35 -60q41 -37 102 -37q60 0 100 36q33 30 33 61v103h154v-103z" />
    </font>
</defs>
</svg>
