<svg id="Layer_1" data-name="Layer 1" xmlns="http://www.w3.org/2000/svg" viewBox="0 0 38.79 38.28"><defs><style>.cls-1{fill:#f8edd6;}</style></defs><title>cornder</title><path class="cls-1" d="M8.6,41a2.12,2.12,0,1,1-2.11,2.11A2.1,2.1,0,0,1,8.6,41" transform="translate(-6.49 -6.92)"/><path class="cls-1" d="M22,37.25a2.11,2.11,0,0,1-.85,2.92,2.08,2.08,0,0,1-2.87-.94,2.11,2.11,0,0,1,3.72-2" transform="translate(-6.49 -6.92)"/><path class="cls-1" d="M31.72,29.25a2.11,2.11,0,1,1-2.92.05,2.12,2.12,0,0,1,2.92-.05" transform="translate(-6.49 -6.92)"/><path class="cls-1" d="M38.69,18.72a2.11,2.11,0,1,1-2,3.73,2.13,2.13,0,0,1-.82-2.82,2.11,2.11,0,0,1,2.79-.91" transform="translate(-6.49 -6.92)"/><path class="cls-1" d="M45.28,9a2.11,2.11,0,1,1-2.11-2.11A2.12,2.12,0,0,1,45.28,9" transform="translate(-6.49 -6.92)"/></svg>