<svg id="Layer_1" data-name="Layer 1" xmlns="http://www.w3.org/2000/svg" viewBox="0 0 198.39 17.94"><defs><style>.cls-1{fill:#b89c46;}</style></defs><title>curl</title><path class="cls-1" d="M195.58,12a.81.81,0,0,1,0,1.62.8.8,0,0,1-.79-.69l0-.16,0-.15a.81.81,0,0,1,.78-.62M2.81,12a.81.81,0,0,1,.78.62l0,.15,0,.16A.8.8,0,1,1,2.81,12M99.43,0c-5.4,0-8,4.52-9,8.36a7.78,7.78,0,0,0-6.7-4.52H83.6a6.71,6.71,0,0,0-6.46,4.88,10.71,10.71,0,0,0-.42,2.18c-2.32,2.6-4.5,3.63-6,3.63a2.1,2.1,0,0,1-1.88-.89,1.64,1.64,0,0,1-.29-.7,1.4,1.4,0,0,0-1.14-1.37A144.68,144.68,0,0,0,51.57,11c-17.13,0-40.89,1-46,1.18a2.82,2.82,0,1,0,0,1.08c12.05-.47,22.89-.63,32-.63,12.8,0,22.11.31,26.39.49a2.57,2.57,0,0,1,2.48,2c.14.82.81,1.51,3,1.64h.27c2.82,0,5.94-2.52,7.24-3.7a4.89,4.89,0,0,0,1.66,2.76,4.72,4.72,0,0,0,3,1,4.49,4.49,0,0,0,2.17-.55c2.62-1.43,2.21-4.48,1.63-5.9a.76.76,0,0,0-.69-.46.72.72,0,0,0-.29.06.76.76,0,0,0-.41,1c0,.11,1.14,2.86-1,4a3.09,3.09,0,0,1-1.46.36,3.2,3.2,0,0,1-2-.71c-1.3-1-1.63-3-.9-5.47a5.14,5.14,0,0,1,5-3.82h.15C86,5.39,88.91,7,90,11.43a.74.74,0,0,0,.72.57h.07a.75.75,0,0,0,.68-.7c0-.41.79-9.8,8-9.8h.42c3.94.19,5.8,2.13,6.67,3.72a8.45,8.45,0,0,1,0,7.88,4.92,4.92,0,0,1-4.37,2.16,6.24,6.24,0,0,1-2-.3,4.17,4.17,0,0,1-2.9-4.86c.23-1.7.94-2.77,2-3a2.4,2.4,0,0,1,.46-.05A2.75,2.75,0,0,1,102,8.26,1.4,1.4,0,0,1,101.9,10a.76.76,0,0,0,.14,1.06.74.74,0,0,0,.45.15.76.76,0,0,0,.6-.29,2.9,2.9,0,0,0,.16-3.45,4.21,4.21,0,0,0-3.49-1.9,3.55,3.55,0,0,0-.79.09c-1,.22-2.73,1.06-3.16,4.26a5.62,5.62,0,0,0,3.9,6.48,7.84,7.84,0,0,0,2.44.39,6.4,6.4,0,0,0,5.68-2.93,9.32,9.32,0,0,0,1.1-3.56l0,0c.11-.16,2.42-3.52,6.18-3.52a6.69,6.69,0,0,1,1.61.2,4.7,4.7,0,0,1,3.68,4,4.94,4.94,0,0,1-2.16,5,3.55,3.55,0,0,1-1.87.54,3.75,3.75,0,0,1-2.65-1.14,3,3,0,0,1-.54-3.72,2.08,2.08,0,0,1,1.68-1.16h.1a1.73,1.73,0,0,1,1.41,1,1.07,1.07,0,0,1-.08,1.12.75.75,0,0,0,.17,1,.79.79,0,0,0,.44.14.77.77,0,0,0,.61-.31,2.54,2.54,0,0,0,.21-2.64,3.22,3.22,0,0,0-2.66-1.82h-.2a3.45,3.45,0,0,0-2.94,1.86,4.42,4.42,0,0,0,.73,5.58,5.31,5.31,0,0,0,3.72,1.59,5,5,0,0,0,2.65-.77,6.18,6.18,0,0,0,2.74-3.9c1.43,1.25,4.33,3.46,7,3.46H129c2.14-.13,2.8-.82,2.95-1.64a2.57,2.57,0,0,1,2.48-2c4.28-.18,13.59-.49,26.38-.49,9.09,0,19.93.16,32,.63a2.8,2.8,0,1,0,0-1.08C187.7,12,163.94,11,146.82,11a144.77,144.77,0,0,0-15.82.58,1.41,1.41,0,0,0-1.14,1.37,1.6,1.6,0,0,1-.28.7,2.1,2.1,0,0,1-1.87.88c-1.48,0-3.55-.94-5.76-3.32,0-.17,0-.34,0-.52a6.19,6.19,0,0,0-4.8-5.19,8,8,0,0,0-2-.26A8.88,8.88,0,0,0,108.93,8a9.52,9.52,0,0,0-1.07-3.5C106.37,1.79,103.55.19,99.94,0h-.51" transform="translate(0 0)"/></svg>