<svg id="Layer_1" data-name="Layer 1" xmlns="http://www.w3.org/2000/svg" viewBox="0 0 234.96 8.81"><defs><style>.cls-1{fill:#b89c46;}</style></defs><title>divider</title><path class="cls-1" d="M234.69,4.09,228.17.65a1.7,1.7,0,0,0-1.69.07A22.16,22.16,0,0,1,215,4H174.14a22.61,22.61,0,0,1-6.78-1.07,43.89,43.89,0,0,0-11.67-1.3A43.78,43.78,0,0,0,144,2.88,22.66,22.66,0,0,1,137.24,4H124.71C124.33,1.73,121.24,0,117.48,0s-6.85,1.73-7.23,4H97.73A22.61,22.61,0,0,1,91,2.88a43.89,43.89,0,0,0-11.67-1.3,43.78,43.78,0,0,0-11.67,1.3A22.66,22.66,0,0,1,60.83,4H20A22.14,22.14,0,0,1,8.49.72,1.7,1.7,0,0,0,6.8.65L.28,4.09A.52.52,0,0,0,.28,5L6.8,8.45a1.68,1.68,0,0,0,1.69-.07A22.14,22.14,0,0,1,20,5.15H60.83a22.66,22.66,0,0,1,6.78,1.07,43.78,43.78,0,0,0,11.67,1.3A43.89,43.89,0,0,0,91,6.22a22.54,22.54,0,0,1,6.77-1.07h12.61c.59,2.08,3.56,3.66,7.15,3.66s6.57-1.58,7.16-3.66h12.6A22.66,22.66,0,0,1,144,6.22a43.37,43.37,0,0,0,11.67,1.3,43.48,43.48,0,0,0,11.67-1.3,22.61,22.61,0,0,1,6.78-1.07H215a22.16,22.16,0,0,1,11.52,3.23,1.68,1.68,0,0,0,1.69.07L234.69,5a.52.52,0,0,0,0-.92" transform="translate(0 0)"/></svg>