<svg id="Layer_1" data-name="Layer 1" xmlns="http://www.w3.org/2000/svg" viewBox="0 0 51.1 4.53"><defs><style>.cls-1{fill:#f8edd6;}.cls-2{fill:none;}</style></defs><title>dots</title><path class="cls-1" d="M12.85,2.29A2.11,2.11,0,1,1,10.75.17a2.11,2.11,0,0,1,2.1,2.12" transform="translate(0.02 0.02)"/><path class="cls-1" d="M25.55,2.29A2.11,2.11,0,1,1,23.45.17a2.11,2.11,0,0,1,2.1,2.12" transform="translate(0.02 0.02)"/><path class="cls-1" d="M38.25,2.29A2.11,2.11,0,1,1,36.15.17a2.11,2.11,0,0,1,2.1,2.12" transform="translate(0.02 0.02)"/><path class="cls-1" d="M51,2.29A2.11,2.11,0,1,1,48.85.17,2.11,2.11,0,0,1,51,2.29" transform="translate(0.02 0.02)"/><rect class="cls-2" width="51.1" height="4.53"/></svg>