<svg xmlns="http://www.w3.org/2000/svg" viewBox="0 0 317.06 253.65"><defs><style>.cls-1{fill:#b89c46;}.cls-2{fill:#f8edd6;opacity:0.6;}</style></defs><title>round-shape</title><g id="Layer_1" data-name="Layer 1"><path class="cls-1" d="M158.53,2A124.77,124.77,0,0,1,264.6,61l.59,1h31.09a20.41,20.41,0,0,0,18.78,19v91.9a20.42,20.42,0,0,0-18.77,18.85h-31.1l-.59.94a124.83,124.83,0,0,1-212.14,0l-.58-.94H20.83A20.43,20.43,0,0,0,2,172.85V81A20.41,20.41,0,0,0,20.84,62h31l.58-1A124.77,124.77,0,0,1,158.53,2m0-2A126.74,126.74,0,0,0,50.76,60H18.85c0,.23,0,.45,0,.68A18.38,18.38,0,0,1,.5,79c-.17,0-.33,0-.5,0v95.83l.5,0a18.38,18.38,0,0,1,18.38,18.38c0,.18,0,.35,0,.53H50.76a126.85,126.85,0,0,0,215.54,0h32c0-.18,0-.35,0-.53a18.38,18.38,0,0,1,18.38-18.38l.44,0V79l-.44,0a18.38,18.38,0,0,1-18.38-18.39c0-.23,0-.45,0-.68h-32A126.73,126.73,0,0,0,158.53,0" transform="translate(0 0)"/><path class="cls-1" d="M158.53,7A119.2,119.2,0,0,1,260.35,63.64l1.77,2.83.29.48H292a25.55,25.55,0,0,0,18,18.21v83.5a25.58,25.58,0,0,0-18,18.05H262.41l-.29.47L260.35,190a119.84,119.84,0,0,1-203.64,0L55,187.18l-.3-.47H25A25.57,25.57,0,0,0,7,168.64V85.17A25.54,25.54,0,0,0,25.09,67H54.65l.3-.48,1.76-2.83A119.21,119.21,0,0,1,158.53,7m0-1A120.21,120.21,0,0,0,55.86,63.11L54.1,66H24.3A24.48,24.48,0,0,1,6,84.39v85a24.48,24.48,0,0,1,18.26,18.29H54.1l1.76,2.83a120.84,120.84,0,0,0,205.34,0l1.76-2.83h29.9a24.47,24.47,0,0,1,18.2-18.27V84.38A24.47,24.47,0,0,1,292.82,66H263l-1.76-2.84A120.21,120.21,0,0,0,158.53,6" transform="translate(0 0)"/></g><g id="Layer_2" data-name="Layer 2"><path class="cls-2" d="M158.53,7A119.2,119.2,0,0,1,260.35,63.64l1.77,2.83.29.48H292a25.55,25.55,0,0,0,18,18.21v83.5a25.58,25.58,0,0,0-18,18.05H262.41l-.29.47L260.35,190a119.84,119.84,0,0,1-203.64,0L55,187.18l-.3-.47H25A25.57,25.57,0,0,0,7,168.64V85.17A25.54,25.54,0,0,0,25.09,67H54.65l.3-.48,1.76-2.83A119.21,119.21,0,0,1,158.53,7" transform="translate(0 0)"/></g></svg>