<svg id="Layer_1" data-name="Layer 1" xmlns="http://www.w3.org/2000/svg" xmlns:xlink="http://www.w3.org/1999/xlink" viewBox="0 0 172 83"><defs><style>.cls-1{fill:none;}.cls-2{clip-path:url(#clip-path);}.cls-3{fill:#f8edd6;}</style><clipPath id="clip-path"><rect class="cls-1" width="172" height="83"/></clipPath></defs><title>shape</title><g class="cls-2"><path class="cls-3" d="M86,2c28,0,52.71,6.51,67.86,16.5h10.69a4.23,4.23,0,0,0-.05.5,5,5,0,0,0,5,5A4.23,4.23,0,0,0,170,24v35.1a4.23,4.23,0,0,0-.5,0,5,5,0,0,0-5,5,4.23,4.23,0,0,0,.05.5H153.86C138.71,74.49,114,81,86,81S33.29,74.49,18.14,64.5H7.45a4.23,4.23,0,0,0,0-.5,5,5,0,0,0-5-5,4.23,4.23,0,0,0-.5,0V24a4.23,4.23,0,0,0,.5.05,5,5,0,0,0,5-5,4.23,4.23,0,0,0,0-.5H18.14C33.29,8.51,58,2,86,2m0-2C59.09,0,33.56,6.16,17.54,16.5H5.24l.22,2.2,0,.24s0,.06,0,.1a3,3,0,0,1-3,3H2.43L2.2,22,0,21.74V61.26L2.2,61l.23,0h.11a3,3,0,0,1,3,3,.24.24,0,0,0,0,.07l0,.23-.22,2.2h12.3C33.56,76.84,59.09,83,86,83s52.43-6.16,68.46-16.5h12.3l-.22-2.2,0-.23s0-.07,0-.11a3,3,0,0,1,3-3h.07l.23,0,2.2.22V21.74l-2.2.22-.23,0h-.11a3,3,0,0,1-3-3,.22.22,0,0,0,0-.06l0-.24.22-2.2h-12.3C138.43,6.16,112.91,0,86,0"/><path class="cls-3" d="M86,78c-26.26,0-51-6-66.21-16L19,61.5H10.1A8,8,0,0,0,5,56.4V26.6a8,8,0,0,0,5.1-5.1H19l.75-.49C35,11,59.74,5,86,5s51,6,66.21,16l.75.49h8.94a8,8,0,0,0,5.1,5.1V56.4a8,8,0,0,0-5.1,5.1H153l-.75.5C137,72,112.26,78,86,78"/></g></svg>